<svg width="25" height="24" viewBox="0 0 25 24" fill="none" xmlns="http://www.w3.org/2000/svg">
<path fill-rule="evenodd" clip-rule="evenodd" d="M2.25 10.6699C2.25 5.88166 6.09034 2 10.8276 2C13.1026 2 15.2843 2.91344 16.8929 4.53936C18.5016 6.16529 19.4053 8.37052 19.4053 10.6699C19.4053 15.4582 15.5649 19.3399 10.8276 19.3399C6.09034 19.3399 2.25 15.4582 2.25 10.6699ZM19.2634 17.6543L21.818 19.7164H21.8624C22.3792 20.2388 22.3792 21.0858 21.8624 21.6082C21.3455 22.1306 20.5076 22.1306 19.9907 21.6082L17.8707 19.1785C17.6703 18.9766 17.5576 18.7024 17.5576 18.4164C17.5576 18.1304 17.6703 17.8562 17.8707 17.6543C18.2572 17.2704 18.8768 17.2704 19.2634 17.6543Z" fill="#F8F9FA"/>
</svg>
