<svg xmlns="http://www.w3.org/2000/svg"
 viewBox="0 0 64 64" id="id-card">
 <path fill= "white" d="M56.07,15.77H37v3.38a3.73,3.73,0,0,1-3.73,3.73H30.72a3.73647,3.73647,0,0,1-3.73-3.73c-.00586-.81129.00422-2.55885,0-3.38l-19.06,0A3.93706,3.93706,0,0,0,4,19.7V51.44a3.93062,3.93062,0,0,0,3.93,3.93H56.07A3.93062,3.93062,0,0,0,60,51.44V19.7A3.93706,3.93706,0,0,0,56.07,15.77ZM36.71,28.13H51.67a1.00012,1.00012,0,0,1,0,2H36.71A1.00012,1.00012,0,0,1,36.71,28.13Zm0,5.86H51.67a1.00011,1.00011,0,0,1,0,2H36.71A1.00011,1.00011,0,0,1,36.71,33.99Zm0,5.87H51.67a1.00011,1.00011,0,0,1,0,2H36.71A1.00012,1.00012,0,0,1,36.71,39.86Zm0,5.86H51.67a1.00012,1.00012,0,0,1,0,2H36.71A1.00012,1.00012,0,0,1,36.71,45.72ZM27.56,26.67a1.99948,1.99948,0,0,1,2,2V47.71a2.00587,2.00587,0,0,1-2,2H11.49a2.00587,2.00587,0,0,1-2-2V28.67a1.99947,1.99947,0,0,1,2-2Z"></path><path d="M30.72 20.88H33.27A1.7306 1.7306 0 0035 19.15V10.63H28.99v8.52A1.73707 1.73707 0 0030.72 20.88zM32 15.55a1.46521 1.46521 0 01-.00006 2.93A1.46521 1.46521 0 0132 15.55zM11.49 47.71H27.56V28.67H11.49zm1.42-3.7a6.591 6.591 0 014.31-5.72 3.93 3.93 0 114.6 0 6.60088 6.60088 0 014.32 5.72 1.00429 1.00429 0 01-.98 1.2H13.88A1.00913 1.00913 0 0112.91 44.01z"></path><path d="M19.52 39.87a4.60158 4.60158 0 00-4.44 3.34h8.9A4.63467 4.63467 0 0019.52 39.87zM19.52 37.03a1.93018 1.93018 0 00-.00008-3.86A1.93018 1.93018 0 0019.52 37.03z"></path></svg>