<svg xmlns="http://www.w3.org/2000/svg" xmlns:xlink="http://www.w3.org/1999/xlink" width="470" height="468" id="apps"><defs><filter id="a" width="111.8%" height="111.9%" x="-5.9%" y="-3.9%" filterUnits="objectBoundingBox"><feOffset dy="5" in="SourceAlpha" result="shadowOffsetOuter1"></feOffset><feGaussianBlur in="shadowOffsetOuter1" result="shadowBlurOuter1" stdDeviation="4"></feGaussianBlur><feColorMatrix in="shadowBlurOuter1" result="shadowMatrixOuter1" values="0 0 0 0 0 0 0 0 0 0 0 0 0 0 0 0 0 0 0.078125 0"></feColorMatrix><feOffset dy="4" in="SourceAlpha" result="shadowOffsetOuter2"></feOffset><feGaussianBlur in="shadowOffsetOuter2" result="shadowBlurOuter2" stdDeviation="5.5"></feGaussianBlur><feColorMatrix in="shadowBlurOuter2" result="shadowMatrixOuter2" values="0 0 0 0 0 0 0 0 0 0 0 0 0 0 0 0 0 0 0.210824275 0"></feColorMatrix><feMerge><feMergeNode in="shadowMatrixOuter1"></feMergeNode><feMergeNode in="shadowMatrixOuter2"></feMergeNode></feMerge></filter><path id="b" d="M9.635 132.808C24.782 59.782 71.388 19.109 144.085 6.822c53.74-9.081 107.5-9.196 161.15.255 74.852 13.185 119.85 56.23 134.185 130.36 11.075 57.29 11.249 115.191-.174 172.427-15.324 72.52-63.132 117.285-135.561 129.527-53.74 9.08-107.5 9.195-161.15-.255-74.852-13.186-120.05-58.38-134.384-132.509-11.64-57.668-10.52-115.935 1.484-173.82z"></path></defs><g fill="none" fill-rule="evenodd"><g transform="translate(11 7)"><use fill="#000" filter="url(#a)" xlink:href="#b"></use><use fill="#F8F9F9" xlink:href="#b"></use></g><path fill="#7A7E8E" d="M151.31 160.57c-10.665 0-19.31-8.634-19.31-19.285 0-10.65 8.645-19.285 19.31-19.285 10.664 0 19.31 8.634 19.31 19.285 0 10.65-8.646 19.285-19.31 19.285zm0 89.618c-10.665 0-19.31-8.634-19.31-19.285 0-10.65 8.645-19.285 19.31-19.285 10.664 0 19.31 8.634 19.31 19.285s-8.646 19.285-19.31 19.285zm0 82.812c-10.665 0-19.31-8.634-19.31-19.285 0-10.65 8.645-19.285 19.31-19.285 10.664 0 19.31 8.634 19.31 19.285 0 10.65-8.646 19.285-19.31 19.285zm85.19-172.43c-10.664 0-19.31-8.634-19.31-19.285 0-10.65 8.646-19.285 19.31-19.285 10.664 0 19.31 8.634 19.31 19.285 0 10.65-8.646 19.285-19.31 19.285zm0 89.618c-10.664 0-19.31-8.634-19.31-19.285 0-10.65 8.646-19.285 19.31-19.285 10.664 0 19.31 8.634 19.31 19.285s-8.646 19.285-19.31 19.285zm0 82.812c-10.664 0-19.31-8.634-19.31-19.285 0-10.65 8.646-19.285 19.31-19.285 10.664 0 19.31 8.634 19.31 19.285 0 10.65-8.646 19.285-19.31 19.285zm85.19-172.43c-10.664 0-19.31-8.634-19.31-19.285 0-10.65 8.646-19.285 19.31-19.285 10.665 0 19.31 8.634 19.31 19.285 0 10.65-8.645 19.285-19.31 19.285zm0 89.618c-10.664 0-19.31-8.634-19.31-19.285 0-10.65 8.646-19.285 19.31-19.285 10.665 0 19.31 8.634 19.31 19.285s-8.645 19.285-19.31 19.285zm0 82.812c-10.664 0-19.31-8.634-19.31-19.285 0-10.65 8.646-19.285 19.31-19.285 10.665 0 19.31 8.634 19.31 19.285 0 10.65-8.645 19.285-19.31 19.285z"></path></g></svg>