<svg width="16" height="16" viewBox="0 0 16 16" fill="none" xmlns="http://www.w3.org/2000/svg">
<path fill-rule="evenodd" clip-rule="evenodd" d="M7.13107 2.34592C6.68418 2.34592 6.30399 2.65646 6.19727 3.07503H9.78573C9.67901 2.65646 9.29882 2.34592 8.85193 2.34592H7.13107ZM10.7995 3.07502H12.1202C13.5209 3.07502 14.6615 4.22944 14.6615 5.64715C14.6615 5.64715 14.6214 6.24732 14.6081 7.0831C14.6068 7.14926 14.5747 7.21407 14.5221 7.25322C14.2012 7.49018 13.9077 7.68596 13.8811 7.69946C12.7738 8.44208 11.4872 8.9646 10.1165 9.22452C10.0271 9.24207 9.9391 9.19549 9.89374 9.11583C9.50955 8.45018 8.79186 8.01676 7.99146 8.01676C7.19639 8.01676 6.47203 8.44545 6.0765 9.11178C6.03048 9.19009 5.94377 9.23532 5.85506 9.21844C4.49571 8.95785 3.20907 8.436 2.10852 7.70622L1.4682 7.26065C1.41484 7.22689 1.38149 7.16613 1.38149 7.09862C1.36148 6.75432 1.32812 5.64715 1.32812 5.64715C1.32812 4.22944 2.4687 3.07502 3.8694 3.07502H5.18339C5.31012 2.09612 6.13053 1.33325 7.13103 1.33325H8.85189C9.85239 1.33325 10.6728 2.09612 10.7995 3.07502ZM14.4383 8.54342L14.4116 8.55692C13.0643 9.46156 11.4435 10.0624 9.74261 10.3122C9.50249 10.3459 9.26237 10.1907 9.19567 9.94763C9.04893 9.39405 8.57536 9.02949 8.00841 9.02949H8.00174H7.9884C7.42145 9.02949 6.94788 9.39405 6.80114 9.94763C6.73444 10.1907 6.49432 10.3459 6.2542 10.3122C4.55335 10.0624 2.93254 9.46156 1.5852 8.55692C1.57853 8.55017 1.51183 8.50966 1.45847 8.54342C1.39844 8.57717 1.39844 8.65819 1.39844 8.65819L1.44513 12.1012C1.44513 13.5189 2.57903 14.6666 3.97973 14.6666H12.0104C13.4111 14.6666 14.545 13.5189 14.545 12.1012L14.5984 8.65819C14.5984 8.65819 14.5984 8.57717 14.5383 8.54342C14.505 8.52316 14.465 8.52992 14.4383 8.54342ZM8.49464 11.3721C8.49464 11.6556 8.27453 11.8784 7.99439 11.8784C7.72092 11.8784 7.49414 11.6556 7.49414 11.3721V10.5012C7.49414 10.2244 7.72092 9.99487 7.99439 9.99487C8.27453 9.99487 8.49464 10.2244 8.49464 10.5012V11.3721Z" fill="#4285FA"/>
</svg>
