
<svg xmlns="http://www.w3.org/2000/svg" xml:space="preserve" width="2048px" height="2048px" style="shape-rendering:geometricPrecision; text-rendering:geometricPrecision; image-rendering:optimizeQuality; fill-rule:evenodd; clip-rule:evenodd"
viewBox="0 0 2048 2048"
 xmlns:xlink="http://www.w3.org/1999/xlink">
 <defs>
  <style type="text/css">
   <![CDATA[
    .fil5 {fill:none}
    .fil4 {fill:#263238}
    .fil0 {fill:#BDBDBD}
    .fil2 {fill:#DB3300}
    .fil1 {fill:#FF3D00}
    .fil3 {fill:#0091EA;fill-rule:nonzero}
   ]]>
  </style>
 </defs>
 <g id="Layer_x0020_1">
  <metadata id="CorelCorpID_0Corel-Layer"/>
  <g id="_360342568">
   <path class="fil0" d="M1792 768l0 942c0,23 -9,43 -24,58 -15,15 -35,24 -58,24l-1372 0c-23,0 -43,-9 -58,-24 -15,-15 -24,-35 -24,-58l0 -942 1536 0z"/>
   <path class="fil1" d="M288 416c720,0 752,0 1472,0l32 0 0 32 0 320 -1536 0 0 -320 0 -32 32 0z"/>
   <path class="fil2" d="M288 807c720,0 752,0 1472,0l32 0 0 -4 0 -42 -1536 0 0 42 0 4 32 0z"/>
   <path class="fil3" d="M624 288c0,-18 14,-32 32,-32 18,0 32,14 32,32l0 320c0,18 -14,32 -32,32 -18,0 -32,-14 -32,-32l0 -320z"/>
   <path class="fil3" d="M992 288c0,-18 14,-32 32,-32 18,0 32,14 32,32l0 320c0,18 -14,32 -32,32 -18,0 -32,-14 -32,-32l0 -320z"/>
   <path class="fil3" d="M1360 288c0,-18 14,-32 32,-32 18,0 32,14 32,32l0 320c0,18 -14,32 -32,32 -18,0 -32,-14 -32,-32l0 -320z"/>
   <path class="fil4" d="M1458 1504l0 69 -388 0c-1,-17 2,-34 8,-50 10,-26 26,-52 47,-78 22,-26 53,-55 94,-89 64,-52 107,-94 129,-124 22,-30 34,-59 34,-87 0,-29 -10,-53 -31,-72 -20,-20 -47,-29 -80,-29 -35,0 -62,10 -83,31 -21,21 -31,50 -32,86l-74 -8c5,-55 24,-97 57,-126 33,-29 78,-43 133,-43 56,0 101,16 133,47 33,31 49,70 49,116 0,23 -5,47 -14,69 -10,23 -26,47 -48,72 -22,25 -59,60 -111,103 -43,36 -71,61 -83,74 -12,13 -22,26 -30,39l288 0z"/>
   <path class="fil4" d="M1002 1504l0 69 -388 0c-1,-17 2,-34 8,-50 10,-26 26,-52 47,-78 22,-26 53,-55 94,-89 64,-52 107,-94 129,-124 22,-30 34,-59 34,-87 0,-29 -10,-53 -31,-72 -20,-20 -47,-29 -80,-29 -35,0 -62,10 -83,31 -21,21 -31,50 -32,86l-74 -8c5,-55 24,-97 57,-126 33,-29 78,-43 133,-43 56,0 101,16 133,47 33,31 49,70 49,116 0,23 -5,47 -14,69 -10,23 -26,47 -48,72 -22,25 -59,60 -111,103 -43,36 -71,61 -83,74 -12,13 -22,26 -30,39l288 0z"/>
  </g>
  <rect class="fil5" width="2048" height="2048"/>
 </g>
</svg>
