<svg width="32" height="32" viewBox="0 0 32 32" fill="none" xmlns="http://www.w3.org/2000/svg">
<path fill-rule="evenodd" clip-rule="evenodd" d="M2.66667 16.0204C2.66667 8.99649 8.28001 2.66699 16.0267 2.66699C23.6 2.66699 29.3333 8.87631 29.3333 15.9803C29.3333 24.2193 22.6133 29.3337 16 29.3337C13.8133 29.3337 11.3867 28.7461 9.44001 27.5977C8.76 27.1838 8.18667 26.8766 7.45334 27.117L4.76001 27.9182C4.08001 28.1319 3.46667 27.5977 3.66667 26.8766L4.56001 23.8855C4.70667 23.4715 4.68001 23.0309 4.46667 22.6837C3.32001 20.5739 2.66667 18.2637 2.66667 16.0204ZM14.2667 16.0204C14.2667 16.9684 15.0267 17.7296 15.9733 17.7429C16.92 17.7429 17.68 16.9684 17.68 16.0337C17.68 15.0856 16.92 14.3245 15.9733 14.3245C15.04 14.3111 14.2667 15.0856 14.2667 16.0204ZM20.4133 16.0337C20.4133 16.9684 21.1733 17.7429 22.12 17.7429C23.0667 17.7429 23.8267 16.9684 23.8267 16.0337C23.8267 15.0856 23.0667 14.3245 22.12 14.3245C21.1733 14.3245 20.4133 15.0856 20.4133 16.0337ZM9.82667 17.7429C8.89334 17.7429 8.12 16.9684 8.12 16.0337C8.12 15.0856 8.88 14.3245 9.82667 14.3245C10.7733 14.3245 11.5333 15.0856 11.5333 16.0337C11.5333 16.9684 10.7733 17.7296 9.82667 17.7429Z" fill="white"/>
</svg>
