<svg xmlns="http://www.w3.org/2000/svg" viewBox="0 0 48 48" id="education-program"><g data-name="2. Mortarboard on Monitor/Computer"><path d="M1,34a2,2,0,0,0,2,2H45a2,2,0,0,0,2-2V30H1Zm22.29-1.71a1,1,0,0,1,1.42,1.42A1,1,0,0,1,23.29,32.29Z" fill='white'></path><polygon points="20.89 38 20.45 40 27.56 40 27.11 38 20.89 38" ></polygon><path d="M31 42H17a1 1 0 0 0-1 1v3H32V43A1 1 0 0 0 31 42zM24 18c-.26 0 .48.25-9-3.31V23a1 1 0 0 0 1 1H32a1 1 0 0 0 1-1V14.69C23.61 18.22 24.26 18 24 18z" fill='white'></path><polygon points="10.85 11 24 15.93 37.15 11 24 6.07 10.85 11"></polygon><path d="M45,2H3A2,2,0,0,0,1,4V28H47V4A2,2,0,0,0,45,2Zm-4.65,9.94-5.35,2V23a3,3,0,0,1-3,3H16a3,3,0,0,1-3-3V13.94L11,13.17,10.88,18a1,1,0,0,1-2,0L9,12.43C7.68,12,7,11.84,7,11c0-1-.46-.52,16.65-6.94.5-.18-.77-.55,16.7,6A1,1,0,0,1,40.35,11.94Z" fill='white'></path></g></svg>