<svg width="18" height="18" viewBox="0 0 18 18" fill="none" xmlns="http://www.w3.org/2000/svg">
<mask id="mask0_443_10263" style="mask-type:alpha" maskUnits="userSpaceOnUse" x="3" y="2" width="12" height="14">
<path d="M13.2331 4.76359C12.0106 3.54109 10.2781 2.83609 8.37306 3.03109C5.62056 3.30859 3.35556 5.54359 3.04806 8.29609C2.63556 11.9336 5.44806 15.0011 8.99556 15.0011C11.3881 15.0011 13.4431 13.5986 14.4031 11.5811C14.6431 11.0786 14.2831 10.5011 13.7281 10.5011C13.4506 10.5011 13.1881 10.6511 13.0681 10.8986C12.2206 12.7211 10.1881 13.8761 7.96806 13.3811C6.30306 13.0136 4.96056 11.6561 4.60806 9.99109C3.97806 7.08109 6.19056 4.50109 8.99556 4.50109C10.2406 4.50109 11.3506 5.01859 12.1606 5.83609L11.0281 6.96859C10.5556 7.44109 10.8856 8.25109 11.5531 8.25109H14.2456C14.6581 8.25109 14.9956 7.91359 14.9956 7.50109V4.80859C14.9956 4.14109 14.1856 3.80359 13.7131 4.27609L13.2331 4.76359Z" fill="#FFFFFFFF"/>
</mask>
<g mask="url(#mask0_443_10263)">
<rect width="18" height="18" fill="#FFFFFFFF"/>
</g>
</svg>
