<svg width="16" height="16" viewBox="0 0 16 16" fill="none" xmlns="http://www.w3.org/2000/svg">
<path fill-rule="evenodd" clip-rule="evenodd" d="M1.33203 8.0039C1.33203 4.32421 4.32431 1.33337 7.9987 1.33337C11.6731 1.33337 14.6654 4.32421 14.6654 8.0039C14.6654 11.6759 11.6731 14.6667 7.9987 14.6667C4.32431 14.6667 1.33203 11.6759 1.33203 8.0039ZM10.4437 8.67863C10.5145 8.60788 10.6045 8.49853 10.6239 8.47281C10.7268 8.33774 10.7783 8.17051 10.7783 8.00392C10.7783 7.81675 10.7204 7.64309 10.611 7.50159C10.602 7.49263 10.5845 7.47352 10.5616 7.44862C10.5188 7.40203 10.4573 7.33516 10.3986 7.27647C9.87096 6.71046 8.49386 5.78427 7.77314 5.50127C7.66375 5.45689 7.38704 5.35976 7.23904 5.35333C7.09747 5.35333 6.96233 5.38549 6.83363 5.44981C6.67276 5.53986 6.54406 5.68136 6.47327 5.84859C6.42823 5.96436 6.35744 6.31169 6.35744 6.31812C6.28666 6.6976 6.24805 7.31506 6.24805 7.99684C6.24805 8.64711 6.28666 9.2382 6.34457 9.62412C6.34616 9.62571 6.3517 9.65331 6.3603 9.69619C6.38644 9.82654 6.44091 10.0981 6.49901 10.2094C6.64058 10.4796 6.91729 10.6468 7.2133 10.6468H7.23904C7.43209 10.6404 7.83749 10.4731 7.83749 10.4667C8.5196 10.1837 9.86452 9.30252 10.4051 8.71722L10.4437 8.67863Z" fill="#4285FA"/>
</svg>
