<svg width="32" height="32" viewBox="0 0 32 32" fill="none" xmlns="http://www.w3.org/2000/svg">
<path fill-rule="evenodd" clip-rule="evenodd" d="M21.1331 3.3342C21.9744 3.3342 22.8144 3.45286 23.6131 3.72086C28.5344 5.32086 30.3077 10.7209 28.8264 15.4409C27.9864 17.8529 26.6131 20.0542 24.8144 21.8529C22.2397 24.3462 19.4144 26.5595 16.3731 28.4662L16.0397 28.6675L15.6931 28.4529C12.6411 26.5595 9.79974 24.3462 7.20107 21.8395C5.4144 20.0409 4.03974 17.8529 3.1864 15.4409C1.67974 10.7209 3.45307 5.32086 8.42774 3.69286C8.8144 3.55953 9.21307 3.4662 9.61307 3.4142H9.77307C10.1477 3.35953 10.5197 3.3342 10.8931 3.3342H11.0397C11.8797 3.35953 12.6931 3.5062 13.4811 3.7742H13.5597C13.6131 3.79953 13.6531 3.82753 13.6797 3.85286C13.9744 3.94753 14.2531 4.0542 14.5197 4.20086L15.0264 4.42753C15.1488 4.49283 15.2863 4.5926 15.405 4.67883C15.4803 4.73346 15.548 4.78265 15.5997 4.8142C15.6215 4.82704 15.6436 4.83994 15.6659 4.85296C15.7802 4.9197 15.8993 4.98921 15.9997 5.0662C17.4811 3.9342 19.2797 3.32086 21.1331 3.3342ZM24.6797 12.9342C25.2264 12.9195 25.6931 12.4809 25.7331 11.9195V11.7609C25.7731 9.89286 24.6411 8.20086 22.9197 7.54753C22.3731 7.35953 21.7731 7.6542 21.5731 8.2142C21.3864 8.7742 21.6797 9.38753 22.2397 9.5862C23.0944 9.9062 23.6664 10.7475 23.6664 11.6795V11.7209C23.6411 12.0262 23.7331 12.3209 23.9197 12.5475C24.1064 12.7742 24.3864 12.9062 24.6797 12.9342Z" fill="white"/>
</svg>
