<svg width="14" height="16" viewBox="0 0 14 16" fill="none" xmlns="http://www.w3.org/2000/svg">
<path fill-rule="evenodd" clip-rule="evenodd" d="M11.438 5.50348V4.23998C11.438 1.90399 9.44641 0 7.01126 0H6.98616C4.55101 0 2.55938 1.88879 2.55101 4.23998V5.50397C2.88152 5.39708 3.22976 5.32861 3.59077 5.30947C3.23022 5.3287 2.88242 5.39714 2.5523 5.50391C1.07113 5.9999 0 7.3447 0 8.93589V12.3679C0 14.3679 1.70711 15.9999 3.79916 15.9999H10.1925C12.2929 15.9999 14 14.3679 14 12.3679V8.93589C14 7.3447 12.9289 5.9999 11.4393 5.50391C11.4389 5.50376 11.4385 5.50362 11.438 5.50348ZM10.1828 5.30391V4.23998C10.1828 2.56799 8.76022 1.19999 7.00289 1.19999H6.99453C5.2372 1.19999 3.81461 2.55279 3.80624 4.22398V5.30391H10.1828ZM7.73006 11.5366C7.73006 11.9286 7.4037 12.2406 6.99366 12.2406C6.59198 12.2406 6.26562 11.9286 6.26562 11.5366V9.76064C6.26562 9.37745 6.59198 9.06465 6.99366 9.06465C7.4037 9.06465 7.73006 9.37745 7.73006 9.76064V11.5366Z" fill="#43536B"/>
</svg>
