<?xml version="1.0" standalone="no"?>
<!DOCTYPE svg PUBLIC "-//W3C//DTD SVG 1.0//EN" "http://www.w3.org/TR/2001/REC-SVG-20010904/DTD/svg10.dtd">
<svg xmlns="http://www.w3.org/2000/svg" xmlns:xlink="http://www.w3.org/1999/xlink" id="body_1" width="256" height="91">

<g transform="matrix(0.5 0 0 0.5 0 0)">
	<g>
        <path d="M-0.5 -0.5C 170.167 -0.5 340.833 -0.5 511.5 -0.5C 511.5 51.5 511.5 103.5 511.5 155.5C 340.833 155.5 170.167 155.5 -0.5 155.5C -0.5 103.5 -0.5 51.5 -0.5 -0.5z" stroke="none" fill="#FBFCFC" fill-rule="nonzero" />
	</g>
	<g>
        <path d="M46.5 41.5C 44.5445 46.6553 43.2112 51.9886 42.5 57.5C 41.0762 59.5145 40.4095 61.8478 40.5 64.5C 41.552 64.3505 42.552 64.5172 43.5 65C 38.1667 65.6667 38.1667 66.3333 43.5 67C 42.062 67.2189 40.7287 67.7189 39.5 68.5C 37.9855 72.8907 36.3188 77.2241 34.5 81.5C 34.6667 82.1667 34.8333 82.8333 35 83.5C 35.7175 82.5494 36.5509 82.3828 37.5 83C 36.6721 83.9147 35.6721 84.5814 34.5 85C 35.6721 85.4186 36.6721 86.0853 37.5 87C 35.8925 86.9813 34.2259 86.8146 32.5 86.5C 32.5 87.8333 32.5 89.1667 32.5 90.5C 31.207 91.842 30.3736 93.5087 30 95.5C 26.4269 90.5329 22.2602 90.1996 17.5 94.5C 23.8496 62.2871 34.3496 31.2871 49 1.5C 49.3333 1.16667 49.6667 0.833333 50 0.5C 50.5656 14.3099 49.3989 27.9766 46.5 41.5z" stroke="none" fill="#828386" fill-rule="nonzero" />
	</g>
	<g>
        <path d="M296.5 15.5C 302.167 15.5 307.833 15.5 313.5 15.5C 319.692 48.601 326.359 81.601 333.5 114.5C 328.208 115.495 322.875 115.828 317.5 115.5C 317.243 109.369 316.243 103.369 314.5 97.5C 307.866 96.5033 301.2 96.17 294.5 96.5C 293.833 102.833 293.167 109.167 292.5 115.5C 287.167 115.5 281.833 115.5 276.5 115.5C 283.296 82.1886 289.962 48.8552 296.5 15.5z" stroke="none" fill="#252324" fill-rule="nonzero" />
	</g>
	<g>
        <path d="M422.5 15.5C 428.631 14.9078 434.464 15.5745 440 17.5C 446.609 50.1526 453.109 82.8192 459.5 115.5C 454.167 115.5 448.833 115.5 443.5 115.5C 443.16 109.13 442.494 102.796 441.5 96.5C 434.5 96.5 427.5 96.5 420.5 96.5C 419.833 102.833 419.167 109.167 418.5 115.5C 413.5 115.5 408.5 115.5 403.5 115.5C 409.834 82.1617 416.168 48.8284 422.5 15.5z" stroke="none" fill="#252324" fill-rule="nonzero" />
	</g>
	<g>
        <path d="M187.5 102.5C 188.491 96.021 188.824 89.3543 188.5 82.5C 193.167 82.5 197.833 82.5 202.5 82.5C 202.5 91.5 202.5 100.5 202.5 109.5C 201.647 112.518 199.647 114.351 196.5 115C 183.5 115.667 170.5 115.667 157.5 115C 155.714 114.215 154.214 113.049 153 111.5C 151.357 81.5613 151.024 51.5613 152 21.5C 153.122 19.3762 154.622 17.5429 156.5 16C 170.167 15.3333 183.833 15.3333 197.5 16C 200.333 16.8333 202.167 18.6667 203 21.5C 203.5 30.1603 203.666 38.8269 203.5 47.5C 198.167 47.5 192.833 47.5 187.5 47.5C 187.5 41.1667 187.5 34.8333 187.5 28.5C 180.833 28.5 174.167 28.5 167.5 28.5C 167.5 53.1667 167.5 77.8333 167.5 102.5C 174.167 102.5 180.833 102.5 187.5 102.5z" stroke="none" fill="#262425" fill-rule="nonzero" />
	</g>
	<g>
        <path d="M230.5 16.5C 230.5 29.8333 230.5 43.1667 230.5 56.5C 234.167 56.5 237.833 56.5 241.5 56.5C 241.5 61.1667 241.5 65.8333 241.5 70.5C 237.833 70.5 234.167 70.5 230.5 70.5C 230.5 85.1667 230.5 99.8333 230.5 114.5C 225.833 114.5 221.167 114.5 216.5 114.5C 216.5 81.8333 216.5 49.1667 216.5 16.5C 221.167 16.5 225.833 16.5 230.5 16.5z" stroke="none" fill="#222021" fill-rule="nonzero" />
	</g>
	<g>
        <path d="M252.5 70.5C 252.5 65.8333 252.5 61.1667 252.5 56.5C 252.5 42.8333 252.5 29.1667 252.5 15.5C 257.5 15.5 262.5 15.5 267.5 15.5C 267.5 48.8333 267.5 82.1667 267.5 115.5C 262.5 115.5 257.5 115.5 252.5 115.5C 252.5 100.5 252.5 85.5 252.5 70.5z" stroke="none" fill="#222021" fill-rule="nonzero" />
	</g>
	<g>
        <path d="M342.5 15.5C 347.5 15.5 352.5 15.5 357.5 15.5C 357.5 29.1667 357.5 42.8333 357.5 56.5C 361.167 56.5 364.833 56.5 368.5 56.5C 368.5 61.1667 368.5 65.8333 368.5 70.5C 364.833 70.5 361.167 70.5 357.5 70.5C 356.504 84.9905 356.171 99.6572 356.5 114.5C 351.833 114.5 347.167 114.5 342.5 114.5C 342.5 81.5 342.5 48.5 342.5 15.5z" stroke="none" fill="#232122" fill-rule="nonzero" />
	</g>
	<g>
        <path d="M393.5 15.5C 393.5 48.5 393.5 81.5 393.5 114.5C 388.833 114.5 384.167 114.5 379.5 114.5C 379.829 99.6572 379.496 84.9905 378.5 70.5C 378.5 65.8333 378.5 61.1667 378.5 56.5C 378.5 42.8333 378.5 29.1667 378.5 15.5C 383.5 15.5 388.5 15.5 393.5 15.5z" stroke="none" fill="#222122" fill-rule="nonzero" />
	</g>
	<g>
        <path d="M483.5 15.5C 483.5 44.5 483.5 73.5 483.5 102.5C 491.833 102.5 500.167 102.5 508.5 102.5C 508.5 106.5 508.5 110.5 508.5 114.5C 495.167 114.5 481.833 114.5 468.5 114.5C 468.5 81.5 468.5 48.5 468.5 15.5C 473.5 15.5 478.5 15.5 483.5 15.5z" stroke="none" fill="#212021" fill-rule="nonzero" />
	</g>
	<g>
        <path d="M483.5 15.5C 484.498 43.9951 484.831 72.6618 484.5 101.5C 493.017 101.174 501.35 101.507 509.5 102.5C 509.167 102.5 508.833 102.5 508.5 102.5C 500.167 102.5 491.833 102.5 483.5 102.5C 483.5 73.5 483.5 44.5 483.5 15.5z" stroke="none" fill="#BFC1C0" fill-rule="nonzero" />
	</g>
	<g>
        <path d="M230.5 16.5C 225.833 16.5 221.167 16.5 216.5 16.5C 216.5 49.1667 216.5 81.8333 216.5 114.5C 221.167 114.5 225.833 114.5 230.5 114.5C 225.695 115.487 220.695 115.821 215.5 115.5C 215.5 82.1667 215.5 48.8333 215.5 15.5C 220.695 15.1795 225.695 15.5128 230.5 16.5z" stroke="none" fill="#323132" fill-rule="nonzero" />
	</g>
	<g>
        <path d="M105.5 26.5C 94.1402 26.2826 82.8068 26.6159 71.5 27.5C 73.4758 25.9891 75.8091 25.1558 78.5 25C 87.7227 24.1252 96.7227 24.6252 105.5 26.5z" stroke="none" fill="#413468" fill-rule="nonzero" />
	</g>
	<g>
        <path d="M105.5 26.5C 116.073 28.784 124.739 34.1173 131.5 42.5C 130.918 43.9311 130.085 45.2644 129 46.5C 128.667 46.1667 128.333 45.8333 128 45.5C 126.991 47.0249 126.491 48.6916 126.5 50.5C 125.566 49.4324 125.232 48.099 125.5 46.5C 124.209 46.2627 123.209 46.596 122.5 47.5C 122.167 47.5 121.833 47.5 121.5 47.5C 120.358 49.9717 118.358 50.9717 115.5 50.5C 115.671 53.7973 115.005 54.1306 113.5 51.5C 112.264 52.2458 110.93 52.5792 109.5 52.5C 108.5 52.5 107.5 52.5 106.5 52.5C 106.649 53.552 106.483 54.552 106 55.5C 104.599 53.8078 102.766 53.1412 100.5 53.5C 83.3426 48.0767 72.6759 54.0767 68.5 71.5C 66.8786 73.2299 65.5452 75.2299 64.5 77.5C 63.0821 75.6921 61.0821 75.0254 58.5 75.5C 55.6104 74.7552 52.6104 74.0885 49.5 73.5C 49.5 72.1667 49.5 70.8333 49.5 69.5C 48.7375 68.7321 47.7375 68.2321 46.5 68C 47.056 67.6174 47.3893 67.1174 47.5 66.5C 49.1765 65.8166 49.8432 64.4832 49.5 62.5C 47.7085 62.366 46.0418 62.6993 44.5 63.5C 43.325 63.719 42.325 63.3857 41.5 62.5C 42.3094 60.9291 42.6427 59.2624 42.5 57.5C 43.2112 51.9886 44.5445 46.6553 46.5 41.5C 53.2058 33.9792 61.5391 29.3125 71.5 27.5C 82.8068 26.6159 94.1402 26.2826 105.5 26.5z" stroke="none" fill="#342366" fill-rule="nonzero" />
	</g>
	<g>
        <path d="M430.5 39.5C 433.989 53.8844 436.655 68.5511 438.5 83.5C 433.5 83.5 428.5 83.5 423.5 83.5C 425.648 68.8001 427.981 54.1335 430.5 39.5z" stroke="none" fill="#F2F3F4" fill-rule="nonzero" />
	</g>
	<g>
        <path d="M312.5 83.5C 307.305 83.8205 302.305 83.4872 297.5 82.5C 299.566 68.014 302.066 53.6806 305 39.5C 307.822 54.118 310.322 68.7846 312.5 83.5z" stroke="none" fill="#F0F0F1" fill-rule="nonzero" />
	</g>
	<g>
        <path d="M131.5 42.5C 132.488 43.795 133.488 45.1283 134.5 46.5C 133.653 47.9691 132.486 49.3024 131 50.5C 129.549 50.2642 128.049 50.2642 126.5 50.5C 126.491 48.6916 126.991 47.0249 128 45.5C 128.333 45.8333 128.667 46.1667 129 46.5C 130.085 45.2644 130.918 43.9311 131.5 42.5z" stroke="none" fill="#867AA6" fill-rule="nonzero" />
	</g>
	<g>
        <path d="M126.5 50.5C 126.179 52.0481 125.179 52.7148 123.5 52.5C 123.421 51.0695 123.754 49.7362 124.5 48.5C 123.8 48.2129 123.133 47.8795 122.5 47.5C 123.209 46.596 124.209 46.2627 125.5 46.5C 125.232 48.099 125.566 49.4324 126.5 50.5z" stroke="none" fill="#877BAB" fill-rule="nonzero" />
	</g>
	<g>
        <path d="M134.5 46.5C 135.11 47.391 135.443 48.391 135.5 49.5C 135.586 50.4959 135.252 51.3292 134.5 52C 135.701 52.9025 136.535 54.0692 137 55.5C 137.383 54.944 137.883 54.6107 138.5 54.5C 138.5 54.8333 138.5 55.1667 138.5 55.5C 138.5 56.8333 138.5 58.1667 138.5 59.5C 136.336 59.7215 134.67 60.7215 133.5 62.5C 133.167 62.5 132.833 62.5 132.5 62.5C 131.517 61.1497 130.184 60.1497 128.5 59.5C 129.5 58.6667 130.5 57.8333 131.5 57C 130.663 55.9887 130.33 54.8221 130.5 53.5C 127.054 54.9277 123.387 55.7611 119.5 56C 117.09 58.5321 114.09 60.0321 110.5 60.5C 111.5 61.5 112.5 62.5 113.5 63.5C 117.516 61.9085 118.183 62.5752 115.5 65.5C 115.5 65.8333 115.5 66.1667 115.5 66.5C 113.833 66.5 112.167 66.5 110.5 66.5C 108.838 60.826 105.505 56.4927 100.5 53.5C 102.766 53.1412 104.599 53.8078 106 55.5C 106.483 54.552 106.649 53.552 106.5 52.5C 107.5 52.5 108.5 52.5 109.5 52.5C 109.196 53.1499 108.863 53.8165 108.5 54.5C 110.35 55.2418 111.016 56.2418 110.5 57.5C 114.461 55.9574 118.461 54.624 122.5 53.5C 122.483 51.4352 122.15 49.4352 121.5 47.5C 121.833 47.5 122.167 47.5 122.5 47.5C 123.133 47.8795 123.8 48.2129 124.5 48.5C 123.754 49.7362 123.421 51.0695 123.5 52.5C 125.179 52.7148 126.179 52.0481 126.5 50.5C 128.049 50.2642 129.549 50.2642 131 50.5C 132.486 49.3024 133.653 47.9691 134.5 46.5z" stroke="none" fill="#372965" fill-rule="nonzero" />
	</g>
	<g>
        <path d="M135.5 49.5C 136.737 50.9649 137.737 52.6316 138.5 54.5C 137.883 54.6107 137.383 54.944 137 55.5C 136.535 54.0692 135.701 52.9025 134.5 52C 135.252 51.3292 135.586 50.4959 135.5 49.5z" stroke="none" fill="#8980A5" fill-rule="nonzero" />
	</g>
	<g>
        <path d="M121.5 47.5C 122.15 49.4352 122.483 51.4352 122.5 53.5C 118.461 54.624 114.461 55.9574 110.5 57.5C 111.016 56.2418 110.35 55.2418 108.5 54.5C 108.863 53.8165 109.196 53.1499 109.5 52.5C 110.93 52.5792 112.264 52.2458 113.5 51.5C 115.005 54.1306 115.671 53.7973 115.5 50.5C 118.358 50.9717 120.358 49.9717 121.5 47.5z" stroke="none" fill="#7C709D" fill-rule="nonzero" />
	</g>
	<g>
        <path d="M138.5 55.5C 141.731 60.5136 140.064 62.847 133.5 62.5C 134.67 60.7215 136.336 59.7215 138.5 59.5C 138.5 58.1667 138.5 56.8333 138.5 55.5z" stroke="none" fill="#70678E" fill-rule="nonzero" />
	</g>
	<g>
        <path d="M47.5 66.5C 47.8039 65.8501 48.1373 65.1835 48.5 64.5C 47.0951 64.24 45.7618 63.9066 44.5 63.5C 46.0418 62.6993 47.7085 62.366 49.5 62.5C 49.8432 64.4832 49.1765 65.8166 47.5 66.5z" stroke="none" fill="#A89BCA" fill-rule="nonzero" />
	</g>
	<g>
        <path d="M241.5 56.5C 245.167 56.5 248.833 56.5 252.5 56.5C 252.5 61.1667 252.5 65.8333 252.5 70.5C 248.833 70.5 245.167 70.5 241.5 70.5C 241.5 65.8333 241.5 61.1667 241.5 56.5z" stroke="none" fill="#342D4F" fill-rule="nonzero" />
	</g>
	<g>
        <path d="M242.5 57.5C 245.5 57.5 248.5 57.5 251.5 57.5C 251.5 61.5 251.5 65.5 251.5 69.5C 248.5 69.5 245.5 69.5 242.5 69.5C 242.5 65.5 242.5 61.5 242.5 57.5z" stroke="none" fill="#312363" fill-rule="nonzero" />
	</g>
	<g>
        <path d="M132.5 62.5C 129.211 63.3739 125.877 64.0405 122.5 64.5C 120.139 64.6741 117.806 65.0074 115.5 65.5C 118.183 62.5752 117.516 61.9085 113.5 63.5C 112.5 62.5 111.5 61.5 110.5 60.5C 114.09 60.0321 117.09 58.5321 119.5 56C 123.387 55.7611 127.054 54.9277 130.5 53.5C 130.33 54.8221 130.663 55.9887 131.5 57C 130.5 57.8333 129.5 58.6667 128.5 59.5C 130.184 60.1497 131.517 61.1497 132.5 62.5z" stroke="none" fill="#4E4077" fill-rule="nonzero" />
	</g>
	<g>
        <path d="M52.5 63.5C 55.3881 64.5395 55.7214 65.8729 53.5 67.5C 52.5 67 51.5 66.5 50.5 66C 51.756 65.5831 52.4226 64.7498 52.5 63.5z" stroke="none" fill="#A59ABF" fill-rule="nonzero" />
	</g>
	<g>
        <path d="M122.5 64.5C 120.485 65.9238 118.152 66.5905 115.5 66.5C 115.5 66.1667 115.5 65.8333 115.5 65.5C 117.806 65.0074 120.139 64.6741 122.5 64.5z" stroke="none" fill="#B3ACC6" fill-rule="nonzero" />
	</g>
	<g>
        <path d="M47.5 66.5C 47.3893 67.1174 47.056 67.6174 46.5 68C 47.7375 68.2321 48.7375 68.7321 49.5 69.5C 47.712 69.7852 46.0453 69.4519 44.5 68.5C 45.0047 67.0815 46.0047 66.4148 47.5 66.5z" stroke="none" fill="#AFA4CC" fill-rule="nonzero" />
	</g>
	<g>
        <path d="M368.5 56.5C 371.833 56.5 375.167 56.5 378.5 56.5C 378.5 61.1667 378.5 65.8333 378.5 70.5C 375.167 70.5 371.833 70.5 368.5 70.5C 368.5 65.8333 368.5 61.1667 368.5 56.5z" stroke="none" fill="#382F57" fill-rule="nonzero" />
	</g>
	<g>
        <path d="M369.5 57.5C 372.167 57.5 374.833 57.5 377.5 57.5C 377.5 61.5 377.5 65.5 377.5 69.5C 374.833 69.5 372.167 69.5 369.5 69.5C 369.5 65.5 369.5 61.5 369.5 57.5z" stroke="none" fill="#312365" fill-rule="nonzero" />
	</g>
	<g>
        <path d="M342.5 15.5C 342.5 48.5 342.5 81.5 342.5 114.5C 347.167 114.5 351.833 114.5 356.5 114.5C 356.171 99.6572 356.504 84.9905 357.5 70.5C 357.5 85.5 357.5 100.5 357.5 115.5C 352.167 115.5 346.833 115.5 341.5 115.5C 341.168 81.9958 341.502 48.6625 342.5 15.5z" stroke="none" fill="#545353" fill-rule="nonzero" />
	</g>
	<g>
        <path d="M393.5 15.5C 394.498 48.6625 394.832 81.9958 394.5 115.5C 389.167 115.5 383.833 115.5 378.5 115.5C 378.5 100.5 378.5 85.5 378.5 70.5C 379.496 84.9905 379.829 99.6572 379.5 114.5C 384.167 114.5 388.833 114.5 393.5 114.5C 393.5 81.5 393.5 48.5 393.5 15.5z" stroke="none" fill="#474948" fill-rule="nonzero" />
	</g>
	<g>
        <path d="M297.5 82.5C 302.305 83.4872 307.305 83.8205 312.5 83.5C 307.32 84.8147 301.986 84.8147 296.5 83.5C 296.624 82.8933 296.957 82.56 297.5 82.5z" stroke="none" fill="#545353" fill-rule="nonzero" />
	</g>
	<g>
        <path d="M202.5 109.5C 202.5 100.5 202.5 91.5 202.5 82.5C 197.833 82.5 193.167 82.5 188.5 82.5C 188.824 89.3543 188.491 96.021 187.5 102.5C 187.5 95.5 187.5 88.5 187.5 81.5C 192.833 81.5 198.167 81.5 203.5 81.5C 203.827 91.015 203.494 100.348 202.5 109.5z" stroke="none" fill="#4F5050" fill-rule="nonzero" />
	</g>
	<g>
        <path d="M42.5 57.5C 42.6427 59.2624 42.3094 60.9291 41.5 62.5C 42.325 63.3857 43.325 63.719 44.5 63.5C 45.7618 63.9066 47.0951 64.24 48.5 64.5C 48.1373 65.1835 47.8039 65.8501 47.5 66.5C 46.0047 66.4148 45.0047 67.0815 44.5 68.5C 46.0453 69.4519 47.712 69.7852 49.5 69.5C 49.5 70.8333 49.5 72.1667 49.5 73.5C 52.6104 74.0885 55.6104 74.7552 58.5 75.5C 57.0222 75.238 55.6888 75.5713 54.5 76.5C 57.7683 77.487 61.1016 77.8204 64.5 77.5C 65.5452 75.2299 66.8786 73.2299 68.5 71.5C 67.7347 74.0961 67.4013 76.7628 67.5 79.5C 66.6862 81.631 66.1862 83.9644 66 86.5C 65.5291 84.7536 64.8624 83.087 64 81.5C 63.6205 84.7677 64.4538 87.7677 66.5 90.5C 63.3075 92.1501 62.9741 94.4834 65.5 97.5C 66.1757 96.3984 66.8423 95.3984 67.5 94.5C 67.2641 97.6085 67.5975 100.609 68.5 103.5C 67.2502 103.423 66.4169 102.756 66 101.5C 65.5 102.667 64.6667 103.5 63.5 104C 64.6667 104.5 65.5 105.333 66 106.5C 66.4169 105.244 67.2502 104.577 68.5 104.5C 69.3627 106.421 70.0293 108.421 70.5 110.5C 68.8333 110.5 67.1667 110.5 65.5 110.5C 65.5 111.833 65.5 113.167 65.5 114.5C 67.1667 114.5 68.8333 114.5 70.5 114.5C 70.2627 113.209 70.596 112.209 71.5 111.5C 72.8333 114.833 75.1667 117.167 78.5 118.5C 76.2404 119.363 74.7404 121.03 74 123.5C 73.729 119.87 72.0623 118.87 69 120.5C 68.7188 122.905 69.3854 122.905 71 120.5C 71.5 121 72 121.5 72.5 122C 72.4057 123.422 72.0724 124.922 71.5 126.5C 70.549 125.674 69.549 125.508 68.5 126C 70.229 127.789 70.8957 129.956 70.5 132.5C 69.6115 132.187 68.9448 131.02 68.5 129C 66.8425 128.275 65.8425 128.775 65.5 130.5C 64.5 129.5 63.5 128.5 62.5 127.5C 61.8333 127.5 61.1667 127.5 60.5 127.5C 61.2793 124.925 61.1127 122.592 60 120.5C 59.3741 122.991 58.5407 122.991 57.5 120.5C 56.7132 121.242 56.0465 122.075 55.5 123C 56.2489 124.734 56.7489 126.567 57 128.5C 57.3333 127.833 57.6667 127.167 58 126.5C 58.2784 127.416 58.7784 128.082 59.5 128.5C 56.8333 129.833 54.1667 129.833 51.5 128.5C 52.5 128.5 53.5 128.5 54.5 128.5C 54.6715 126.508 54.0049 124.842 52.5 123.5C 54.8277 121.426 54.1611 120.426 50.5 120.5C 52.4601 118.79 54.6268 118.457 57 119.5C 57.3076 118.692 57.8076 118.025 58.5 117.5C 59.5 118.167 60.5 118.833 61.5 119.5C 65.7917 119.735 70.125 119.235 74.5 118C 72.3611 116.596 70.0278 115.763 67.5 115.5C 60.7767 115.301 53.9434 115.634 47 116.5C 45.9701 116.164 45.4701 115.497 45.5 114.5C 47.1667 114.5 48.8333 114.5 50.5 114.5C 50.5 113.167 50.5 111.833 50.5 110.5C 48.8333 110.5 47.1667 110.5 45.5 110.5C 45.811 109.522 46.4777 108.855 47.5 108.5C 51.6252 108.427 55.7918 108.76 60 109.5C 61.6349 109.122 63.1349 108.456 64.5 107.5C 62.713 107.057 61.0463 106.724 59.5 106.5C 57.9008 105.438 56.2341 105.438 54.5 106.5C 54.5774 105.25 55.244 104.417 56.5 104C 55.3333 103.5 54.5 102.667 54 101.5C 53.7216 102.416 53.2216 103.082 52.5 103.5C 52.6602 101.801 52.4935 100.134 52 98.5C 51.3292 97.7476 50.4959 97.4142 49.5 97.5C 50.8845 96.1991 52.3845 96.1991 54 97.5C 54.5 97 55 96.5 55.5 96C 54.3534 90.3036 52.52 90.1369 50 95.5C 48.8289 94.1068 47.3289 93.2735 45.5 93C 49.2259 91.9568 48.8926 91.4568 44.5 91.5C 44.3433 92.8734 44.51 94.2068 45 95.5C 46.2975 94.2164 47.4642 94.3831 48.5 96C 47.2524 96.8611 45.9191 97.3611 44.5 97.5C 42.4404 98.2152 40.7737 99.5486 39.5 101.5C 39.6236 102.107 39.9569 102.44 40.5 102.5C 40.0825 103.222 39.4158 103.722 38.5 104C 39.756 104.417 40.4226 105.25 40.5 106.5C 39.2921 105.766 37.9587 105.433 36.5 105.5C 36.5 106.833 36.5 108.167 36.5 109.5C 39.0821 109.025 41.0821 109.692 42.5 111.5C 39.1052 110.023 38.4385 110.356 40.5 112.5C 39.3881 113.265 38.7214 114.265 38.5 115.5C 38.5 116.167 38.5 116.833 38.5 117.5C 37.3924 114.198 36.0591 110.865 34.5 107.5C 34.968 105.866 35.968 104.7 37.5 104C 36.3333 103.5 35.5 102.667 35 101.5C 34.0944 104.121 33.5944 103.954 33.5 101C 33.6842 99.6244 34.3509 98.7911 35.5 98.5C 36.4584 98.0472 37.2917 97.3805 38 96.5C 38.3333 97.1667 38.6667 97.8333 39 98.5C 40.0975 97.0325 41.5975 96.1992 43.5 96C 42.5761 95.15 42.5761 94.15 43.5 93C 43.1667 92.5 42.8333 92 42.5 91.5C 41.8333 92.8333 41.1667 94.1667 40.5 95.5C 40.2514 94.4179 40.0848 93.0846 40 91.5C 38.8333 96.3333 36.6667 96.8333 33.5 93C 37.2259 91.9568 36.8926 91.4568 32.5 91.5C 32.5 91.1667 32.5 90.8333 32.5 90.5C 32.5 89.1667 32.5 87.8333 32.5 86.5C 34.2259 86.8146 35.8925 86.9813 37.5 87C 36.6721 86.0853 35.6721 85.4186 34.5 85C 35.6721 84.5814 36.6721 83.9147 37.5 83C 36.5509 82.3828 35.7175 82.5494 35 83.5C 34.8333 82.8333 34.6667 82.1667 34.5 81.5C 36.3188 77.2241 37.9855 72.8907 39.5 68.5C 40.7287 67.7189 42.062 67.2189 43.5 67C 38.1667 66.3333 38.1667 65.6667 43.5 65C 42.552 64.5172 41.552 64.3505 40.5 64.5C 40.4095 61.8478 41.0762 59.5145 42.5 57.5z" stroke="none" fill="#392A64" fill-rule="nonzero" />
	</g>
	<g>
        <path d="M59.5 85.5C 58.7784 85.9175 58.2784 86.5842 58 87.5C 57.3333 86.1667 56.3333 85.1667 55 84.5C 54.498 80.4844 55.6647 79.8178 58.5 82.5C 59.086 82.2907 59.586 81.9574 60 81.5C 60.195 82.8193 60.0283 84.1526 59.5 85.5z" stroke="none" fill="#887CA8" fill-rule="nonzero" />
	</g>
	<g>
        <path d="M38.5 83.5C 40.4802 82.6324 42.1469 83.2991 43.5 85.5C 42.635 86.5827 41.635 86.7494 40.5 86C 41.1513 84.692 40.4846 83.8586 38.5 83.5z" stroke="none" fill="#A69AC4" fill-rule="nonzero" />
	</g>
	<g>
        <path d="M45.5 80.5C 47.7761 80.7565 48.9428 82.0898 49 84.5C 49.3333 83.8333 49.6667 83.1667 50 82.5C 50.6667 83.8333 51.6667 84.8333 53 85.5C 53.9248 88.1341 53.0915 89.3008 50.5 89C 49.8742 88.2496 49.3742 87.4162 49 86.5C 47.0125 90.3673 46.5125 90.3673 47.5 86.5C 44.6095 85.1627 43.9428 83.1627 45.5 80.5z" stroke="none" fill="#8377A4" fill-rule="nonzero" />
	</g>
	<g>
        <path d="M49.5 73.5C 49.5 74.5 49.5 75.5 49.5 76.5C 50.8734 76.3433 52.2068 76.51 53.5 77C 51.2779 77.6946 49.1113 78.5279 47 79.5C 43.6876 77.8788 43.6876 77.5455 47 78.5C 47.5 78 48 77.5 48.5 77C 43.1645 73.8526 43.4978 72.686 49.5 73.5z" stroke="none" fill="#887CAA" fill-rule="nonzero" />
	</g>
	<g>
        <path d="M40.5 73.5C 41.3094 74.4687 42.3094 75.3021 43.5 76C 42.5838 76.3742 41.7504 76.8742 41 77.5C 40.2496 76.8742 39.4162 76.3742 38.5 76C 39.756 75.5831 40.4226 74.7498 40.5 73.5z" stroke="none" fill="#D3C9EA" fill-rule="nonzero" />
	</g>
	<g>
        <path d="M58.5 75.5C 61.0821 75.0254 63.0821 75.6921 64.5 77.5C 61.1016 77.8204 57.7683 77.487 54.5 76.5C 55.6888 75.5713 57.0222 75.238 58.5 75.5z" stroke="none" fill="#6E6091" fill-rule="nonzero" />
	</g>
	<g>
        <path d="M67.5 79.5C 67.5 84.5 67.5 89.5 67.5 94.5C 66.8423 95.3984 66.1757 96.3984 65.5 97.5C 62.9741 94.4834 63.3075 92.1501 66.5 90.5C 64.4538 87.7677 63.6205 84.7677 64 81.5C 64.8624 83.087 65.5291 84.7536 66 86.5C 66.1862 83.9644 66.6862 81.631 67.5 79.5z" stroke="none" fill="#9188AB" fill-rule="nonzero" />
	</g>
	<g>
        <path d="M59.5 85.5C 60.397 84.4019 61.2303 84.4019 62 85.5C 62.7805 86.9437 62.6139 88.277 61.5 89.5C 59.8888 88.6798 59.2222 87.3464 59.5 85.5z" stroke="none" fill="#8D82AC" fill-rule="nonzero" />
	</g>
	<g>
        <path d="M60.5 94.5C 59.7611 94.631 59.0944 94.4643 58.5 94C 59.3402 92.3335 58.8402 92.1669 57 93.5C 56.786 90.6865 57.9527 90.0198 60.5 91.5C 61.5624 92.4246 61.5624 93.4246 60.5 94.5z" stroke="none" fill="#9A8FB8" fill-rule="nonzero" />
	</g>
	<g>
        <path d="M49.5 97.5C 47.8333 98.8333 46.1667 98.8333 44.5 97.5C 45.9191 97.3611 47.2524 96.8611 48.5 96C 47.4642 94.3831 46.2975 94.2164 45 95.5C 44.51 94.2068 44.3433 92.8734 44.5 91.5C 48.8926 91.4568 49.2259 91.9568 45.5 93C 47.3289 93.2735 48.8289 94.1068 50 95.5C 52.52 90.1369 54.3534 90.3036 55.5 96C 55 96.5 54.5 97 54 97.5C 52.3845 96.1991 50.8845 96.1991 49.5 97.5z" stroke="none" fill="#B6ACD3" fill-rule="nonzero" />
	</g>
	<g>
        <path d="M32.5 91.5C 36.8926 91.4568 37.2259 91.9568 33.5 93C 36.6667 96.8333 38.8333 96.3333 40 91.5C 40.0848 93.0846 40.2514 94.4179 40.5 95.5C 41.1667 94.1667 41.8333 92.8333 42.5 91.5C 42.8333 92 43.1667 92.5 43.5 93C 42.5761 94.15 42.5761 95.15 43.5 96C 41.5975 96.1992 40.0975 97.0325 39 98.5C 38.6667 97.8333 38.3333 97.1667 38 96.5C 37.2917 97.3805 36.4584 98.0472 35.5 98.5C 32.9093 97.0087 31.9093 94.6753 32.5 91.5z" stroke="none" fill="#A39ABC" fill-rule="nonzero" />
	</g>
	<g>
        <path d="M8.5 139.5C 7.66175 139.158 7.32842 138.492 7.5 137.5C 10.0154 124.104 12.8488 110.771 16 97.5C 20.4497 96.1999 24.9497 96.1999 29.5 97.5C 26.6904 106.071 24.1904 114.738 22 123.5C 19.8223 126.468 18.6556 126.135 18.5 122.5C 17.5 122.5 16.5 122.5 15.5 122.5C 15.2865 124.144 15.6198 125.644 16.5 127C 12.9494 130.601 10.2827 134.768 8.5 139.5z" stroke="none" fill="#0B0C0E" fill-rule="nonzero" />
	</g>
	<g>
        <path d="M60.5 94.5C 62.0173 97.4947 61.0173 98.6614 57.5 98C 56.1337 95.5615 56.6337 95.0615 59 96.5C 60.0299 96.1639 60.5299 95.4972 60.5 94.5z" stroke="none" fill="#8679AD" fill-rule="nonzero" />
	</g>
	<g>
        <path d="M116.5 99.5C 115.078 99.7086 113.745 100.209 112.5 101C 114.932 102.087 114.598 102.587 111.5 102.5C 111.5 101.167 111.5 99.8333 111.5 98.5C 113.415 98.2155 115.081 98.5489 116.5 99.5z" stroke="none" fill="#928BAC" fill-rule="nonzero" />
	</g>
	<g>
        <path d="M116.5 99.5C 116.36 101.124 117.027 102.29 118.5 103C 117.944 103.383 117.611 103.883 117.5 104.5C 117.44 105.043 117.107 105.376 116.5 105.5C 115.15 104.05 113.484 103.383 111.5 103.5C 111.468 106.994 110.135 109.661 107.5 111.5C 108.843 108.457 110.177 105.457 111.5 102.5C 114.598 102.587 114.932 102.087 112.5 101C 113.745 100.209 115.078 99.7086 116.5 99.5z" stroke="none" fill="#493C70" fill-rule="nonzero" />
	</g>
	<g>
        <path d="M68.5 103.5C 68.5 103.833 68.5 104.167 68.5 104.5C 67.2502 104.577 66.4169 105.244 66 106.5C 65.5 105.333 64.6667 104.5 63.5 104C 64.6667 103.5 65.5 102.667 66 101.5C 66.4169 102.756 67.2502 103.423 68.5 103.5z" stroke="none" fill="#BFB6D8" fill-rule="nonzero" />
	</g>
	<g>
        <path d="M117.5 104.5C 118.315 105.429 119.148 106.429 120 107.5C 120.333 107.167 120.667 106.833 121 106.5C 121.708 107.381 122.542 108.047 123.5 108.5C 124.007 109.859 125.007 110.859 126.5 111.5C 124.296 112.206 122.296 113.206 120.5 114.5C 118.901 114.232 117.568 114.566 116.5 115.5C 115.833 115.5 115.167 115.5 114.5 115.5C 114.167 115.5 113.833 115.5 113.5 115.5C 112.458 114.209 111.292 114.209 110 115.5C 109.167 118.171 109.667 120.504 111.5 122.5C 109.833 123.833 108.167 125.167 106.5 126.5C 106.167 126.5 105.833 126.5 105.5 126.5C 104.833 126.5 104.5 126.833 104.5 127.5C 103.833 127.5 103.5 127.167 103.5 126.5C 102.602 125.842 101.602 125.176 100.5 124.5C 101.795 122.672 102.795 120.672 103.5 118.5C 104.859 119.624 105.859 120.958 106.5 122.5C 107.468 120.393 107.802 118.059 107.5 115.5C 107.5 114.167 107.5 112.833 107.5 111.5C 110.135 109.661 111.468 106.994 111.5 103.5C 113.484 103.383 115.15 104.05 116.5 105.5C 117.107 105.376 117.44 105.043 117.5 104.5z" stroke="none" fill="#332365" fill-rule="nonzero" />
	</g>
	<g>
        <path d="M40.5 106.5C 40.4226 105.25 39.756 104.417 38.5 104C 39.4158 103.722 40.0825 103.222 40.5 102.5C 40.4346 102.062 40.6012 101.728 41 101.5C 41.5 102.667 42.3333 103.5 43.5 104C 42.3094 104.698 41.3094 105.531 40.5 106.5z" stroke="none" fill="#D6CDED" fill-rule="nonzero" />
	</g>
	<g>
        <path d="M54.5 106.5C 53.6906 105.531 52.6906 104.698 51.5 104C 51.7284 103.601 52.0618 103.435 52.5 103.5C 53.2216 103.082 53.7216 102.416 54 101.5C 54.5 102.667 55.3333 103.5 56.5 104C 55.244 104.417 54.5774 105.25 54.5 106.5z" stroke="none" fill="#CCC2E5" fill-rule="nonzero" />
	</g>
	<g>
        <path d="M59.5 106.5C 59.4226 105.25 58.756 104.417 57.5 104C 58.6667 103.5 59.5 102.667 60 101.5C 60.5 102.667 61.3333 103.5 62.5 104C 61.3094 104.698 60.3094 105.531 59.5 106.5z" stroke="none" fill="#D5CDED" fill-rule="nonzero" />
	</g>
	<g>
        <path d="M116.5 99.5C 118.284 99.8925 119.95 100.559 121.5 101.5C 120.491 102.939 120.824 104.272 122.5 105.5C 123.429 104.311 123.762 102.978 123.5 101.5C 126.984 102.657 130.317 103.99 133.5 105.5C 132.193 106.802 132.193 108.135 133.5 109.5C 133.043 110.298 132.376 110.631 131.5 110.5C 128.956 108.516 126.289 107.849 123.5 108.5C 122.542 108.047 121.708 107.381 121 106.5C 120.667 106.833 120.333 107.167 120 107.5C 119.148 106.429 118.315 105.429 117.5 104.5C 117.611 103.883 117.944 103.383 118.5 103C 117.027 102.29 116.36 101.124 116.5 99.5z" stroke="none" fill="#786D97" fill-rule="nonzero" />
	</g>
	<g>
        <path d="M121.5 101.5C 122.167 101.5 122.833 101.5 123.5 101.5C 123.762 102.978 123.429 104.311 122.5 105.5C 120.824 104.272 120.491 102.939 121.5 101.5z" stroke="none" fill="#392D61" fill-rule="nonzero" />
	</g>
	<g>
        <path d="M133.5 105.5C 134.791 105.263 135.791 105.596 136.5 106.5C 135.733 107.172 135.066 108.005 134.5 109C 135.517 110.049 135.684 111.216 135 112.5C 133.698 111.915 132.531 111.249 131.5 110.5C 132.376 110.631 133.043 110.298 133.5 109.5C 132.193 108.135 132.193 106.802 133.5 105.5z" stroke="none" fill="#A69DC2" fill-rule="nonzero" />
	</g>
	<g>
        <path d="M45.5 110.5C 47.1667 110.5 48.8333 110.5 50.5 110.5C 50.5 111.833 50.5 113.167 50.5 114.5C 48.8333 114.5 47.1667 114.5 45.5 114.5C 45.5 113.167 45.5 111.833 45.5 110.5z" stroke="none" fill="#8175A3" fill-rule="nonzero" />
	</g>
	<g>
        <path d="M51.5 110.5C 53.5 110.5 55.5 110.5 57.5 110.5C 57.5 111.833 57.5 113.167 57.5 114.5C 55.5 114.5 53.5 114.5 51.5 114.5C 51.5 113.167 51.5 111.833 51.5 110.5z" stroke="none" fill="#7A6F9C" fill-rule="nonzero" />
	</g>
	<g>
        <path d="M58.5 110.5C 60.1667 110.5 61.8333 110.5 63.5 110.5C 63.5 111.833 63.5 113.167 63.5 114.5C 61.8333 114.5 60.1667 114.5 58.5 114.5C 58.5 113.167 58.5 111.833 58.5 110.5z" stroke="none" fill="#8175A3" fill-rule="nonzero" />
	</g>
	<g>
        <path d="M42.5 111.5C 43.0431 111.56 43.3764 111.893 43.5 112.5C 41.9713 113.763 40.3046 114.763 38.5 115.5C 38.7214 114.265 39.3881 113.265 40.5 112.5C 38.4385 110.356 39.1052 110.023 42.5 111.5z" stroke="none" fill="#9C90B8" fill-rule="nonzero" />
	</g>
	<g>
        <path d="M70.5 110.5C 71.1667 110.5 71.5 110.833 71.5 111.5C 70.596 112.209 70.2627 113.209 70.5 114.5C 68.8333 114.5 67.1667 114.5 65.5 114.5C 65.5 113.167 65.5 111.833 65.5 110.5C 67.1667 110.5 68.8333 110.5 70.5 110.5z" stroke="none" fill="#8175A3" fill-rule="nonzero" />
	</g>
	<g>
        <path d="M44.5 97.5C 46.1667 98.8333 47.8333 98.8333 49.5 97.5C 50.4959 97.4142 51.3292 97.7476 52 98.5C 52.4935 100.134 52.6602 101.801 52.5 103.5C 52.0618 103.435 51.7284 103.601 51.5 104C 52.6906 104.698 53.6906 105.531 54.5 106.5C 56.2341 105.438 57.9008 105.438 59.5 106.5C 61.0463 106.724 62.713 107.057 64.5 107.5C 63.1349 108.456 61.6349 109.122 60 109.5C 55.7918 108.76 51.6252 108.427 47.5 108.5C 46.4777 108.855 45.811 109.522 45.5 110.5C 45.5 111.833 45.5 113.167 45.5 114.5C 45.4701 115.497 45.9701 116.164 47 116.5C 53.9434 115.634 60.7767 115.301 67.5 115.5C 70.0278 115.763 72.3611 116.596 74.5 118C 70.125 119.235 65.7917 119.735 61.5 119.5C 60.5 118.833 59.5 118.167 58.5 117.5C 57.8076 118.025 57.3076 118.692 57 119.5C 54.6268 118.457 52.4601 118.79 50.5 120.5C 49.1486 122.529 49.482 124.362 51.5 126C 51.1081 127.011 50.4415 127.511 49.5 127.5C 49.9569 128.298 50.6236 128.631 51.5 128.5C 54.1667 129.833 56.8333 129.833 59.5 128.5C 59.5 127.833 59.8333 127.5 60.5 127.5C 61.1667 127.5 61.8333 127.5 62.5 127.5C 63.5 128.5 64.5 129.5 65.5 130.5C 65.4486 132.57 66.1153 134.403 67.5 136C 67.0946 136.945 66.428 137.612 65.5 138C 68.6967 138.987 71.5301 138.487 74 136.5C 76 139.167 78 139.167 80 136.5C 80.3333 137.167 80.6667 137.833 81 138.5C 81.7065 136.919 82.5399 135.419 83.5 134C 81.8333 133.667 80.1667 133.333 78.5 133C 79 132.5 79.5 132 80 131.5C 81.6995 132.406 83.5328 132.739 85.5 132.5C 85.8333 133.167 86.1667 133.833 86.5 134.5C 85.0474 135.825 85.3808 136.658 87.5 137C 89.4406 137.743 91.2739 137.576 93 136.5C 94.2675 137.91 94.2675 139.576 93 141.5C 92.6121 140.572 91.9454 139.905 91 139.5C 88.946 140.189 87.946 141.189 88 142.5C 87.7474 141.465 86.914 140.465 85.5 139.5C 83.5121 140.289 83.1787 141.455 84.5 143C 82.892 143.658 81.7253 143.158 81 141.5C 79.9916 141.982 78.825 142.148 77.5 142C 76.3909 143.813 77.0576 144.646 79.5 144.5C 79.4125 147.598 79.9125 147.932 81 145.5C 83.9794 146.514 86.646 145.848 89 143.5C 91.0333 143.132 93.1999 143.132 95.5 143.5C 96.7387 143.058 97.7387 142.391 98.5 141.5C 98.7822 140.222 99.4489 139.222 100.5 138.5C 100.5 138.167 100.5 137.833 100.5 137.5C 100.833 137.5 101.167 137.5 101.5 137.5C 102.94 136.637 104.274 136.637 105.5 137.5C 106.251 136.624 106.751 135.624 107 134.5C 107.368 135.91 108.201 136.91 109.5 137.5C 111.128 136.465 112.795 136.465 114.5 137.5C 115.5 137.5 116.5 137.5 117.5 137.5C 117.025 134.918 117.692 132.918 119.5 131.5C 119.435 131.938 119.601 132.272 120 132.5C 120.985 131.186 122.152 130.186 123.5 129.5C 124.186 128.152 125.186 126.985 126.5 126C 123.381 124.595 120.048 124.095 116.5 124.5C 119.56 122.747 122.893 121.413 126.5 120.5C 126.833 120.5 127.167 120.5 127.5 120.5C 131.086 123.481 133.919 122.815 136 118.5C 135.344 121.787 134.511 125.121 133.5 128.5C 125.232 140.973 113.565 147.806 98.5 149C 91.4505 149.76 84.4505 149.593 77.5 148.5C 76.7375 147.732 75.7375 147.232 74.5 147C 76.9659 146.07 76.7993 145.237 74 144.5C 72.2785 144.611 72.1118 145.111 73.5 146C 72.2068 146.49 70.8734 146.657 69.5 146.5C 54.3122 141.978 43.9789 132.311 38.5 117.5C 38.5 116.833 38.5 116.167 38.5 115.5C 40.3046 114.763 41.9713 113.763 43.5 112.5C 43.3764 111.893 43.0431 111.56 42.5 111.5C 41.0821 109.692 39.0821 109.025 36.5 109.5C 36.5 108.167 36.5 106.833 36.5 105.5C 37.9587 105.433 39.2921 105.766 40.5 106.5C 41.3094 105.531 42.3094 104.698 43.5 104C 42.3333 103.5 41.5 102.667 41 101.5C 40.6012 101.728 40.4346 102.062 40.5 102.5C 39.9569 102.44 39.6236 102.107 39.5 101.5C 40.7737 99.5486 42.4404 98.2152 44.5 97.5z" stroke="none" fill="#362766" fill-rule="nonzero" />
	</g>
	<g>
        <path d="M46.5 101.5C 49.6898 102.667 50.0232 104.334 47.5 106.5C 46.646 105.478 45.646 104.645 44.5 104C 45.756 103.583 46.4226 102.75 46.5 101.5z" stroke="none" fill="#A49BC0" fill-rule="nonzero" />
	</g>
	<g>
        <path d="M508.5 102.5C 508.833 102.5 509.167 102.5 509.5 102.5C 509.5 106.833 509.5 111.167 509.5 115.5C 495.656 115.829 481.99 115.496 468.5 114.5C 481.833 114.5 495.167 114.5 508.5 114.5C 508.5 110.5 508.5 106.5 508.5 102.5z" stroke="none" fill="#494A4A" fill-rule="nonzero" />
	</g>
	<g>
        <path d="M379.5 120.5C 383.97 119.514 388.637 119.181 393.5 119.5C 393.784 121.415 393.451 123.081 392.5 124.5C 392.5 123.167 392.5 121.833 392.5 120.5C 388.167 120.5 383.833 120.5 379.5 120.5z" stroke="none" fill="#C5BEB6" fill-rule="nonzero" />
	</g>
	<g>
        <path d="M64.5 125.5C 64.9234 124.735 65.2568 123.902 65.5 123C 64.6161 121.902 63.6161 121.402 62.5 121.5C 64.0453 120.548 65.712 120.215 67.5 120.5C 67.7409 123.034 66.7409 124.7 64.5 125.5z" stroke="none" fill="#A89DC5" fill-rule="nonzero" />
	</g>
	<g>
        <path d="M107.5 115.5C 107.802 118.059 107.468 120.393 106.5 122.5C 106.859 120.234 106.192 118.401 104.5 117C 105.244 115.961 106.244 115.461 107.5 115.5z" stroke="none" fill="#C5B9DE" fill-rule="nonzero" />
	</g>
	<g>
        <path d="M120.5 114.5C 120.993 116.806 121.326 119.139 121.5 121.5C 119.712 121.785 118.045 121.452 116.5 120.5C 117.687 120.446 119.02 120.113 120.5 119.5C 118.665 118.572 118.332 117.406 119.5 116C 118.231 116.109 117.231 115.942 116.5 115.5C 117.568 114.566 118.901 114.232 120.5 114.5z" stroke="none" fill="#B3A9D1" fill-rule="nonzero" />
	</g>
	<g>
        <path d="M113.5 115.5C 113.833 115.5 114.167 115.5 114.5 115.5C 116.353 119.105 115.353 121.438 111.5 122.5C 109.667 120.504 109.167 118.171 110 115.5C 111.292 114.209 112.458 114.209 113.5 115.5z" stroke="none" fill="#968BB4" fill-rule="nonzero" />
	</g>
	<g>
        <path d="M113.5 115.5C 113.785 117.288 113.452 118.955 112.5 120.5C 112.167 119.667 111.833 118.833 111.5 118C 111.684 116.624 112.351 115.791 113.5 115.5z" stroke="none" fill="#362766" fill-rule="nonzero" />
	</g>
	<g>
        <path d="M136.5 106.5C 138.714 106.291 140.381 107.124 141.5 109C 140.296 116.223 137.63 122.723 133.5 128.5C 134.511 125.121 135.344 121.787 136 118.5C 133.919 122.815 131.086 123.481 127.5 120.5C 129.466 120.459 131.466 120.125 133.5 119.5C 131.692 119.509 130.025 119.009 128.5 118C 128.034 115.877 126.867 114.377 125 113.5C 123.054 113.763 122.388 114.763 123 116.5C 124.085 114.343 125.251 114.176 126.5 116C 125.833 116.333 125.167 116.667 124.5 117C 125.973 117.71 126.64 118.876 126.5 120.5C 122.893 121.413 119.56 122.747 116.5 124.5C 113.266 125.576 109.932 126.243 106.5 126.5C 108.167 125.167 109.833 123.833 111.5 122.5C 115.353 121.438 116.353 119.105 114.5 115.5C 115.167 115.5 115.833 115.5 116.5 115.5C 117.231 115.942 118.231 116.109 119.5 116C 118.332 117.406 118.665 118.572 120.5 119.5C 119.02 120.113 117.687 120.446 116.5 120.5C 118.045 121.452 119.712 121.785 121.5 121.5C 121.326 119.139 120.993 116.806 120.5 114.5C 122.296 113.206 124.296 112.206 126.5 111.5C 125.007 110.859 124.007 109.859 123.5 108.5C 126.289 107.849 128.956 108.516 131.5 110.5C 132.531 111.249 133.698 111.915 135 112.5C 135.684 111.216 135.517 110.049 134.5 109C 135.066 108.005 135.733 107.172 136.5 106.5z" stroke="none" fill="#3B2D65" fill-rule="nonzero" />
	</g>
	<g>
        <path d="M133.5 119.5C 133.316 116.827 132.149 116.16 130 117.5C 129.51 116.207 129.343 114.873 129.5 113.5C 133.893 113.457 134.226 113.957 130.5 115C 133.984 115.266 134.984 116.766 133.5 119.5z" stroke="none" fill="#B7ABD4" fill-rule="nonzero" />
	</g>
	<g>
        <path d="M133.5 119.5C 131.466 120.125 129.466 120.459 127.5 120.5C 127.167 120.5 126.833 120.5 126.5 120.5C 126.64 118.876 125.973 117.71 124.5 117C 125.167 116.667 125.833 116.333 126.5 116C 125.251 114.176 124.085 114.343 123 116.5C 122.388 114.763 123.054 113.763 125 113.5C 126.867 114.377 128.034 115.877 128.5 118C 130.025 119.009 131.692 119.509 133.5 119.5z" stroke="none" fill="#A498C1" fill-rule="nonzero" />
	</g>
	<g>
        <path d="M451.5 120.5C 452.494 130.987 452.828 141.654 452.5 152.5C 450.5 152.5 448.5 152.5 446.5 152.5C 446.819 147.637 446.486 142.97 445.5 138.5C 445.709 137.078 446.209 135.745 447 134.5C 447.499 140.157 447.666 145.824 447.5 151.5C 448.833 151.5 450.167 151.5 451.5 151.5C 451.5 141.167 451.5 130.833 451.5 120.5z" stroke="none" fill="#C5C1BA" fill-rule="nonzero" />
	</g>
	<g>
        <path d="M60.5 127.5C 59.8333 127.5 59.5 127.833 59.5 128.5C 58.7784 128.082 58.2784 127.416 58 126.5C 57.6667 127.167 57.3333 127.833 57 128.5C 56.7489 126.567 56.2489 124.734 55.5 123C 56.0465 122.075 56.7132 121.242 57.5 120.5C 58.5407 122.991 59.3741 122.991 60 120.5C 61.1127 122.592 61.2793 124.925 60.5 127.5z" stroke="none" fill="#AFA5CB" fill-rule="nonzero" />
	</g>
	<g>
        <path d="M79.5 119.5C 81.4109 119.574 82.5776 120.574 83 122.5C 86.0567 121.549 89.2234 121.216 92.5 121.5C 92.1961 122.15 91.8627 122.817 91.5 123.5C 88.9703 124.132 86.637 125.132 84.5 126.5C 83.2638 125.754 81.9305 125.421 80.5 125.5C 80.719 124.325 80.3857 123.325 79.5 122.5C 78.4937 122.938 78.4937 123.604 79.5 124.5C 78.5 125.833 77.5 125.833 76.5 124.5C 77.8333 123.5 77.8333 122.5 76.5 121.5C 77.6016 120.824 78.6016 120.158 79.5 119.5z" stroke="none" fill="#7C7199" fill-rule="nonzero" />
	</g>
	<g>
        <path d="M50.5 120.5C 54.1611 120.426 54.8277 121.426 52.5 123.5C 54.0049 124.842 54.6715 126.508 54.5 128.5C 53.5 128.5 52.5 128.5 51.5 128.5C 50.6236 128.631 49.9569 128.298 49.5 127.5C 50.4415 127.511 51.1081 127.011 51.5 126C 49.482 124.362 49.1486 122.529 50.5 120.5z" stroke="none" fill="#ABA0C5" fill-rule="nonzero" />
	</g>
	<g>
        <path d="M78.5 118.5C 79.1667 118.5 79.5 118.833 79.5 119.5C 78.6016 120.158 77.6016 120.824 76.5 121.5C 77.8333 122.5 77.8333 123.5 76.5 124.5C 77.5 125.833 78.5 125.833 79.5 124.5C 78.4937 123.604 78.4937 122.938 79.5 122.5C 80.3857 123.325 80.719 124.325 80.5 125.5C 80.1667 126.5 79.5 127.167 78.5 127.5C 77.8333 127.167 77.1667 126.833 76.5 126.5C 75.7784 126.082 75.2784 125.416 75 124.5C 74.3632 126.303 73.1965 127.636 71.5 128.5C 72.1925 129.518 72.8592 130.518 73.5 131.5C 72.6348 131.564 71.6348 131.897 70.5 132.5C 70.8957 129.956 70.229 127.789 68.5 126C 69.549 125.508 70.549 125.674 71.5 126.5C 72.0724 124.922 72.4057 123.422 72.5 122C 72 121.5 71.5 121 71 120.5C 69.3854 122.905 68.7188 122.905 69 120.5C 72.0623 118.87 73.729 119.87 74 123.5C 74.7404 121.03 76.2404 119.363 78.5 118.5z" stroke="none" fill="#ABA0C8" fill-rule="nonzero" />
	</g>
	<g>
        <path d="M219.5 124.5C 218.508 132.316 218.174 140.316 218.5 148.5C 220.833 148.5 223.167 148.5 225.5 148.5C 225.5 146.167 225.5 143.833 225.5 141.5C 227.167 141.5 228.833 141.5 230.5 141.5C 230.665 144.518 230.498 147.518 230 150.5C 215.383 156.562 209.883 151.729 213.5 136C 213.512 130.92 213.846 125.92 214.5 121C 219.5 120.333 224.5 120.333 229.5 121C 230.451 124.057 230.784 127.223 230.5 130.5C 228.833 130.5 227.167 130.5 225.5 130.5C 225.5 128.5 225.5 126.5 225.5 124.5C 223.5 124.5 221.5 124.5 219.5 124.5z" stroke="none" fill="#5C4D3B" fill-rule="nonzero" />
	</g>
	<g>
        <path d="M219.5 124.5C 219.5 132.167 219.5 139.833 219.5 147.5C 221.167 147.5 222.833 147.5 224.5 147.5C 224.205 145.265 224.539 143.265 225.5 141.5C 225.5 143.833 225.5 146.167 225.5 148.5C 223.167 148.5 220.833 148.5 218.5 148.5C 218.174 140.316 218.508 132.316 219.5 124.5z" stroke="none" fill="#BBB4AA" fill-rule="nonzero" />
	</g>
	<g>
        <path d="M324.5 120.5C 328.846 120.334 333.179 120.501 337.5 121C 338.333 121.833 339.167 122.667 340 123.5C 340.667 131.833 340.667 140.167 340 148.5C 339.411 150.863 337.911 151.863 335.5 151.5C 331.833 151.5 328.167 151.5 324.5 151.5C 324.5 141.167 324.5 130.833 324.5 120.5z" stroke="none" fill="#534330" fill-rule="nonzero" />
	</g>
	<g>
        <path d="M329.5 124.5C 331.467 124.261 333.301 124.594 335 125.5C 335.667 132.5 335.667 139.5 335 146.5C 334.617 147.056 334.117 147.389 333.5 147.5C 332.167 147.5 330.833 147.5 329.5 147.5C 329.5 139.833 329.5 132.167 329.5 124.5z" stroke="none" fill="#FBFCFB" fill-rule="nonzero" />
	</g>
	<g>
        <path d="M379.5 120.5C 383.833 120.5 388.167 120.5 392.5 120.5C 392.5 121.833 392.5 123.167 392.5 124.5C 389.833 124.5 387.167 124.5 384.5 124.5C 384.5 127.5 384.5 130.5 384.5 133.5C 386.833 133.5 389.167 133.5 391.5 133.5C 391.5 134.833 391.5 136.167 391.5 137.5C 389.167 137.5 386.833 137.5 384.5 137.5C 384.5 140.833 384.5 144.167 384.5 147.5C 386.948 148.473 389.615 148.806 392.5 148.5C 392.5 149.5 392.5 150.5 392.5 151.5C 388.167 151.5 383.833 151.5 379.5 151.5C 379.5 141.167 379.5 130.833 379.5 120.5z" stroke="none" fill="#554433" fill-rule="nonzero" />
	</g>
	<g>
        <path d="M64.5 125.5C 65.2625 126.268 66.2625 126.768 67.5 127C 65.8659 127.494 64.1992 127.66 62.5 127.5C 62.8333 126.5 63.5 125.833 64.5 125.5z" stroke="none" fill="#D4CBE9" fill-rule="nonzero" />
	</g>
	<g>
        <path d="M329.5 124.5C 329.5 132.167 329.5 139.833 329.5 147.5C 330.833 147.5 332.167 147.5 333.5 147.5C 332.081 148.451 330.415 148.784 328.5 148.5C 328.174 140.316 328.508 132.316 329.5 124.5z" stroke="none" fill="#B0A99E" fill-rule="nonzero" />
	</g>
	<g>
        <path d="M76.5 126.5C 75.7368 128.368 74.7368 130.035 73.5 131.5C 72.8592 130.518 72.1925 129.518 71.5 128.5C 73.1965 127.636 74.3632 126.303 75 124.5C 75.2784 125.416 75.7784 126.082 76.5 126.5z" stroke="none" fill="#453969" fill-rule="nonzero" />
	</g>
	<g>
        <path d="M164.5 120.5C 166.766 120.141 168.599 120.808 170 122.5C 172.158 132.457 173.992 142.457 175.5 152.5C 173.833 152.5 172.167 152.5 170.5 152.5C 170.5 150.5 170.5 148.5 170.5 146.5C 168.167 146.5 165.833 146.5 163.5 146.5C 163.5 148.5 163.5 150.5 163.5 152.5C 161.833 152.5 160.167 152.5 158.5 152.5C 160.115 141.761 162.115 131.094 164.5 120.5z" stroke="none" fill="#584937" fill-rule="nonzero" />
	</g>
	<g>
        <path d="M324.5 120.5C 324.5 130.833 324.5 141.167 324.5 151.5C 328.167 151.5 331.833 151.5 335.5 151.5C 331.702 152.483 327.702 152.817 323.5 152.5C 323.172 141.654 323.506 130.987 324.5 120.5z" stroke="none" fill="#A8A097" fill-rule="nonzero" />
	</g>
	<g>
        <path d="M432.5 120.5C 434.144 120.286 435.644 120.62 437 121.5C 438.099 127.027 439.766 132.36 442 137.5C 443.664 131.84 445.164 126.173 446.5 120.5C 448.167 120.5 449.833 120.5 451.5 120.5C 451.5 130.833 451.5 141.167 451.5 151.5C 450.167 151.5 448.833 151.5 447.5 151.5C 447.666 145.824 447.499 140.157 447 134.5C 446.209 135.745 445.709 137.078 445.5 138.5C 444.578 142.112 443.911 145.779 443.5 149.5C 442.5 149.5 441.5 149.5 440.5 149.5C 439.399 144.833 438.232 140.166 437 135.5C 436.501 140.823 436.334 146.156 436.5 151.5C 435.167 151.5 433.833 151.5 432.5 151.5C 432.5 141.167 432.5 130.833 432.5 120.5z" stroke="none" fill="#534431" fill-rule="nonzero" />
	</g>
	<g>
        <path d="M123.5 129.5C 122.152 130.186 120.985 131.186 120 132.5C 119.601 132.272 119.435 131.938 119.5 131.5C 119.5 129.5 119.5 127.5 119.5 125.5C 120.833 125.5 122.167 125.5 123.5 125.5C 123.5 126.833 123.5 128.167 123.5 129.5z" stroke="none" fill="#A297BD" fill-rule="nonzero" />
	</g>
	<g>
        <path d="M100.5 137.5C 100.5 137.833 100.5 138.167 100.5 138.5C 98.9147 137.526 97.9147 136.026 97.5 134C 97.8333 133.833 98.1667 133.667 98.5 133.5C 99.1719 134.949 99.8386 136.282 100.5 137.5z" stroke="none" fill="#B3A7D6" fill-rule="nonzero" />
	</g>
	<g>
        <path d="M166.5 128.5C 168.23 132.883 169.23 137.55 169.5 142.5C 167.833 142.5 166.167 142.5 164.5 142.5C 165.167 137.833 165.833 133.167 166.5 128.5z" stroke="none" fill="#E0DCD6" fill-rule="nonzero" />
	</g>
	<g>
        <path d="M76.5 126.5C 77.1667 126.833 77.8333 127.167 78.5 127.5C 80.6389 127.63 82.8056 127.63 85 127.5C 86 132.833 87 132.833 88 127.5C 88.4935 129.134 88.6602 130.801 88.5 132.5C 87.5 132.5 86.5 132.5 85.5 132.5C 83.5328 132.739 81.6995 132.406 80 131.5C 79.5 132 79 132.5 78.5 133C 80.1667 133.333 81.8333 133.667 83.5 134C 82.5399 135.419 81.7065 136.919 81 138.5C 80.6667 137.833 80.3333 137.167 80 136.5C 78 139.167 76 139.167 74 136.5C 71.5301 138.487 68.6967 138.987 65.5 138C 66.428 137.612 67.0946 136.945 67.5 136C 66.1153 134.403 65.4486 132.57 65.5 130.5C 65.8425 128.775 66.8425 128.275 68.5 129C 68.9448 131.02 69.6115 132.187 70.5 132.5C 71.6348 131.897 72.6348 131.564 73.5 131.5C 74.7368 130.035 75.7368 128.368 76.5 126.5z" stroke="none" fill="#8276A2" fill-rule="nonzero" />
	</g>
	<g>
        <path d="M501.5 139.5C 500.517 143.298 500.183 147.298 500.5 151.5C 499.167 151.5 497.833 151.5 496.5 151.5C 496.817 147.298 496.483 143.298 495.5 139.5C 494.001 133.169 492.001 127.003 489.5 121C 491.441 120.257 493.274 120.424 495 121.5C 495.863 124.959 497.03 128.293 498.5 131.5C 500.16 128.353 501.327 125.02 502 121.5C 503.726 120.424 505.559 120.257 507.5 121C 504.999 127.003 502.999 133.169 501.5 139.5z" stroke="none" fill="#554533" fill-rule="nonzero" />
	</g>
	<g>
        <path d="M432.5 120.5C 432.5 130.833 432.5 141.167 432.5 151.5C 433.833 151.5 435.167 151.5 436.5 151.5C 435.081 152.451 433.415 152.784 431.5 152.5C 431.172 141.654 431.506 130.987 432.5 120.5z" stroke="none" fill="#887F6F" fill-rule="nonzero" />
	</g>
	<g>
        <path d="M107.5 111.5C 107.5 112.833 107.5 114.167 107.5 115.5C 106.244 115.461 105.244 115.961 104.5 117C 106.192 118.401 106.859 120.234 106.5 122.5C 105.859 120.958 104.859 119.624 103.5 118.5C 102.795 120.672 101.795 122.672 100.5 124.5C 101.602 125.176 102.602 125.842 103.5 126.5C 100.858 126.488 99.5246 127.821 99.5 130.5C 100.738 131.412 102.072 131.579 103.5 131C 102.833 130.667 102.167 130.333 101.5 130C 103.119 129.764 104.119 128.931 104.5 127.5C 104.5 126.833 104.833 126.5 105.5 126.5C 105.492 132.208 105.992 132.541 107 127.5C 108.423 132.621 109.423 132.621 110 127.5C 110.49 128.793 110.657 130.127 110.5 131.5C 112.936 131.683 115.103 131.016 117 129.5C 117.333 129.833 117.667 130.167 118 130.5C 117.689 129.065 117.855 127.732 118.5 126.5C 118.154 125.304 117.654 125.304 117 126.5C 116.536 125.906 116.369 125.239 116.5 124.5C 120.048 124.095 123.381 124.595 126.5 126C 125.186 126.985 124.186 128.152 123.5 129.5C 123.5 128.167 123.5 126.833 123.5 125.5C 122.167 125.5 120.833 125.5 119.5 125.5C 119.5 127.5 119.5 129.5 119.5 131.5C 117.692 132.918 117.025 134.918 117.5 137.5C 116.5 137.5 115.5 137.5 114.5 137.5C 115.306 135.836 114.973 134.169 113.5 132.5C 110.94 132.607 108.44 132.607 106 132.5C 105.5 132.667 105 132.833 104.5 133C 105.711 133.893 105.711 134.726 104.5 135.5C 103.685 133.724 102.518 133.057 101 133.5C 100.421 134.928 100.588 136.262 101.5 137.5C 101.167 137.5 100.833 137.5 100.5 137.5C 99.8386 136.282 99.1719 134.949 98.5 133.5C 98.1667 133.667 97.8333 133.833 97.5 134C 97.9147 136.026 98.9147 137.526 100.5 138.5C 99.4489 139.222 98.7822 140.222 98.5 141.5C 95.8263 139.71 94.993 137.377 96 134.5C 95.0255 136.878 94.3589 136.544 94 133.5C 93.6667 134.167 93.3333 134.833 93 135.5C 92.7468 132.8 92.7468 130.133 93 127.5C 92.3086 129.891 91.3086 129.891 90 127.5C 89.7351 129.163 90.2351 130.663 91.5 132C 90.2986 132.903 89.4652 134.069 89 135.5C 88.6582 133.381 87.8249 133.047 86.5 134.5C 86.1667 133.833 85.8333 133.167 85.5 132.5C 86.5 132.5 87.5 132.5 88.5 132.5C 88.6602 130.801 88.4935 129.134 88 127.5C 87 132.833 86 132.833 85 127.5C 82.8056 127.63 80.6389 127.63 78.5 127.5C 79.5 127.167 80.1667 126.5 80.5 125.5C 81.9305 125.421 83.2638 125.754 84.5 126.5C 86.637 125.132 88.9703 124.132 91.5 123.5C 91.8627 122.817 92.1961 122.15 92.5 121.5C 94.677 121.414 96.677 120.747 98.5 119.5C 99.2508 120.376 99.7508 121.376 100 122.5C 101.552 118.127 104.052 114.461 107.5 111.5z" stroke="none" fill="#403268" fill-rule="nonzero" />
	</g>
	<g>
        <path d="M114.5 137.5C 112.795 136.465 111.128 136.465 109.5 137.5C 108.201 136.91 107.368 135.91 107 134.5C 106.751 135.624 106.251 136.624 105.5 137.5C 104.274 136.637 102.94 136.637 101.5 137.5C 100.588 136.262 100.421 134.928 101 133.5C 102.518 133.057 103.685 133.724 104.5 135.5C 105.711 134.726 105.711 133.893 104.5 133C 105 132.833 105.5 132.667 106 132.5C 108.44 132.607 110.94 132.607 113.5 132.5C 114.973 134.169 115.306 135.836 114.5 137.5z" stroke="none" fill="#74689A" fill-rule="nonzero" />
	</g>
	<g>
        <path d="M116.5 124.5C 116.369 125.239 116.536 125.906 117 126.5C 117.654 125.304 118.154 125.304 118.5 126.5C 117.855 127.732 117.689 129.065 118 130.5C 117.667 130.167 117.333 129.833 117 129.5C 115.103 131.016 112.936 131.683 110.5 131.5C 110.657 130.127 110.49 128.793 110 127.5C 109.423 132.621 108.423 132.621 107 127.5C 105.992 132.541 105.492 132.208 105.5 126.5C 105.833 126.5 106.167 126.5 106.5 126.5C 109.932 126.243 113.266 125.576 116.5 124.5z" stroke="none" fill="#897EA8" fill-rule="nonzero" />
	</g>
	<g>
        <path d="M103.5 126.5C 103.5 127.167 103.833 127.5 104.5 127.5C 104.119 128.931 103.119 129.764 101.5 130C 102.167 130.333 102.833 130.667 103.5 131C 102.072 131.579 100.738 131.412 99.5 130.5C 99.5246 127.821 100.858 126.488 103.5 126.5z" stroke="none" fill="#9F95BA" fill-rule="nonzero" />
	</g>
	<g>
        <path d="M99.5 130.5C 99.44 131.043 99.1067 131.376 98.5 131.5C 97.1153 127.622 95.9486 127.622 95 131.5C 93.9252 128.469 94.9252 126.469 98 125.5C 98.1981 127.382 98.6981 129.048 99.5 130.5z" stroke="none" fill="#AEA3CB" fill-rule="nonzero" />
	</g>
	<g>
        <path d="M274.5 120.5C 276.5 120.5 278.5 120.5 280.5 120.5C 281.953 131.217 283.62 141.884 285.5 152.5C 281.092 152.938 279.425 150.938 280.5 146.5C 278.167 146.5 275.833 146.5 273.5 146.5C 273.5 148.5 273.5 150.5 273.5 152.5C 271.833 152.5 270.167 152.5 268.5 152.5C 269.876 141.708 271.876 131.042 274.5 120.5z" stroke="none" fill="#594A39" fill-rule="nonzero" />
	</g>
	<g>
        <path d="M276.5 128.5C 278.23 132.883 279.23 137.55 279.5 142.5C 277.712 142.785 276.045 142.452 274.5 141.5C 275.411 137.212 276.078 132.879 276.5 128.5z" stroke="none" fill="#DED9D2" fill-rule="nonzero" />
	</g>
	<g>
        <path d="M7.5 137.5C 7.32842 138.492 7.66175 139.158 8.5 139.5C 7.33627 142.814 6.16961 146.148 5 149.5C 4.90114 145.239 5.73447 141.239 7.5 137.5z" stroke="none" fill="#3E3F41" fill-rule="nonzero" />
	</g>
	<g>
        <path d="M98.5 141.5C 97.7387 142.391 96.7387 143.058 95.5 143.5C 93.1999 143.132 91.0333 143.132 89 143.5C 86.646 145.848 83.9794 146.514 81 145.5C 79.9125 147.932 79.4125 147.598 79.5 144.5C 77.0576 144.646 76.3909 143.813 77.5 142C 78.825 142.148 79.9916 141.982 81 141.5C 81.7253 143.158 82.892 143.658 84.5 143C 83.1787 141.455 83.5121 140.289 85.5 139.5C 86.914 140.465 87.7474 141.465 88 142.5C 87.946 141.189 88.946 140.189 91 139.5C 91.9454 139.905 92.6121 140.572 93 141.5C 94.2675 139.576 94.2675 137.91 93 136.5C 91.2739 137.576 89.4406 137.743 87.5 137C 85.3808 136.658 85.0474 135.825 86.5 134.5C 87.8249 133.047 88.6582 133.381 89 135.5C 89.4652 134.069 90.2986 132.903 91.5 132C 90.2351 130.663 89.7351 129.163 90 127.5C 91.3086 129.891 92.3086 129.891 93 127.5C 92.7468 130.133 92.7468 132.8 93 135.5C 93.3333 134.833 93.6667 134.167 94 133.5C 94.3589 136.544 95.0255 136.878 96 134.5C 94.993 137.377 95.8263 139.71 98.5 141.5z" stroke="none" fill="#897EA9" fill-rule="nonzero" />
	</g>
	<g>
        <path d="M495.5 139.5C 496.483 143.298 496.817 147.298 496.5 151.5C 497.833 151.5 499.167 151.5 500.5 151.5C 500.183 147.298 500.517 143.298 501.5 139.5C 501.5 143.833 501.5 148.167 501.5 152.5C 499.5 152.5 497.5 152.5 495.5 152.5C 495.5 148.167 495.5 143.833 495.5 139.5z" stroke="none" fill="#9E978B" fill-rule="nonzero" />
	</g>
	<g>
        <path d="M77.5 148.5C 74.5718 148.435 71.9052 147.768 69.5 146.5C 70.8734 146.657 72.2068 146.49 73.5 146C 72.1118 145.111 72.2785 144.611 74 144.5C 76.7993 145.237 76.9659 146.07 74.5 147C 75.7375 147.232 76.7375 147.732 77.5 148.5z" stroke="none" fill="#726792" fill-rule="nonzero" />
	</g>
	<g>
        <path d="M384.5 147.5C 387.5 147.5 390.5 147.5 393.5 147.5C 393.5 149.167 393.5 150.833 393.5 152.5C 388.637 152.819 383.97 152.486 379.5 151.5C 383.833 151.5 388.167 151.5 392.5 151.5C 392.5 150.5 392.5 149.5 392.5 148.5C 389.615 148.806 386.948 148.473 384.5 147.5z" stroke="none" fill="#8F887E" fill-rule="nonzero" />
	</g>
	<g>
        <path d="M-0.5 156.5C 169.833 156.5 340.167 156.5 510.5 156.5C 510.5 164.5 510.5 172.5 510.5 180.5C 501.833 180.5 493.167 180.5 484.5 180.5C 487.371 179.167 490.205 177.5 493 175.5C 493.483 176.448 493.649 177.448 493.5 178.5C 497.778 178.623 502.111 178.29 506.5 177.5C 506.768 175.901 506.434 174.568 505.5 173.5C 505.158 172.662 504.492 172.328 503.5 172.5C 503.5 172.167 503.5 171.833 503.5 171.5C 504.167 171.5 504.5 171.167 504.5 170.5C 505.117 170.389 505.617 170.056 506 169.5C 506.499 165.848 506.665 162.182 506.5 158.5C 487.83 158.333 469.164 158.5 450.5 159C 451.416 159.278 452.082 159.778 452.5 160.5C 449.811 161.189 448.144 162.856 447.5 165.5C 446.542 165.953 445.708 166.619 445 167.5C 444.503 165.19 444.337 162.857 444.5 160.5C 442.5 160.5 440.5 160.5 438.5 160.5C 436.167 160.5 433.833 160.5 431.5 160.5C 431.611 159.883 431.944 159.383 432.5 159C 405.502 158.5 378.502 158.333 351.5 158.5C 351.649 159.552 351.483 160.552 351 161.5C 349.644 160.62 348.144 160.286 346.5 160.5C 346.167 160.5 345.833 160.5 345.5 160.5C 345.082 159.778 344.416 159.278 343.5 159C 332 158.833 320.5 158.667 309 158.5C 262.889 158.749 216.722 158.749 170.5 158.5C 137.498 158.333 104.498 158.5 71.5 159C 73.1667 159.333 74.8333 159.667 76.5 160C 75.552 160.483 74.552 160.649 73.5 160.5C 71.8008 160.66 70.1341 160.494 68.5 160C 68.8333 159.667 69.1667 159.333 69.5 159C 46.169 158.5 22.8357 158.333 -0.5 158.5C -0.5 157.833 -0.5 157.167 -0.5 156.5z" stroke="none" fill="#1F205C" fill-rule="nonzero" />
	</g>
	<g>
        <path d="M-0.5 158.5C 22.8357 158.333 46.169 158.5 69.5 159C 69.1667 159.333 68.8333 159.667 68.5 160C 70.1341 160.494 71.8008 160.66 73.5 160.5C 73.5 160.833 73.5 161.167 73.5 161.5C 69.5 161.5 65.5 161.5 61.5 161.5C 61.5 166.5 61.5 171.5 61.5 176.5C 63.5 176.5 65.5 176.5 67.5 176.5C 67.5 174.5 67.5 172.5 67.5 170.5C 69.099 170.232 70.4324 170.566 71.5 171.5C 71.7261 174.249 71.3928 176.916 70.5 179.5C 46.8427 180.5 23.1761 180.833 -0.5 180.5C -0.5 173.167 -0.5 165.833 -0.5 158.5z" stroke="none" fill="#28275C" fill-rule="nonzero" />
	</g>
	<g>
        <path d="M170.5 158.5C 171.919 159.451 173.585 159.784 175.5 159.5C 175.5 160.833 175.5 162.167 175.5 163.5C 175.267 166.542 174.267 169.208 172.5 171.5C 171.167 168.833 169.833 166.167 168.5 163.5C 167.711 163.217 167.044 162.717 166.5 162C 161.845 161.501 157.179 161.334 152.5 161.5C 151.883 161.611 151.383 161.944 151 162.5C 150.828 166.871 150.328 171.204 149.5 175.5C 148.702 175.043 148.369 174.376 148.5 173.5C 149.767 162.94 145.1 158.773 134.5 161C 133.069 161.465 131.903 162.299 131 163.5C 130.502 166.817 130.335 170.15 130.5 173.5C 130.5 174.833 130.5 176.167 130.5 177.5C 135.801 178.177 141.134 178.677 146.5 179C 145.944 179.383 145.611 179.883 145.5 180.5C 121.498 180.667 97.4977 180.5 73.5 180C 73.1667 179.667 72.8333 179.333 72.5 179C 74.8098 178.503 77.1432 178.337 79.5 178.5C 79.8016 175.941 79.4682 173.607 78.5 171.5C 77.9423 170.21 76.9423 169.377 75.5 169C 78.1997 168.051 79.033 166.217 78 163.5C 76.8904 161.963 75.3904 161.297 73.5 161.5C 73.5 161.167 73.5 160.833 73.5 160.5C 74.552 160.649 75.552 160.483 76.5 160C 74.8333 159.667 73.1667 159.333 71.5 159C 104.498 158.5 137.498 158.333 170.5 158.5z" stroke="none" fill="#23235A" fill-rule="nonzero" />
	</g>
	<g>
        <path d="M37.5 161.5C 35.1433 163.098 32.4766 164.098 29.5 164.5C 29.5 165.167 29.5 165.833 29.5 166.5C 31.6979 167.165 34.0312 167.832 36.5 168.5C 34.0312 169.168 31.6979 169.835 29.5 170.5C 29.5 171.5 29.5 172.5 29.5 173.5C 32.1667 173.5 34.8333 173.5 37.5 173.5C 37.5 174.5 37.5 175.5 37.5 176.5C 32.8333 176.5 28.1667 176.5 23.5 176.5C 23.5 171.5 23.5 166.5 23.5 161.5C 28.1667 161.5 32.8333 161.5 37.5 161.5z" stroke="none" fill="#F7FAFB" fill-rule="nonzero" />
	</g>
	<g>
        <path d="M111.5 161.5C 116.875 161.172 122.208 161.505 127.5 162.5C 125.955 163.452 124.288 163.785 122.5 163.5C 122.5 167.833 122.5 172.167 122.5 176.5C 120.5 176.5 118.5 176.5 116.5 176.5C 116.5 172.5 116.5 168.5 116.5 164.5C 114.833 164.5 113.167 164.5 111.5 164.5C 111.5 163.5 111.5 162.5 111.5 161.5z" stroke="none" fill="#F6F8FB" fill-rule="nonzero" />
	</g>
	<g>
        <path d="M6.5 161.5C 8.5 161.5 10.5 161.5 12.5 161.5C 12.5 165.5 12.5 169.5 12.5 173.5C 15.1667 173.5 17.8333 173.5 20.5 173.5C 20.5 174.5 20.5 175.5 20.5 176.5C 15.8333 176.5 11.1667 176.5 6.5 176.5C 6.5 171.5 6.5 166.5 6.5 161.5z" stroke="none" fill="#F6F7FB" fill-rule="nonzero" />
	</g>
	<g>
        <path d="M92.5 167.5C 92.9867 168.473 93.4867 169.473 94 170.5C 94.498 167.518 94.6646 164.518 94.5 161.5C 96.1667 161.5 97.8333 161.5 99.5 161.5C 99.5 166.5 99.5 171.5 99.5 176.5C 93.9865 177.93 90.6531 175.93 89.5 170.5C 89.0133 169.527 88.5133 168.527 88 167.5C 87.502 170.482 87.3354 173.482 87.5 176.5C 85.8333 176.5 84.1667 176.5 82.5 176.5C 82.5 171.5 82.5 166.5 82.5 161.5C 88.0135 160.07 91.3469 162.07 92.5 167.5z" stroke="none" fill="#F5F7FA" fill-rule="nonzero" />
	</g>
	<g>
        <path d="M438.5 161.5C 443.668 162.339 444.668 164.839 441.5 169C 443.055 171.255 444.055 173.755 444.5 176.5C 442.167 176.5 439.833 176.5 437.5 176.5C 438.575 172.062 436.908 170.062 432.5 170.5C 432.5 172.5 432.5 174.5 432.5 176.5C 430.833 176.5 429.167 176.5 427.5 176.5C 427.5 171.5 427.5 166.5 427.5 161.5C 431.167 161.5 434.833 161.5 438.5 161.5z" stroke="none" fill="#F8F9FB" fill-rule="nonzero" />
	</g>
	<g>
        <path d="M504.5 166.5C 504.5 167.833 504.5 169.167 504.5 170.5C 504.5 171.167 504.167 171.5 503.5 171.5C 500.53 171.254 499.197 169.588 499.5 166.5C 499.5 164.833 499.5 163.167 499.5 161.5C 501.167 161.5 502.833 161.5 504.5 161.5C 504.5 163.167 504.5 164.833 504.5 166.5z" stroke="none" fill="#F3F4F8" fill-rule="nonzero" />
	</g>
	<g>
        <path d="M37.5 161.5C 38.404 162.209 38.7373 163.209 38.5 164.5C 35.5 164.5 32.5 164.5 29.5 164.5C 32.4766 164.098 35.1433 163.098 37.5 161.5z" stroke="none" fill="#9E9DBA" fill-rule="nonzero" />
	</g>
	<g>
        <path d="M45.5 161.5C 48.4475 161.223 51.2809 161.556 54 162.5C 55.8017 167.095 57.3017 171.762 58.5 176.5C 56.5 176.5 54.5 176.5 52.5 176.5C 52.5 175.5 52.5 174.5 52.5 173.5C 50.5 173.5 48.5 173.5 46.5 173.5C 46.5 174.5 46.5 175.5 46.5 176.5C 44.5 176.5 42.5 176.5 40.5 176.5C 41.883 171.402 43.5497 166.402 45.5 161.5z" stroke="none" fill="#F2F3F8" fill-rule="nonzero" />
	</g>
	<g>
        <path d="M73.5 161.5C 75.3904 161.297 76.8904 161.963 78 163.5C 79.033 166.217 78.1997 168.051 75.5 169C 76.9423 169.377 77.9423 170.21 78.5 171.5C 78.5 173.167 78.5 174.833 78.5 176.5C 76.5 176.5 74.5 176.5 72.5 176.5C 72.7845 174.585 72.4511 172.919 71.5 171.5C 70.4324 170.566 69.099 170.232 67.5 170.5C 67.5 172.5 67.5 174.5 67.5 176.5C 65.5 176.5 63.5 176.5 61.5 176.5C 61.5 171.5 61.5 166.5 61.5 161.5C 65.5 161.5 69.5 161.5 73.5 161.5z" stroke="none" fill="#F4F5F9" fill-rule="nonzero" />
	</g>
	<g>
        <path d="M148.5 173.5C 142.424 178.757 136.424 178.757 130.5 173.5C 130.335 170.15 130.502 166.817 131 163.5C 131.903 162.299 133.069 161.465 134.5 161C 145.1 158.773 149.767 162.94 148.5 173.5z" stroke="none" fill="#E9EBF1" fill-rule="nonzero" />
	</g>
	<g>
        <path d="M170.5 158.5C 216.722 158.749 262.889 158.749 309 158.5C 320.5 158.667 332 158.833 343.5 159C 344.416 159.278 345.082 159.778 345.5 160.5C 335.448 159.384 331.615 163.717 334 173.5C 339.294 178.473 344.961 178.806 351 174.5C 351.667 170.833 351.667 167.167 351 163.5C 349.591 162.219 348.091 161.219 346.5 160.5C 348.144 160.286 349.644 160.62 351 161.5C 351.483 160.552 351.649 159.552 351.5 158.5C 378.502 158.333 405.502 158.5 432.5 159C 431.944 159.383 431.611 159.883 431.5 160.5C 429.833 160.5 428.167 160.5 426.5 160.5C 426.5 165.833 426.5 171.167 426.5 176.5C 428.948 177.473 431.615 177.806 434.5 177.5C 434.215 175.712 434.548 174.045 435.5 172.5C 436.769 174.695 436.769 176.861 435.5 179C 436.167 179.333 436.833 179.667 437.5 180C 432.845 180.499 428.179 180.666 423.5 180.5C 423.5 179.167 423.5 177.833 423.5 176.5C 423.055 173.755 422.055 171.255 420.5 169C 423.167 166.667 423.167 164.333 420.5 162C 415.511 161.501 410.511 161.334 405.5 161.5C 405.5 166.5 405.5 171.5 405.5 176.5C 407.279 178.344 409.612 179.01 412.5 178.5C 412.201 176.396 412.534 174.396 413.5 172.5C 414.15 174.184 415.15 175.517 416.5 176.5C 417.678 177.999 419.345 178.999 421.5 179.5C 373.167 180.833 324.833 180.833 276.5 179.5C 278.764 178.131 281.097 177.131 283.5 176.5C 281.847 171.854 280.18 167.188 278.5 162.5C 275.572 161.516 272.572 161.183 269.5 161.5C 268.53 166.577 266.863 171.41 264.5 176C 266.81 176.497 269.143 176.663 271.5 176.5C 271.5 175.5 271.5 174.5 271.5 173.5C 273.415 173.216 275.081 173.549 276.5 174.5C 276.167 176.5 275.833 178.5 275.5 180.5C 264.833 180.5 254.167 180.5 243.5 180.5C 244.808 179.768 246.142 178.934 247.5 178C 244.38 178.008 241.214 178.175 238 178.5C 235.39 178.467 233.223 177.8 231.5 176.5C 236.167 176.5 240.833 176.5 245.5 176.5C 245.5 175.5 245.5 174.5 245.5 173.5C 242.833 173.5 240.167 173.5 237.5 173.5C 237.5 169.5 237.5 165.5 237.5 161.5C 235.5 161.5 233.5 161.5 231.5 161.5C 232.263 160.732 233.263 160.232 234.5 160C 228.167 159.333 221.833 159.333 215.5 160C 216.056 160.383 216.389 160.883 216.5 161.5C 214.5 161.5 212.5 161.5 210.5 161.5C 210.616 164.86 210.949 168.193 211.5 171.5C 212.833 171.5 214.167 171.5 215.5 171.5C 216.209 172.404 217.209 172.737 218.5 172.5C 218.5 174.167 218.5 175.833 218.5 177.5C 215.615 177.806 212.948 177.473 210.5 176.5C 212.5 176.5 214.5 176.5 216.5 176.5C 216.5 175.5 216.5 174.5 216.5 173.5C 214.5 173.5 212.5 173.5 210.5 173.5C 210.762 172.022 210.429 170.689 209.5 169.5C 208.575 170.641 207.741 170.641 207 169.5C 206.692 170.308 206.192 170.975 205.5 171.5C 204.575 170.359 203.741 170.359 203 171.5C 202.802 173.382 202.302 175.048 201.5 176.5C 199.679 178.857 197.345 179.191 194.5 177.5C 194.167 177.833 193.833 178.167 193.5 178.5C 194.243 179.182 194.909 179.849 195.5 180.5C 178.833 180.5 162.167 180.5 145.5 180.5C 145.611 179.883 145.944 179.383 146.5 179C 141.134 178.677 135.801 178.177 130.5 177.5C 130.5 176.167 130.5 174.833 130.5 173.5C 136.424 178.757 142.424 178.757 148.5 173.5C 148.369 174.376 148.702 175.043 149.5 175.5C 150.328 171.204 150.828 166.871 151 162.5C 151.383 161.944 151.883 161.611 152.5 161.5C 152.5 166.5 152.5 171.5 152.5 176.5C 157.179 176.666 161.845 176.499 166.5 176C 169.672 172.312 170.339 168.145 168.5 163.5C 169.833 166.167 171.167 168.833 172.5 171.5C 172.579 172.93 172.246 174.264 171.5 175.5C 174.293 176.955 176.626 176.455 178.5 174C 180.134 173.506 181.801 173.34 183.5 173.5C 183.5 174.5 183.5 175.5 183.5 176.5C 185.857 176.663 188.19 176.497 190.5 176C 188.531 171.26 186.865 166.427 185.5 161.5C 181.821 161.06 178.488 161.727 175.5 163.5C 175.5 162.167 175.5 160.833 175.5 159.5C 173.585 159.784 171.919 159.451 170.5 158.5z" stroke="none" fill="#26255B" fill-rule="nonzero" />
	</g>
	<g>
        <path d="M254.5 164.5C 256.305 166.197 258.639 167.03 261.5 167C 262.337 168.011 262.67 169.178 262.5 170.5C 259.833 170.5 257.167 170.5 254.5 170.5C 254.5 171.5 254.5 172.5 254.5 173.5C 253.545 171.717 252.878 169.717 252.5 167.5C 252.453 165.962 253.12 164.962 254.5 164.5z" stroke="none" fill="#CED0DD" fill-rule="nonzero" />
	</g>
	<g>
        <path d="M262.5 161.5C 257.833 161.5 253.167 161.5 248.5 161.5C 248.5 166.5 248.5 171.5 248.5 176.5C 247.512 171.36 247.179 166.026 247.5 160.5C 252.695 160.179 257.695 160.513 262.5 161.5z" stroke="none" fill="#8F90AA" fill-rule="nonzero" />
	</g>
	<g>
        <path d="M172.5 171.5C 174.267 169.208 175.267 166.542 175.5 163.5C 178.488 161.727 181.821 161.06 185.5 161.5C 186.865 166.427 188.531 171.26 190.5 176C 188.19 176.497 185.857 176.663 183.5 176.5C 183.5 175.5 183.5 174.5 183.5 173.5C 181.801 173.34 180.134 173.506 178.5 174C 176.626 176.455 174.293 176.955 171.5 175.5C 172.246 174.264 172.579 172.93 172.5 171.5z" stroke="none" fill="#EEF0F5" fill-rule="nonzero" />
	</g>
	<g>
        <path d="M423.5 176.5C 421.167 176.5 418.833 176.5 416.5 176.5C 417.575 172.062 415.908 170.062 411.5 170.5C 411.5 172.5 411.5 174.5 411.5 176.5C 409.5 176.5 407.5 176.5 405.5 176.5C 405.5 171.5 405.5 166.5 405.5 161.5C 410.511 161.334 415.511 161.501 420.5 162C 423.167 164.333 423.167 166.667 420.5 169C 422.055 171.255 423.055 173.755 423.5 176.5z" stroke="none" fill="#F3F4F8" fill-rule="nonzero" />
	</g>
	<g>
        <path d="M411.5 163.5C 413.665 163.116 415.332 163.783 416.5 165.5C 415.332 167.217 413.665 167.884 411.5 167.5C 411.5 166.167 411.5 164.833 411.5 163.5z" stroke="none" fill="#43416A" fill-rule="nonzero" />
	</g>
	<g>
        <path d="M374.5 176.5C 374.665 172.818 374.499 169.152 374 165.5C 373.59 166.901 373.09 168.234 372.5 169.5C 372.358 172.83 370.858 175.163 368 176.5C 366.893 176.415 365.893 176.081 365 175.5C 362.102 164.816 360.935 165.15 361.5 176.5C 359.5 176.5 357.5 176.5 355.5 176.5C 355.5 171.5 355.5 166.5 355.5 161.5C 358.518 161.335 361.518 161.502 364.5 162C 365.522 164.545 366.688 167.045 368 169.5C 368.735 167.129 369.568 164.795 370.5 162.5C 373.428 161.516 376.428 161.183 379.5 161.5C 379.5 166.5 379.5 171.5 379.5 176.5C 377.833 176.5 376.167 176.5 374.5 176.5z" stroke="none" fill="#F2F3F7" fill-rule="nonzero" />
	</g>
	<g>
        <path d="M315.5 161.5C 320.833 161.5 326.167 161.5 331.5 161.5C 331.5 162.5 331.5 163.5 331.5 164.5C 329.833 164.5 328.167 164.5 326.5 164.5C 326.5 168.5 326.5 172.5 326.5 176.5C 324.5 176.5 322.5 176.5 320.5 176.5C 320.5 172.167 320.5 167.833 320.5 163.5C 318.219 163.923 316.552 163.256 315.5 161.5z" stroke="none" fill="#F5F7FB" fill-rule="nonzero" />
	</g>
	<g>
        <path d="M231.5 161.5C 233.5 161.5 235.5 161.5 237.5 161.5C 237.5 165.5 237.5 169.5 237.5 173.5C 240.167 173.5 242.833 173.5 245.5 173.5C 245.5 174.5 245.5 175.5 245.5 176.5C 240.833 176.5 236.167 176.5 231.5 176.5C 231.5 171.5 231.5 166.5 231.5 161.5z" stroke="none" fill="#F8F9FB" fill-rule="nonzero" />
	</g>
	<g>
        <path d="M216.5 161.5C 216.384 164.86 216.051 168.193 215.5 171.5C 214.167 171.5 212.833 171.5 211.5 171.5C 210.949 168.193 210.616 164.86 210.5 161.5C 212.5 161.5 214.5 161.5 216.5 161.5z" stroke="none" fill="#F2F3F9" fill-rule="nonzero" />
	</g>
	<g>
        <path d="M200.5 161.5C 202.735 161.205 204.735 161.539 206.5 162.5C 205.223 164.95 203.723 167.283 202 169.5C 201.503 171.81 201.337 174.143 201.5 176.5C 199.5 176.5 197.5 176.5 195.5 176.5C 195.688 170.825 193.688 165.992 189.5 162C 193.463 160.764 196.297 161.93 198 165.5C 199.095 164.307 199.928 162.973 200.5 161.5z" stroke="none" fill="#F5F7FA" fill-rule="nonzero" />
	</g>
	<g>
        <path d="M387.5 160.5C 399.875 158.369 404.209 163.202 400.5 175C 388.814 180.591 383.314 177.091 384 164.5C 385.102 163.051 386.269 161.718 387.5 160.5z" stroke="none" fill="#EBECF2" fill-rule="nonzero" />
	</g>
	<g>
        <path d="M345.5 160.5C 345.833 160.5 346.167 160.5 346.5 160.5C 348.091 161.219 349.591 162.219 351 163.5C 351.667 167.167 351.667 170.833 351 174.5C 344.961 178.806 339.294 178.473 334 173.5C 331.615 163.717 335.448 159.384 345.5 160.5z" stroke="none" fill="#EAEBF2" fill-rule="nonzero" />
	</g>
	<g>
        <path d="M286.5 161.5C 291.179 161.334 295.845 161.501 300.5 162C 302.923 163.64 303.923 165.973 303.5 169C 303.919 171.981 302.919 174.314 300.5 176C 295.845 176.499 291.179 176.666 286.5 176.5C 286.5 171.5 286.5 166.5 286.5 161.5z" stroke="none" fill="#F4F5F9" fill-rule="nonzero" />
	</g>
	<g>
        <path d="M262.5 161.5C 262.5 162.5 262.5 163.5 262.5 164.5C 259.833 164.5 257.167 164.5 254.5 164.5C 253.12 164.962 252.453 165.962 252.5 167.5C 252.878 169.717 253.545 171.717 254.5 173.5C 257.167 173.5 259.833 173.5 262.5 173.5C 262.5 174.5 262.5 175.5 262.5 176.5C 257.833 176.5 253.167 176.5 248.5 176.5C 248.5 171.5 248.5 166.5 248.5 161.5C 253.167 161.5 257.833 161.5 262.5 161.5z" stroke="none" fill="#F3F5F9" fill-rule="nonzero" />
	</g>
	<g>
        <path d="M152.5 161.5C 157.179 161.334 161.845 161.501 166.5 162C 167.044 162.717 167.711 163.217 168.5 163.5C 170.339 168.145 169.672 172.312 166.5 176C 161.845 176.499 157.179 176.666 152.5 176.5C 152.5 171.5 152.5 166.5 152.5 161.5z" stroke="none" fill="#F1F2F7" fill-rule="nonzero" />
	</g>
	<g>
        <path d="M200.5 161.5C 202.693 160.203 205.027 160.203 207.5 161.5C 207.376 162.107 207.043 162.44 206.5 162.5C 204.735 161.539 202.735 161.205 200.5 161.5z" stroke="none" fill="#747696" fill-rule="nonzero" />
	</g>
	<g>
        <path d="M231.5 161.5C 231.5 166.5 231.5 171.5 231.5 176.5C 233.223 177.8 235.39 178.467 238 178.5C 241.214 178.175 244.38 178.008 247.5 178C 246.142 178.934 244.808 179.768 243.5 180.5C 227.5 180.5 211.5 180.5 195.5 180.5C 194.909 179.849 194.243 179.182 193.5 178.5C 193.833 178.167 194.167 177.833 194.5 177.5C 197.345 179.191 199.679 178.857 201.5 176.5C 202.302 175.048 202.802 173.382 203 171.5C 203.741 170.359 204.575 170.359 205.5 171.5C 206.192 170.975 206.692 170.308 207 169.5C 207.741 170.641 208.575 170.641 209.5 169.5C 210.429 170.689 210.762 172.022 210.5 173.5C 210.5 174.5 210.5 175.5 210.5 176.5C 212.948 177.473 215.615 177.806 218.5 177.5C 218.5 175.833 218.5 174.167 218.5 172.5C 217.209 172.737 216.209 172.404 215.5 171.5C 216.051 168.193 216.384 164.86 216.5 161.5C 216.389 160.883 216.056 160.383 215.5 160C 221.833 159.333 228.167 159.333 234.5 160C 233.263 160.232 232.263 160.732 231.5 161.5z" stroke="none" fill="#22225B" fill-rule="nonzero" />
	</g>
	<g>
        <path d="M432.5 163.5C 434.665 163.116 436.332 163.783 437.5 165.5C 436.332 167.217 434.665 167.884 432.5 167.5C 432.5 166.167 432.5 164.833 432.5 163.5z" stroke="none" fill="#44416C" fill-rule="nonzero" />
	</g>
	<g>
        <path d="M67.5 163.5C 69.6648 163.116 71.3315 163.783 72.5 165.5C 71.3315 167.217 69.6648 167.884 67.5 167.5C 67.5 166.167 67.5 164.833 67.5 163.5z" stroke="none" fill="#47466D" fill-rule="nonzero" />
	</g>
	<g>
        <path d="M390.5 163.5C 392.144 163.286 393.644 163.62 395 164.5C 395.667 167.5 395.667 170.5 395 173.5C 393.667 174.833 392.333 174.833 391 173.5C 390.502 170.183 390.335 166.85 390.5 163.5z" stroke="none" fill="#373560" fill-rule="nonzero" />
	</g>
	<g>
        <path d="M431.5 160.5C 433.833 160.5 436.167 160.5 438.5 160.5C 438.5 160.833 438.5 161.167 438.5 161.5C 434.833 161.5 431.167 161.5 427.5 161.5C 427.5 166.5 427.5 171.5 427.5 176.5C 427.167 176.5 426.833 176.5 426.5 176.5C 426.5 171.167 426.5 165.833 426.5 160.5C 428.167 160.5 429.833 160.5 431.5 160.5z" stroke="none" fill="#A4A5C1" fill-rule="nonzero" />
	</g>
	<g>
        <path d="M94.5 161.5C 94.6646 164.518 94.498 167.518 94 170.5C 93.4867 169.473 92.9867 168.473 92.5 167.5C 93.1667 165.5 93.8333 163.5 94.5 161.5z" stroke="none" fill="#9D9CAE" fill-rule="nonzero" />
	</g>
	<g>
        <path d="M180.5 164.5C 181.738 166.214 182.405 168.214 182.5 170.5C 181.5 170.5 180.5 170.5 179.5 170.5C 179.833 168.5 180.167 166.5 180.5 164.5z" stroke="none" fill="#3E3D63" fill-rule="nonzero" />
	</g>
	<g>
        <path d="M283.5 176.5C 280.789 176.815 278.456 176.148 276.5 174.5C 275.081 173.549 273.415 173.216 271.5 173.5C 271.5 174.5 271.5 175.5 271.5 176.5C 269.143 176.663 266.81 176.497 264.5 176C 266.863 171.41 268.53 166.577 269.5 161.5C 272.572 161.183 275.572 161.516 278.5 162.5C 280.18 167.188 281.847 171.854 283.5 176.5z" stroke="none" fill="#F0F2F7" fill-rule="nonzero" />
	</g>
	<g>
        <path d="M50.5 168.5C 49.8333 171.167 49.1667 171.167 48.5 168.5C 49.1667 164.5 49.8333 164.5 50.5 168.5z" stroke="none" fill="#3D395A" fill-rule="nonzero" />
	</g>
	<g>
        <path d="M137.5 163.5C 138.833 163.5 140.167 163.5 141.5 163.5C 141.5 166.833 141.5 170.167 141.5 173.5C 139.856 173.714 138.356 173.38 137 172.5C 136.264 169.408 136.431 166.408 137.5 163.5z" stroke="none" fill="#2D2C5A" fill-rule="nonzero" />
	</g>
	<g>
        <path d="M273.5 165.5C 274.931 166.78 275.598 168.447 275.5 170.5C 274.5 170.5 273.5 170.5 272.5 170.5C 272.629 168.784 272.962 167.117 273.5 165.5z" stroke="none" fill="#3B3960" fill-rule="nonzero" />
	</g>
	<g>
        <path d="M341.5 163.5C 342.822 163.33 343.989 163.663 345 164.5C 345.667 167.5 345.667 170.5 345 173.5C 343.667 174.833 342.333 174.833 341 173.5C 340.253 170.076 340.42 166.743 341.5 163.5z" stroke="none" fill="#2F2E5C" fill-rule="nonzero" />
	</g>
	<g>
        <path d="M29.5 166.5C 32.1667 166.5 34.8333 166.5 37.5 166.5C 37.5 167.833 37.5 169.167 37.5 170.5C 34.8333 170.5 32.1667 170.5 29.5 170.5C 31.6979 169.835 34.0312 169.168 36.5 168.5C 34.0312 167.832 31.6979 167.165 29.5 166.5z" stroke="none" fill="#A2A3BD" fill-rule="nonzero" />
	</g>
	<g>
        <path d="M158.5 164.5C 159.833 164.5 161.167 164.5 162.5 164.5C 162.5 167.5 162.5 170.5 162.5 173.5C 161.167 173.5 159.833 173.5 158.5 173.5C 158.5 170.5 158.5 167.5 158.5 164.5z" stroke="none" fill="#2A2A56" fill-rule="nonzero" />
	</g>
	<g>
        <path d="M292.5 164.5C 293.833 164.5 295.167 164.5 296.5 164.5C 296.5 167.5 296.5 170.5 296.5 173.5C 295.167 173.5 293.833 173.5 292.5 173.5C 292.5 170.5 292.5 167.5 292.5 164.5z" stroke="none" fill="#242358" fill-rule="nonzero" />
	</g>
	<g>
        <path d="M48.5 168.5C 49.1667 171.167 49.8333 171.167 50.5 168.5C 51.404 169.209 51.7373 170.209 51.5 171.5C 50.1667 171.5 48.8333 171.5 47.5 171.5C 47.2627 170.209 47.596 169.209 48.5 168.5z" stroke="none" fill="#9A99B4" fill-rule="nonzero" />
	</g>
	<g>
        <path d="M111.5 161.5C 116.975 160.511 122.642 160.178 128.5 160.5C 128.5 161.833 128.5 163.167 128.5 164.5C 126.833 164.5 125.167 164.5 123.5 164.5C 123.817 168.702 123.483 172.702 122.5 176.5C 122.5 172.167 122.5 167.833 122.5 163.5C 124.288 163.785 125.955 163.452 127.5 162.5C 122.208 161.505 116.875 161.172 111.5 161.5z" stroke="none" fill="#8C8FAA" fill-rule="nonzero" />
	</g>
	<g>
        <path d="M416.5 176.5C 415.15 175.517 414.15 174.184 413.5 172.5C 412.534 174.396 412.201 176.396 412.5 178.5C 409.612 179.01 407.279 178.344 405.5 176.5C 407.5 176.5 409.5 176.5 411.5 176.5C 411.5 174.5 411.5 172.5 411.5 170.5C 415.908 170.062 417.575 172.062 416.5 176.5z" stroke="none" fill="#3D3C66" fill-rule="nonzero" />
	</g>
	<g>
        <path d="M315.5 161.5C 316.552 163.256 318.219 163.923 320.5 163.5C 320.5 167.833 320.5 172.167 320.5 176.5C 322.5 176.5 324.5 176.5 326.5 176.5C 324.393 177.468 322.059 177.802 319.5 177.5C 319.5 173.167 319.5 168.833 319.5 164.5C 317.833 164.5 316.167 164.5 314.5 164.5C 314.263 163.209 314.596 162.209 315.5 161.5z" stroke="none" fill="#75758C" fill-rule="nonzero" />
	</g>
	<g>
        <path d="M89.5 170.5C 88.8333 172.5 88.1667 174.5 87.5 176.5C 87.3354 173.482 87.502 170.482 88 167.5C 88.5133 168.527 89.0133 169.527 89.5 170.5z" stroke="none" fill="#9C99B6" fill-rule="nonzero" />
	</g>
	<g>
        <path d="M374.5 176.5C 373.833 174.167 373.167 171.833 372.5 169.5C 373.09 168.234 373.59 166.901 374 165.5C 374.499 169.152 374.665 172.818 374.5 176.5z" stroke="none" fill="#84859C" fill-rule="nonzero" />
	</g>
	<g>
        <path d="M504.5 170.5C 504.5 169.167 504.5 167.833 504.5 166.5C 505.461 164.735 505.795 162.735 505.5 160.5C 503.167 160.5 500.833 160.5 498.5 160.5C 498.205 162.735 498.539 164.735 499.5 166.5C 499.197 169.588 500.53 171.254 503.5 171.5C 503.5 171.833 503.5 172.167 503.5 172.5C 501.833 172.5 500.167 172.5 498.5 172.5C 498.232 174.099 498.566 175.432 499.5 176.5C 501.167 176.5 502.833 176.5 504.5 176.5C 505.404 175.791 505.737 174.791 505.5 173.5C 506.434 174.568 506.768 175.901 506.5 177.5C 502.111 178.29 497.778 178.623 493.5 178.5C 493.649 177.448 493.483 176.448 493 175.5C 490.205 177.5 487.371 179.167 484.5 180.5C 469.83 180.667 455.163 180.5 440.5 180C 440.167 179.667 439.833 179.333 439.5 179C 441.744 178.95 443.411 178.117 444.5 176.5C 444.055 173.755 443.055 171.255 441.5 169C 444.668 164.839 443.668 162.339 438.5 161.5C 438.5 161.167 438.5 160.833 438.5 160.5C 440.5 160.5 442.5 160.5 444.5 160.5C 444.337 162.857 444.503 165.19 445 167.5C 445.708 166.619 446.542 165.953 447.5 165.5C 446.691 176.785 451.691 180.285 462.5 176C 468.531 165.161 465.198 159.994 452.5 160.5C 452.082 159.778 451.416 159.278 450.5 159C 469.164 158.5 487.83 158.333 506.5 158.5C 506.665 162.182 506.499 165.848 506 169.5C 505.617 170.056 505.117 170.389 504.5 170.5z" stroke="none" fill="#25255A" fill-rule="nonzero" />
	</g>
	<g>
        <path d="M473.5 161.5C 474.856 164.577 475.689 167.91 476 171.5C 476.539 168.471 477.206 165.471 478 162.5C 480.381 161.565 482.881 161.232 485.5 161.5C 486.833 170.833 488.167 170.833 489.5 161.5C 491.604 161.201 493.604 161.534 495.5 162.5C 493.901 166.796 492.401 171.129 491 175.5C 488.619 176.435 486.119 176.768 483.5 176.5C 482.482 167.203 481.482 167.203 480.5 176.5C 477.833 176.5 475.167 176.5 472.5 176.5C 471.454 172.076 470.121 167.743 468.5 163.5C 469.552 161.744 471.219 161.077 473.5 161.5z" stroke="none" fill="#EEF0F5" fill-rule="nonzero" />
	</g>
	<g>
        <path d="M504.5 166.5C 504.5 164.833 504.5 163.167 504.5 161.5C 502.833 161.5 501.167 161.5 499.5 161.5C 499.5 163.167 499.5 164.833 499.5 166.5C 498.539 164.735 498.205 162.735 498.5 160.5C 500.833 160.5 503.167 160.5 505.5 160.5C 505.795 162.735 505.461 164.735 504.5 166.5z" stroke="none" fill="#8B8DA8" fill-rule="nonzero" />
	</g>
	<g>
        <path d="M452.5 160.5C 465.198 159.994 468.531 165.161 462.5 176C 451.691 180.285 446.691 176.785 447.5 165.5C 448.144 162.856 449.811 161.189 452.5 160.5z" stroke="none" fill="#EAEBF1" fill-rule="nonzero" />
	</g>
	<g>
        <path d="M454.5 163.5C 455.822 163.33 456.989 163.663 458 164.5C 458.667 167.5 458.667 170.5 458 173.5C 456.667 174.833 455.333 174.833 454 173.5C 453.253 170.076 453.42 166.743 454.5 163.5z" stroke="none" fill="#33325F" fill-rule="nonzero" />
	</g>
	<g>
        <path d="M473.5 161.5C 471.219 161.077 469.552 161.744 468.5 163.5C 467.596 162.791 467.263 161.791 467.5 160.5C 469.735 160.205 471.735 160.539 473.5 161.5z" stroke="none" fill="#727495" fill-rule="nonzero" />
	</g>
	<g>
        <path d="M-0.5 156.5C -0.5 156.167 -0.5 155.833 -0.5 155.5C 170.167 155.5 340.833 155.5 511.5 155.5C 511.5 164.167 511.5 172.833 511.5 181.5C 340.833 181.5 170.167 181.5 -0.5 181.5C -0.5 181.167 -0.5 180.833 -0.5 180.5C 23.1761 180.833 46.8427 180.5 70.5 179.5C 71.3928 176.916 71.7261 174.249 71.5 171.5C 72.4511 172.919 72.7845 174.585 72.5 176.5C 74.5 176.5 76.5 176.5 78.5 176.5C 78.5 174.833 78.5 173.167 78.5 171.5C 79.4682 173.607 79.8016 175.941 79.5 178.5C 77.1432 178.337 74.8098 178.503 72.5 179C 72.8333 179.333 73.1667 179.667 73.5 180C 97.4977 180.5 121.498 180.667 145.5 180.5C 162.167 180.5 178.833 180.5 195.5 180.5C 211.5 180.5 227.5 180.5 243.5 180.5C 254.167 180.5 264.833 180.5 275.5 180.5C 275.833 178.5 276.167 176.5 276.5 174.5C 278.456 176.148 280.789 176.815 283.5 176.5C 281.097 177.131 278.764 178.131 276.5 179.5C 324.833 180.833 373.167 180.833 421.5 179.5C 419.345 178.999 417.678 177.999 416.5 176.5C 418.833 176.5 421.167 176.5 423.5 176.5C 423.5 177.833 423.5 179.167 423.5 180.5C 428.179 180.666 432.845 180.499 437.5 180C 436.833 179.667 436.167 179.333 435.5 179C 436.769 176.861 436.769 174.695 435.5 172.5C 434.548 174.045 434.215 175.712 434.5 177.5C 431.615 177.806 428.948 177.473 426.5 176.5C 426.833 176.5 427.167 176.5 427.5 176.5C 429.167 176.5 430.833 176.5 432.5 176.5C 432.5 174.5 432.5 172.5 432.5 170.5C 436.908 170.062 438.575 172.062 437.5 176.5C 439.833 176.5 442.167 176.5 444.5 176.5C 443.411 178.117 441.744 178.95 439.5 179C 439.833 179.333 440.167 179.667 440.5 180C 455.163 180.5 469.83 180.667 484.5 180.5C 493.167 180.5 501.833 180.5 510.5 180.5C 510.5 172.5 510.5 164.5 510.5 156.5C 340.167 156.5 169.833 156.5 -0.5 156.5z" stroke="none" fill="#343465" fill-rule="nonzero" />
	</g>
	<g>
        <path d="M210.5 173.5C 212.5 173.5 214.5 173.5 216.5 173.5C 216.5 174.5 216.5 175.5 216.5 176.5C 214.5 176.5 212.5 176.5 210.5 176.5C 210.5 175.5 210.5 174.5 210.5 173.5z" stroke="none" fill="#F6FAFD" fill-rule="nonzero" />
	</g>
	<g>
        <path d="M503.5 172.5C 504.492 172.328 505.158 172.662 505.5 173.5C 505.737 174.791 505.404 175.791 504.5 176.5C 504.5 175.5 504.5 174.5 504.5 173.5C 502.833 173.5 501.167 173.5 499.5 173.5C 499.5 174.5 499.5 175.5 499.5 176.5C 498.566 175.432 498.232 174.099 498.5 172.5C 500.167 172.5 501.833 172.5 503.5 172.5z" stroke="none" fill="#7B7B9E" fill-rule="nonzero" />
	</g>
	<g>
        <path d="M504.5 176.5C 502.833 176.5 501.167 176.5 499.5 176.5C 499.5 175.5 499.5 174.5 499.5 173.5C 501.167 173.5 502.833 173.5 504.5 173.5C 504.5 174.5 504.5 175.5 504.5 176.5z" stroke="none" fill="#F8FCFA" fill-rule="nonzero" />
	</g>
</g>
</svg>