<svg width="35" height="22" viewBox="0 0 35 22" fill="none" xmlns="http://www.w3.org/2000/svg">
<path fill-rule="evenodd" clip-rule="evenodd" d="M10.8516 21.0079C16.5514 21.0079 21.172 16.4013 21.172 10.7186C21.172 5.036 16.5514 0.429321 10.8516 0.429321C5.15183 0.429321 0.53125 5.036 0.53125 10.7186C0.53125 16.4013 5.15183 21.0079 10.8516 21.0079Z" fill="#D8232A"/>
<path fill-rule="evenodd" clip-rule="evenodd" d="M17.4219 18.6558C19.2063 20.1252 21.4946 21.0081 23.9898 21.0081C29.6896 21.0081 34.3101 16.4014 34.3101 10.7187C34.3101 5.03612 29.6896 0.429443 23.9898 0.429443C21.4946 0.429443 19.2063 1.31225 17.4219 2.78166C19.7137 4.66889 21.1743 7.52376 21.1743 10.7187C21.1743 13.9137 19.7137 16.7686 17.4219 18.6558Z" fill="#ED9F2D"/>
<path fill-rule="evenodd" clip-rule="evenodd" d="M17.4165 2.78149C15.1247 4.66873 13.6641 7.52359 13.6641 10.7186C13.6641 13.9136 15.1247 16.7684 17.4165 18.6557C19.7083 16.7684 21.1689 13.9136 21.1689 10.7186C21.1689 7.52359 19.7083 4.66873 17.4165 2.78149Z" fill="#D8232A"/>
<mask id="mask0_5836_4372" style="mask-type:luminance" maskUnits="userSpaceOnUse" x="13" y="2" width="9" height="17">
<path fill-rule="evenodd" clip-rule="evenodd" d="M17.4165 2.78149C15.1247 4.66873 13.6641 7.52359 13.6641 10.7186C13.6641 13.9136 15.1247 16.7684 17.4165 18.6557C19.7083 16.7684 21.1689 13.9136 21.1689 10.7186C21.1689 7.52359 19.7083 4.66873 17.4165 2.78149Z" fill="white"/>
</mask>
<g mask="url(#mask0_5836_4372)">
<path fill-rule="evenodd" clip-rule="evenodd" d="M12.7266 3.23547H22.1087V4.17086H12.7266V3.23547ZM12.7266 5.10608H22.1087V6.04147H12.7266V5.10608ZM22.1087 6.97668H12.7266V7.91207H22.1087V6.97668ZM12.7266 8.84816H22.1087V9.78355H12.7266V8.84816ZM22.1087 10.7188H12.7266V11.6541H22.1087V10.7188ZM12.7266 12.5894H22.1087V13.5248H12.7266V12.5894ZM22.1087 14.46H12.7266V15.3954H22.1087V14.46ZM12.7266 16.331H22.1087V17.2664H12.7266V16.331ZM22.1087 18.2016H12.7266V19.137H22.1087V18.2016Z" fill="#ED9F2D"/>
</g>
</svg>
