<svg width="16" height="16" viewBox="0 0 16 16" fill="none" xmlns="http://www.w3.org/2000/svg">
<path fill-rule="evenodd" clip-rule="evenodd" d="M8.11849 10.145H7.88536C6.2831 10.145 4.98438 8.86185 4.98438 7.28026V4.19808C4.98438 2.61586 6.2831 1.33337 7.88536 1.33337H8.11849C9.72075 1.33337 11.0201 2.61586 11.0201 4.19808V7.28026C11.0201 8.86185 9.72075 10.145 8.11849 10.145ZM12.3776 7.18864C12.3776 6.83597 12.667 6.5509 13.0235 6.5509C13.3799 6.5509 13.6693 6.83597 13.6693 7.18864C13.6693 10.0578 11.4696 12.427 8.64874 12.7452V14.029C8.64874 14.381 8.35942 14.6667 8.00293 14.6667C7.64579 14.6667 7.35712 14.381 7.35712 14.029V12.7452C4.53557 12.427 2.33594 10.0578 2.33594 7.18864C2.33594 6.83597 2.62526 6.5509 2.98175 6.5509C3.33824 6.5509 3.62756 6.83597 3.62756 7.18864C3.62756 9.57058 5.59018 11.5087 8.00293 11.5087C10.415 11.5087 12.3776 9.57058 12.3776 7.18864Z" fill="#4285FA"/>
</svg>
