<svg width="40" height="40" viewBox="0 0 40 40" fill="none" xmlns="http://www.w3.org/2000/svg">
<path d="M0 8C0 3.58172 3.58172 0 8 0H32C36.4183 0 40 3.58172 40 8V32C40 36.4183 36.4183 40 32 40H8C3.58172 40 0 36.4183 0 32V8Z" fill="#E9E9FF"/>
<path fill-rule="evenodd" clip-rule="evenodd" d="M26.7071 16.7963C26.7071 18.0523 27.039 18.7925 27.7695 19.6456C28.3231 20.2741 28.5 21.0808 28.5 21.956C28.5 22.8302 28.2128 23.6601 27.6373 24.3339C26.884 25.1417 25.8215 25.6573 24.7372 25.747C23.1659 25.8809 21.5937 25.9937 20.0005 25.9937C18.4063 25.9937 16.835 25.9263 15.2638 25.747C14.1785 25.6573 13.116 25.1417 12.3637 24.3339C11.7882 23.6601 11.5 22.8302 11.5 21.956C11.5 21.0808 11.6779 20.2741 12.2305 19.6456C12.9838 18.7925 13.2939 18.0523 13.2939 16.7963V16.3703C13.2939 14.6883 13.7133 13.5885 14.577 12.5119C15.8611 10.9417 17.9194 10 19.9558 10H20.0452C22.1254 10 24.2502 10.987 25.5125 12.6247C26.3314 13.6792 26.7071 14.7327 26.7071 16.3703V16.7963ZM17.0737 28.0608C17.0737 27.5573 17.5358 27.3266 17.9632 27.2279C18.4631 27.1222 21.5093 27.1222 22.0092 27.2279C22.4366 27.3266 22.8987 27.5573 22.8987 28.0608C22.8738 28.5402 22.5926 28.9653 22.204 29.2352C21.7001 29.628 21.1088 29.8767 20.4906 29.9664C20.1487 30.0107 19.8128 30.0117 19.4828 29.9664C18.8636 29.8767 18.2723 29.628 17.7694 29.2342C17.3798 28.9653 17.0985 28.5402 17.0737 28.0608Z" fill="#152946"/>
<circle cx="27" cy="13" r="4" fill="#FF6E5A"/>
</svg>
