<svg width="32" height="32" viewBox="0 0 32 32" fill="none" xmlns="http://www.w3.org/2000/svg">
<path fill-rule="evenodd" clip-rule="evenodd" d="M2.66679 16.0003C2.66679 8.64033 8.62679 2.66699 16.0001 2.66699C23.3601 2.66699 29.3335 8.64033 29.3335 16.0003C29.3335 23.3603 23.3601 29.3337 16.0001 29.3337C8.62679 29.3337 2.66679 23.3603 2.66679 16.0003ZM10.0268 17.6003C9.14679 17.6003 8.42679 16.8803 8.42679 16.0003C8.42679 15.1203 9.14679 14.4017 10.0268 14.4017C10.9068 14.4017 11.6135 15.1203 11.6135 16.0003C11.6135 16.8803 10.9068 17.6003 10.0268 17.6003ZM14.4001 16.0003C14.4001 16.8803 15.1201 17.6003 16.0001 17.6003C16.8801 17.6003 17.5868 16.8803 17.5868 16.0003C17.5868 15.1203 16.8801 14.4017 16.0001 14.4017C15.1201 14.4017 14.4001 15.1203 14.4001 16.0003ZM20.3735 16.0003C20.3735 16.8803 21.0801 17.6003 21.9735 17.6003C22.8535 17.6003 23.5601 16.8803 23.5601 16.0003C23.5601 15.1203 22.8535 14.4017 21.9735 14.4017C21.0801 14.4017 20.3735 15.1203 20.3735 16.0003Z" fill="white"/>
</svg>
