<svg width="91" height="84" viewBox="0 0 91 84" fill="none" xmlns="http://www.w3.org/2000/svg">
<path d="M4.26482 46.8248C5.97737 46.5034 7.1051 44.8545 6.78368 43.1419C6.46225 41.4294 4.81339 40.3017 3.10084 40.6231C1.3883 40.9445 0.260565 42.5934 0.581988 44.3059C0.903411 46.0185 2.55227 47.1462 4.26482 46.8248Z" stroke="#4285FA" stroke-width="0.920005" stroke-linecap="round" stroke-linejoin="round"/>
<path d="M89.9999 35.3514C89.9566 35.6255 89.8329 35.8806 89.6446 36.0844C89.4563 36.2882 89.2118 36.4316 88.942 36.4964C88.6721 36.5612 88.3892 36.5445 88.1288 36.4485C87.8685 36.3525 87.6425 36.1814 87.4794 35.9569C87.3162 35.7324 87.2234 35.4646 87.2125 35.1874C87.2016 34.9101 87.2732 34.6358 87.4182 34.3992C87.5632 34.1626 87.7752 33.9744 88.0272 33.8583C88.2792 33.7421 88.56 33.7033 88.834 33.7468C89.2013 33.8053 89.5303 34.0071 89.7489 34.308C89.9675 34.6088 90.0577 34.9841 89.9999 35.3514V35.3514Z" stroke="#689EFB" stroke-width="0.920005" stroke-linecap="round" stroke-linejoin="round"/>
<path d="M84.4915 12.0746C85.9975 10.5685 85.9975 8.12679 84.4915 6.62077C82.9855 5.11474 80.5437 5.11474 79.0377 6.62076C77.5317 8.12678 77.5317 10.5685 79.0377 12.0746C80.5437 13.5806 82.9855 13.5806 84.4915 12.0746Z" stroke="#8DE2EF" stroke-width="0.920005" stroke-linecap="round" stroke-linejoin="round"/>
<path d="M26.7504 10.4727C24.563 11.8967 21.6594 12.3641 19.7801 10.2162C17.6712 7.80911 19.3603 4.41861 20.7721 4.44262C21.8251 4.46033 23.3618 5.69956 22.0469 7.38682C20.732 9.07408 17.8589 9.38368 15.9167 8.4404C13.9745 7.49713 13.5024 5.06238 13.5823 3.6584" stroke="#8DE2EF" stroke-width="0.920005" stroke-linecap="round" stroke-linejoin="round"/>
<path d="M71.9968 81.4833C69.996 81.7831 68.6811 80.8851 69.073 79.8427C69.4649 78.8002 69.4938 77.4379 67.2023 77.3235C64.9108 77.2091 63.9892 76.4094 64.6212 75.0856C65.2532 73.7618 64.2783 73.1182 62.5398 73.1988" stroke="#9E9CFD" stroke-width="0.920005" stroke-linecap="round" stroke-linejoin="round"/>
<circle cx="48.1971" cy="38.3189" r="33.8521" fill="#8EB6FC"/>
<path d="M60.0116 24.9137V37.7407H56.3949V24.9137C56.4666 23.7847 56.3076 22.6529 55.9277 21.5882C55.5478 20.5235 54.9551 19.5485 54.1863 18.7234C53.4174 17.8984 52.4886 17.2408 51.4574 16.7912C50.4261 16.3417 49.3142 16.1097 48.1904 16.1097C47.0666 16.1097 45.9548 16.3417 44.9235 16.7912C43.8922 17.2408 42.9635 17.8984 42.1946 18.7234C41.4257 19.5485 40.833 20.5235 40.4531 21.5882C40.0733 22.6529 39.9143 23.7847 39.986 24.9137V37.7407H36.3693V24.9137C36.2838 23.2977 36.5262 21.6811 37.0817 20.1625C37.6371 18.6439 38.494 17.255 39.6001 16.0807C40.7062 14.9064 42.0383 13.9711 43.5152 13.332C44.9921 12.6929 46.5829 12.3633 48.1904 12.3633C49.798 12.3633 51.3887 12.6929 52.8656 13.332C54.3425 13.9711 55.6746 14.9064 56.7807 16.0807C57.8868 17.255 58.7437 18.6439 59.2992 20.1625C59.8547 21.6811 60.097 23.2977 60.0116 24.9137V24.9137Z" fill="#EBEBEB"/>
<path d="M36.3853 28.251L39.9852 28.3858V37.7406H36.3853V28.251Z" fill="#C7C7C7"/>
<path d="M60.0115 29.2113V37.7401H56.4116V29.0596L60.0115 29.2113Z" fill="#C7C7C7"/>
<path d="M64.6328 32.9873H31.7646V60.4448H64.6328V32.9873Z" fill="#7875FC"/>
<path d="M49.5816 46.5388L50.9545 53.0956H45.111L46.5007 46.5388C45.961 46.2029 45.5449 45.6988 45.3158 45.1031C45.0867 44.5074 45.057 43.8527 45.2314 43.2385C45.4057 42.6243 45.7745 42.0841 46.2816 41.7002C46.7888 41.3163 47.4066 41.1095 48.0411 41.1113C48.6757 41.1095 49.2935 41.3163 49.8006 41.7002C50.3078 42.0841 50.6765 42.6243 50.8509 43.2385C51.0252 43.8527 50.9956 44.5074 50.7665 45.1031C50.5373 45.6988 50.1213 46.2029 49.5816 46.5388V46.5388Z" fill="#152946"/>
</svg>
