<svg width="25" height="24" viewBox="0 0 25 24" fill="none" xmlns="http://www.w3.org/2000/svg">
<rect width="25" height="24" rx="28" fill="#304FFE" fill-opacity="0.5"/>
<path d="M34.4831 29.5834C34.404 29.6646 34.1053 30.0118 33.8271 30.2974C32.1959 32.0936 27.9407 35.0336 25.7135 35.931C25.3753 36.0752 24.5201 36.3804 24.0632 36.4C23.6254 36.4 23.2081 36.2992 22.8098 36.0948C22.3134 35.8092 21.9151 35.3598 21.6969 34.8292C21.5565 34.461 21.3382 33.3592 21.3382 33.3396C21.12 32.1342 21 30.1756 21 28.0112C21 25.949 21.12 24.0702 21.2987 22.8466C21.3191 22.827 21.5374 21.4578 21.776 20.9888C22.2138 20.132 23.069 19.6 23.9841 19.6H24.0632C24.6592 19.621 25.9126 20.153 25.9126 20.1726C28.0198 21.0714 32.1768 23.8672 33.8475 25.725C33.8475 25.725 34.3181 26.2024 34.5226 26.5006C34.8418 26.929 35 27.4596 35 27.9902C35 28.5824 34.8213 29.134 34.4831 29.5834Z" fill="white"/>
</svg>
