<svg width="18" height="18" viewBox="0 0 18 18" fill="none" xmlns="http://www.w3.org/2000/svg">
<mask id="mask0_443_10256" style="mask-type:alpha" maskUnits="userSpaceOnUse" x="1" y="1" width="16" height="16">
<path fill-rule="evenodd" clip-rule="evenodd" d="M9 1.5C4.86 1.5 1.5 4.86 1.5 9C1.5 13.14 4.86 16.5 9 16.5C13.14 16.5 16.5 13.14 16.5 9C16.5 4.86 13.14 1.5 9 1.5ZM8.1 11.925L11.6025 9.3C11.805 9.15 11.805 8.85 11.6025 8.7L8.1 6.075C7.8525 5.8875 7.5 6.0675 7.5 6.375V11.625C7.5 11.9325 7.8525 12.1125 8.1 11.925ZM3 9C3 12.3075 5.6925 15 9 15C12.3075 15 15 12.3075 15 9C15 5.6925 12.3075 3 9 3C5.6925 3 3 5.6925 3 9Z" fill="#FFFFFFFF"/>
</mask>
<g mask="url(#mask0_443_10256)">
<rect width="18" height="18" fill="#FFFFFFFF"/>
</g>
</svg>
