<svg width="18" height="18" viewBox="0 0 18 18" fill="none" xmlns="http://www.w3.org/2000/svg">
<mask id="mask0_443_10252" style="mask-type:alpha" maskUnits="userSpaceOnUse" x="3" y="1" width="12" height="16">
<path d="M8.96999 4.23183V2.13933C8.96999 1.80183 8.56499 1.63683 8.33249 1.87683L5.48249 4.71933C5.33249 4.86933 5.33249 5.10183 5.48249 5.25183L8.32499 8.09433C8.56499 8.32683 8.96999 8.16183 8.96999 7.82433V5.73183C11.7675 5.73183 13.98 8.29683 13.365 11.1993C13.0125 12.9018 11.6325 14.2743 9.93749 14.6268C7.25999 15.1893 4.87499 13.3518 4.51499 10.8693C4.46249 10.5093 4.14749 10.2318 3.77999 10.2318C3.32999 10.2318 2.96999 10.6293 3.02999 11.0793C3.49499 14.3718 6.62999 16.8093 10.1775 16.1193C12.5175 15.6618 14.4 13.7793 14.8575 11.4393C15.6 7.59183 12.675 4.23183 8.96999 4.23183Z" fill="#FFFFFFFF"/>
</mask>
<g mask="url(#mask0_443_10252)">
<rect width="18" height="18" fill="#FFFFFFFF"/>
</g>
</svg>
