<svg xmlns="http://www.w3.org/2000/svg" viewBox="0 0 64 64" id="applicant"><path fill="#010101" d="M35.23 22.12c0 3.11 2.53 5.64 5.64 5.64s5.64-2.53 5.64-5.64-2.53-5.64-5.64-5.64-5.64 2.53-5.64 5.64zm9.34 0c0 2.04-1.66 3.7-3.7 3.7s-3.7-1.66-3.7-3.7 1.66-3.7 3.7-3.7 3.7 1.66 3.7 3.7zM12.41 35.83v.26c-2.13.75-3.66 2.77-3.66 5.15 0 3.01 2.45 5.47 5.47 5.47 3.01 0 5.47-2.45 5.47-5.47v-.09h5.62c.18 3.54 3.11 6.36 6.7 6.36s6.51-2.82 6.7-6.36h4.72v.09c0 3.17 2.58 5.76 5.76 5.76 3.17 0 5.76-2.58 5.76-5.76 0-2.31-1.37-4.3-3.34-5.22v-.2c0-4.16-3.39-7.55-7.56-7.55h-.63c-.35 0-.68.19-.85.5l-1.67 3.04-1.66-3.04c-.17-.31-.5-.5-.85-.5h-.64c-2.23 0-4.31 1-5.72 2.65a7.535 7.535 0 0 0-5.72-2.65h-.63c-.35 0-.68.19-.85.5l-1.67 3.04-1.66-3.04c-.17-.31-.5-.5-.85-.5h-.64c-4.21.01-7.6 3.4-7.6 7.56zm1.81 8.95a3.53 3.53 0 1 1-.001-7.059 3.53 3.53 0 0 1 .001 7.059zm38.77-3.53a3.82 3.82 0 1 1-7.64 0 3.82 3.82 0 0 1 7.64 0zm-20.14-8.18a5.575 5.575 0 0 1 4.87-2.85h.07l2.24 4.09a.972.972 0 0 0 1.7 0l2.24-4.09h.06c2.99 0 5.44 2.35 5.61 5.29a5.751 5.751 0 0 0-5.84 3.71h-5.27a6.73 6.73 0 0 0-6.14-5.11c.1-.36.26-.71.46-1.04zM32 36.03c2.63 0 4.78 2.14 4.78 4.78 0 2.63-2.14 4.78-4.78 4.78s-4.78-2.14-4.78-4.78 2.15-4.78 4.78-4.78zm-12.04-5.81h.07l2.24 4.09a.972.972 0 0 0 1.7 0l2.24-4.09h.06c1.85 0 3.57.92 4.61 2.43-.25.53-.44 1.09-.57 1.66a6.72 6.72 0 0 0-4.83 4.91H19.3a5.465 5.465 0 0 0-4.94-3.43 5.604 5.604 0 0 1 5.6-5.57zm-2.48-8.1c0 3.11 2.53 5.64 5.64 5.64s5.64-2.53 5.64-5.64-2.53-5.64-5.64-5.64-5.64 2.53-5.64 5.64zm9.34 0c0 2.04-1.66 3.7-3.7 3.7s-3.7-1.66-3.7-3.7 1.66-3.7 3.7-3.7 3.7 1.66 3.7 3.7z"></path><path fill="#010101" d="M3.88 54.45v4.2c0 .54.43.97.97.97h14.2v3.42c0 .54.43.97.97.97h23.96c.54 0 .97-.43.97-.97v-2.3h14.2c.54 0 .97-.43.97-.97V55.3c0-4.25-3.46-7.71-7.72-7.71h-.65c-.35 0-.68.19-.85.5l-1.73 3.16-1.73-3.16c-.17-.31-.5-.5-.85-.5h-.65c-2.08 0-4.03.82-5.47 2.28a9.041 9.041 0 0 0-4.58-1.26h-.79c-.35 0-.68.19-.85.5L32 53.22l-2.24-4.11c-.17-.31-.5-.5-.85-.5h-.79c-1.84 0-3.55.55-4.99 1.5a7.298 7.298 0 0 0-5.87-2.97h-.62c-.35 0-.68.19-.85.5l-1.57 2.88-1.57-2.87a.981.981 0 0 0-.85-.51h-.62c-4.02 0-7.3 3.28-7.3 7.31zm42.06-4.93h.08l2.31 4.21a.972.972 0 0 0 1.7 0l2.3-4.21h.08c3.19 0 5.78 2.59 5.78 5.77v3.5H44.95v-1.12c0-2.62-1.12-4.97-2.9-6.63a5.702 5.702 0 0 1 3.89-1.52zm-17.82 1.03h.21l2.82 5.16c.34.62 1.36.62 1.7 0l2.82-5.16h.21c3.93 0 7.13 3.2 7.13 7.12v4.39H20.99v-4.39c0-3.93 3.2-7.12 7.13-7.12zm-16.93-1.47 2.19 3.93c.17.31.5.51.85.51s.68-.19.85-.5l2.14-3.93h.04c1.76 0 3.38.85 4.38 2.26a9.038 9.038 0 0 0-2.59 6.33H5.82v-3.23c0-2.96 2.41-5.37 5.37-5.37zm13.3-41.57c0 4.14 3.37 7.51 7.51 7.51s7.51-3.37 7.51-7.51S36.14 0 32 0s-7.51 3.37-7.51 7.51zm13.08 0c0 3.07-2.5 5.57-5.57 5.57s-5.57-2.5-5.57-5.57 2.5-5.57 5.57-5.57 5.57 2.5 5.57 5.57z"></path><path fill="#010101" d="M30.19 7.37a.966.966 0 0 0-1.37-.03c-.39.37-.4.98-.03 1.37l1.29 1.35c.18.19.43.3.69.3h.01c.26 0 .5-.1.69-.28l3.74-3.74c.38-.38.38-.99 0-1.37a.966.966 0 0 0-1.37 0L30.79 8l-.6-.63z"></path></svg>