<svg width="24" height="25" viewBox="0 0 24 25" fill="none" xmlns="http://www.w3.org/2000/svg">
<path d="M18 22.8107C19.6569 22.8107 21 21.4363 21 19.741C21 18.0457 19.6569 16.6714 18 16.6714C16.3431 16.6714 15 18.0457 15 19.741C15 21.4363 16.3431 22.8107 18 22.8107Z" fill="#152946"/>
<path d="M6 15.6481C7.65685 15.6481 9 14.2737 9 12.5784C9 10.8831 7.65685 9.50879 6 9.50879C4.34315 9.50879 3 10.8831 3 12.5784C3 14.2737 4.34315 15.6481 6 15.6481Z" fill="#152946"/>
<path d="M8.58997 14.1235L15.42 18.1959" stroke="#152946" stroke-width="2" stroke-linecap="round" stroke-linejoin="round"/>
<path d="M18 8.48546C19.6569 8.48546 21 7.11114 21 5.41582C21 3.72051 19.6569 2.34619 18 2.34619C16.3431 2.34619 15 3.72051 15 5.41582C15 7.11114 16.3431 8.48546 18 8.48546Z" fill="#152946"/>
<path d="M15.41 6.96094L8.58997 11.0333" stroke="#152946" stroke-width="2" stroke-linecap="round" stroke-linejoin="round"/>
</svg>
