<svg width="16" height="16" viewBox="0 0 16 16" fill="none" xmlns="http://www.w3.org/2000/svg">
<path d="M11.9456 9.54699C11.7729 9.71433 11.6936 9.95633 11.7329 10.1937L12.3256 13.4737C12.3756 13.7517 12.2583 14.033 12.0256 14.1937C11.7976 14.3603 11.4943 14.3803 11.2456 14.247L8.29292 12.707C8.19026 12.6523 8.07626 12.623 7.95959 12.6197H7.77892C7.71626 12.629 7.65493 12.649 7.59893 12.6797L4.64559 14.227C4.49959 14.3003 4.33426 14.3263 4.17226 14.3003C3.77759 14.2257 3.51426 13.8497 3.57893 13.453L4.17226 10.173C4.21159 9.93366 4.13226 9.69033 3.95959 9.52033L1.55226 7.18699C1.35093 6.99166 1.28093 6.69833 1.37293 6.43366C1.46226 6.16966 1.69026 5.97699 1.96559 5.93366L5.27892 5.45299C5.53093 5.42699 5.75226 5.27366 5.86559 5.04699L7.32559 2.05366C7.36026 1.98699 7.40493 1.92566 7.45893 1.87366L7.51892 1.82699C7.55026 1.79233 7.58626 1.76366 7.62626 1.74033L7.69893 1.71366L7.81226 1.66699H8.09293C8.34359 1.69299 8.56426 1.84299 8.67959 2.06699L10.1589 5.04699C10.2656 5.26499 10.4729 5.41633 10.7123 5.45299L14.0256 5.93366C14.3056 5.97366 14.5396 6.16699 14.6323 6.43366C14.7196 6.70099 14.6443 6.99433 14.4389 7.18699L11.9456 9.54699Z" fill="#107AF6"/>
</svg>
