<svg width="169" height="174" viewBox="0 0 169 174" fill="none" xmlns="http://www.w3.org/2000/svg">
<path d="M7.79402 110.24C10.7622 109.683 12.7167 106.826 12.1596 103.857C11.6026 100.889 8.74479 98.9347 5.77665 99.4918C2.8085 100.049 0.853949 102.907 1.41103 105.875C1.96811 108.843 4.82588 110.797 7.79402 110.24Z" stroke="#689EFB" stroke-width="2.00518" stroke-linecap="round" stroke-linejoin="round"/>
<path d="M156.388 90.3555C156.313 90.8306 156.098 91.2726 155.772 91.6259C155.445 91.9791 155.022 92.2276 154.554 92.3399C154.086 92.4523 153.596 92.4234 153.145 92.257C152.693 92.0906 152.302 91.7941 152.019 91.405C151.736 91.0159 151.575 90.5517 151.557 90.0712C151.538 89.5906 151.662 89.1152 151.913 88.7052C152.164 88.2952 152.532 87.9689 152.969 87.7676C153.405 87.5663 153.892 87.4991 154.367 87.5745C155.003 87.6759 155.574 88.0256 155.953 88.547C156.331 89.0685 156.488 89.7189 156.388 90.3555V90.3555Z" stroke="#8DE2EF" stroke-width="2.00518" stroke-linecap="round" stroke-linejoin="round"/>
<path d="M46.7658 47.236C42.9746 49.7041 37.9423 50.514 34.685 46.7913C31.0299 42.6195 33.9574 36.7432 36.4043 36.7848C38.2293 36.8155 40.8928 38.9633 38.6138 41.8876C36.3348 44.8119 31.3552 45.3485 27.9891 43.7137C24.6229 42.0788 23.8047 37.859 23.9431 35.4256" stroke="#94C7D4" stroke-width="2.00518" stroke-linecap="round" stroke-linejoin="round"/>
<path d="M125.185 170.31C121.717 170.829 119.438 169.273 120.118 167.466C120.797 165.659 120.847 163.298 116.875 163.1C112.904 162.902 111.306 161.516 112.402 159.221C113.497 156.927 111.808 155.811 108.794 155.951" stroke="#FFA18C" stroke-width="2.00518" stroke-linecap="round" stroke-linejoin="round"/>
<ellipse cx="85" cy="93.5" rx="56" ry="56.5" fill="#7875FC"/>
<path d="M150.562 102.385C150.492 102.083 150.363 101.798 150.18 101.547C149.998 101.296 149.766 101.085 149.5 100.926C149.234 100.767 148.938 100.663 148.631 100.622C148.323 100.58 148.011 100.601 147.712 100.683C147.105 100.882 146.598 101.307 146.296 101.87C145.995 102.433 145.922 103.091 146.093 103.706C146.161 104.009 146.291 104.294 146.473 104.545C146.656 104.796 146.887 105.008 147.154 105.167C147.42 105.326 147.716 105.43 148.023 105.471C148.331 105.513 148.644 105.491 148.943 105.409C149.55 105.21 150.057 104.785 150.358 104.221C150.66 103.658 150.733 103.001 150.562 102.385Z" fill="#F89F93"/>
<path d="M148.56 103.055C150.963 102.871 151.289 125.976 151.289 125.976C151.289 125.976 149.718 126.742 148.952 126.555C148.186 126.368 147.822 123.244 147.822 123.244L147.714 126.514C147.714 126.514 145.086 126.593 144.178 125.91C144.178 125.91 144.764 103.339 148.56 103.055Z" fill="#F89F93"/>
<path d="M130.877 46.4509C130.877 46.4509 133.399 60.1828 130.395 60.2909C127.39 60.3991 120.861 54.9267 109.065 57.1818C97.2686 59.437 82.9941 63.7333 72.499 48.212C62.0038 32.6908 81.5753 25.8292 81.5753 25.8292L130.878 46.4641L130.877 46.4509Z" fill="#152946"/>
<path d="M100.721 50.2426L167.304 53.7479L168.598 50.7522C143.188 33.1271 128.942 23.2454 103.533 5.62027L38.9884 1.13308e-05L37.8304 2.68012L100.721 50.2426Z" fill="#4285FA"/>
<path d="M149.429 101.356L149.776 54.2339C150.016 52.1358 149.683 50.0119 148.814 48.0874C147.945 46.1628 146.571 44.5093 144.839 43.3019L115.926 23.1924C115.776 23.0856 115.606 23.0098 115.426 22.9693C115.246 22.9289 115.06 22.9247 114.879 22.957C114.698 22.9893 114.524 23.0574 114.37 23.1573C114.215 23.2573 114.082 23.3871 113.977 23.5391C113.924 23.6144 113.887 23.6996 113.867 23.7896C113.847 23.8796 113.845 23.9727 113.861 24.0634C113.878 24.1541 113.912 24.2406 113.962 24.3179C114.013 24.3951 114.078 24.4616 114.154 24.5134L144.842 45.8468C146.001 46.6519 146.92 47.756 147.501 49.0418C148.082 50.3275 148.304 51.7468 148.143 53.1486L147.741 101.9L149.429 101.356Z" fill="#F89F93"/>
<path fill-rule="evenodd" clip-rule="evenodd" d="M118.897 80.0921C120.368 81.5483 120.368 83.9093 118.897 85.3655L82.0032 121.908C80.533 123.364 78.1493 123.364 76.6791 121.908L57.1027 102.518C55.6324 101.062 55.6324 98.7009 57.1027 97.2447C58.5729 95.7885 60.9565 95.7885 62.4268 97.2447L79.3412 113.998L113.573 80.0921C115.043 78.636 117.427 78.636 118.897 80.0921Z" fill="#8DE2EF"/>
</svg>
