
<svg version="1.0" xmlns="http://www.w3.org/2000/svg"
 width="1920.000000pt" height="1920.000000pt" viewBox="0 0 1920.000000 1920.000000"
 preserveAspectRatio="xMidYMid meet">

<g transform="translate(0.000000,1920.000000) scale(0.100000,-0.100000)"
fill="#000000" stroke="none">
<path d="M7196 16948 c-67 -9 -128 -42 -176 -94 -54 -58 -79 -117 -87 -199
l-6 -65 -61 0 c-178 0 -324 -92 -400 -250 l-31 -65 0 -405 0 -405 33 -68 c40
-81 111 -156 180 -191 114 -58 77 -56 1194 -56 l1027 0 63 -44 c182 -126 396
-186 668 -186 272 0 486 60 668 186 l63 44 1024 0 c721 0 1040 3 1077 11 175
37 313 184 338 360 13 85 13 628 0 704 -35 213 -216 365 -436 365 l-61 0 -6
65 c-4 36 -16 87 -27 113 -40 91 -139 169 -226 178 -73 8 -4763 10 -4818 2z
m-261 -705 c19 -114 101 -221 200 -259 49 -19 108 -19 2430 -22 1750 -2 2396
0 2440 8 77 15 120 38 172 92 46 47 77 110 88 176 l7 42 45 0 c25 0 60 -7 79
-16 63 -30 64 -37 64 -400 l0 -326 -34 -34 -34 -34 -1092 0 -1092 0 -64 -60
c-76 -71 -174 -120 -299 -152 -129 -32 -361 -32 -490 0 -125 32 -223 81 -299
152 l-64 60 -1091 0 -1091 0 -32 29 -33 29 -3 329 c-3 292 -1 331 14 360 21
40 66 62 126 63 47 0 47 0 53 -37z"/>
<path d="M4193 16489 c-213 -36 -389 -193 -452 -404 l-21 -70 2 -6895 3 -6895
29 -70 c73 -178 214 -304 393 -350 50 -13 707 -15 5453 -15 4809 0 5402 2
5454 15 196 51 360 215 411 411 13 52 15 797 15 6931 l0 6872 -25 78 c-56 178
-191 313 -375 376 l-65 22 -1087 3 c-599 1 -1088 -1 -1088 -5 0 -5 7 -19 16
-31 9 -13 29 -60 46 -105 27 -73 31 -98 35 -229 l6 -148 1058 0 1059 0 0
-6840 0 -6840 -5460 0 -5460 0 0 6840 0 6840 1059 0 1058 0 6 138 c6 151 22
222 67 312 16 33 30 62 30 65 0 9 -2112 3 -2167 -6z"/>
<path d="M5760 12445 l0 -1135 1140 0 1140 0 0 743 0 742 160 160 c88 88 160
164 160 169 0 5 -72 81 -160 169 l-160 160 0 64 0 63 -1140 0 -1140 0 0 -1135z
m1573 463 l-553 -553 -245 245 -245 245 -198 -198 c-108 -108 -201 -197 -205
-197 -4 0 -7 227 -7 505 l0 505 1002 0 1003 0 -552 -552z m587 -863 l0 -615
-1020 0 -1020 0 0 496 c0 274 4 494 9 492 4 -1 200 -191 434 -421 233 -230
435 -426 447 -434 22 -15 34 -4 579 541 306 306 559 556 563 556 5 0 8 -277 8
-615z"/>
<path d="M9100 13250 l0 -140 2083 2 2082 3 3 138 3 137 -2086 0 -2085 0 0
-140z"/>
<path d="M9100 12440 l0 -140 2083 2 2082 3 3 138 3 137 -2086 0 -2085 0 0
-140z"/>
<path d="M9107 11773 c-4 -3 -7 -66 -7 -140 l0 -133 1870 0 1870 0 0 140 0
140 -1863 0 c-1025 0 -1867 -3 -1870 -7z"/>
<path d="M5760 9147 c0 -624 2 -1136 4 -1138 2 -2 515 -3 1140 -1 l1136 2 0
742 0 743 162 162 163 163 -162 163 -162 162 -3 65 -3 65 -1137 3 -1138 2 0
-1133z m1573 461 l-553 -553 -245 245 -245 245 -198 -198 c-108 -108 -201
-197 -205 -197 -4 0 -7 227 -7 505 l0 505 1002 0 1003 0 -552 -552z m585 -865
l-3 -618 -1015 0 -1015 0 -3 498 c-1 290 2 497 7 495 5 -1 208 -200 451 -441
l443 -439 561 561 c309 309 564 561 569 561 4 0 6 -278 5 -617z"/>
<path d="M9100 9950 l0 -140 2085 0 2085 0 0 140 0 140 -2085 0 -2085 0 0
-140z"/>
<path d="M9100 9140 l0 -140 2083 2 2082 3 3 138 3 137 -2086 0 -2085 0 0
-140z"/>
<path d="M9102 8333 l3 -138 1865 0 1865 0 3 138 3 137 -1871 0 -1871 0 3
-137z"/>
<path d="M5765 6968 c-3 -7 -4 -519 -3 -1138 l3 -1125 1135 0 1135 0 0 1135 0
1135 -1133 3 c-901 2 -1134 0 -1137 -10z m2153 -1125 l-3 -1018 -1017 -3
-1018 -2 0 1020 0 1020 1020 0 1020 0 -2 -1017z"/>
<path d="M9100 6650 l0 -140 2085 0 2085 0 0 140 0 140 -2085 0 -2085 0 0
-140z"/>
<path d="M9100 5840 l0 -140 2085 0 2085 0 0 140 0 140 -2085 0 -2085 0 0
-140z"/>
<path d="M9100 5030 l0 -140 1870 0 1870 0 0 140 0 140 -1870 0 -1870 0 0
-140z"/>
</g>
</svg>
