<svg width="24" height="24" viewBox="0 0 24 24" fill="none" xmlns="http://www.w3.org/2000/svg">
<mask id="mask0_407_12474" style="mask-type:alpha" maskUnits="userSpaceOnUse" x="3" y="6" width="18" height="12">
<path fill-rule="evenodd" clip-rule="evenodd" d="M3.29297 7.16205C3.29297 7.69423 3.72839 8.12964 4.26056 8.12964H19.742C20.2742 8.12964 20.7096 7.69423 20.7096 7.16205C20.7096 6.62987 20.2742 6.19446 19.742 6.19446H4.26056C3.72839 6.19446 3.29297 6.62987 3.29297 7.16205ZM11.0351 17.8055H12.9703C13.5024 17.8055 13.9379 17.3701 13.9379 16.8379C13.9379 16.3058 13.5024 15.8703 12.9703 15.8703H11.0351C10.5029 15.8703 10.0675 16.3058 10.0675 16.8379C10.0675 17.3701 10.5029 17.8055 11.0351 17.8055ZM16.8393 12.9676H7.16334C6.63116 12.9676 6.19575 12.5322 6.19575 12.0001C6.19575 11.4679 6.63116 11.0325 7.16334 11.0325H16.8393C17.3714 11.0325 17.8069 11.4679 17.8069 12.0001C17.8069 12.5322 17.3714 12.9676 16.8393 12.9676Z" fill="#ffffff"/>
</mask>
<g mask="url(#mask0_407_12474)">
<rect x="0.390625" y="0.388916" width="23.2222" height="23.2222" fill="#5F5CF0"/>
</g>
</svg>
