<svg width="16" height="16" viewBox="0 0 16 16" fill="none" xmlns="http://www.w3.org/2000/svg">
<path fill-rule="evenodd" clip-rule="evenodd" d="M9.47482 5.17494C9.47482 6.93745 8.03254 8.34988 6.2328 8.34988C4.43371 8.34988 2.99078 6.93745 2.99078 5.17494C2.99078 3.41243 4.43371 2 6.2328 2C8.03254 2 9.47482 3.41243 9.47482 5.17494ZM1.33325 11.945C1.33325 10.3135 3.59027 9.90527 6.23281 9.90527C8.8897 9.90527 11.1324 10.3275 11.1324 11.9604C11.1324 13.5919 8.87534 14.0001 6.23281 14.0001C3.57592 14.0001 1.33325 13.5779 1.33325 11.945ZM10.7822 5.23249C10.7822 6.13003 10.5069 6.96753 10.0242 7.6632C9.97399 7.73475 10.0183 7.83121 10.1058 7.84654C10.2271 7.86635 10.3517 7.87848 10.4789 7.88104C11.7444 7.91362 12.8801 7.11573 13.1938 5.91411C13.6589 4.13116 12.2943 2.53027 10.5559 2.53027C10.3673 2.53027 10.1866 2.54944 10.0105 2.58457C9.98638 2.58968 9.96029 2.60118 9.94724 2.62162C9.93028 2.64782 9.94268 2.68167 9.95964 2.70403C10.4821 3.42143 10.7822 4.2947 10.7822 5.23249ZM12.8781 9.13496C13.7287 9.29786 14.2877 9.62941 14.5193 10.113C14.7156 10.5091 14.7156 10.969 14.5193 11.3651C14.1651 12.1138 13.0222 12.3546 12.578 12.4166C12.486 12.4294 12.4123 12.3527 12.4221 12.262C12.6491 10.1871 10.8441 9.20331 10.3771 8.97717C10.3575 8.96631 10.353 8.95098 10.3549 8.94076C10.3562 8.93437 10.3647 8.92415 10.3797 8.92223C11.3901 8.90307 12.4769 9.03914 12.8781 9.13496Z" fill="#4285FA"/>
</svg>
