<svg width="48" height="48" viewBox="0 0 48 48" fill="none" xmlns="http://www.w3.org/2000/svg">
<rect width="48" height="48" rx="16" fill="#F89F93"/>
<path d="M36.7971 21.025C36.6078 20.6062 36.3972 20.1973 36.166 19.8L33.1875 27.8909C33.0739 28.1932 32.9087 28.4734 32.6992 28.7192C33.4987 28.6401 34.2691 28.3773 34.9504 27.9515C35.6317 27.5257 36.2054 26.9482 36.6268 26.2642C37.0482 25.5802 37.306 24.8081 37.3799 24.0081C37.4539 23.2081 37.3421 22.4018 37.0532 21.6521C36.9739 21.4386 36.8887 21.231 36.7971 21.025V21.025Z" fill="#F8F9FA"/>
<path d="M19.7003 13.7334C17.9623 14.352 16.3671 15.315 15.01 16.5646C13.6529 17.8142 12.5619 19.3248 11.8023 21.006C11.0427 22.6871 10.6302 24.5043 10.5893 26.3486C10.5484 28.1929 10.8801 30.0266 11.5645 31.7397C11.5826 31.7765 11.5949 31.8126 11.613 31.8494C11.9766 32.7177 12.5685 33.4713 13.326 34.0302C14.0835 34.5891 14.9782 34.9324 15.9151 35.0237C16.852 35.115 17.7962 34.9509 18.6473 34.5487C19.4984 34.1465 20.2248 33.5213 20.7491 32.7395C21.8459 31.0875 23.4203 29.8091 25.2624 29.075C25.3207 29.0517 25.379 29.0342 25.4374 29.0126C25.6448 28.5342 25.9534 28.1063 26.342 27.7586C26.7306 27.4109 27.19 27.1515 27.6885 26.9984C27.6763 26.5591 27.7664 26.1229 27.9515 25.7244L32.5599 15.7453C30.7497 14.3731 28.6276 13.4711 26.3834 13.12C24.1393 12.7689 21.8431 12.9796 19.7003 13.7334V13.7334ZM16.1245 28.9584C15.663 28.9584 15.2118 28.8215 14.8281 28.5651C14.4444 28.3087 14.1453 27.9443 13.9687 27.518C13.7921 27.0916 13.7459 26.6224 13.836 26.1698C13.926 25.7172 14.1482 25.3014 14.4745 24.9751C14.8009 24.6488 15.2166 24.4266 15.6693 24.3365C16.1219 24.2465 16.591 24.2927 17.0174 24.4693C17.4438 24.6459 17.8082 24.945 18.0646 25.3287C18.3209 25.7124 18.4578 26.1635 18.4578 26.625C18.4578 27.2439 18.212 27.8374 17.7744 28.2749C17.3368 28.7125 16.7433 28.9584 16.1245 28.9584ZM19.0411 22.25C18.5796 22.25 18.1285 22.1132 17.7448 21.8568C17.3611 21.6004 17.062 21.236 16.8854 20.8096C16.7088 20.3833 16.6626 19.9141 16.7526 19.4615C16.8427 19.0089 17.0649 18.5931 17.3912 18.2668C17.7175 17.9405 18.1333 17.7182 18.5859 17.6282C19.0385 17.5382 19.5077 17.5844 19.9341 17.761C20.3604 17.9376 20.7248 18.2367 20.9812 18.6204C21.2376 19.0041 21.3745 19.4552 21.3745 19.9167C21.3745 20.5355 21.1286 21.129 20.691 21.5666C20.2535 22.0042 19.66 22.25 19.0411 22.25ZM26.0411 20.2084C25.5796 20.2084 25.1285 20.0715 24.7448 19.8151C24.3611 19.5587 24.062 19.1943 23.8854 18.768C23.7088 18.3416 23.6626 17.8724 23.7526 17.4198C23.8427 16.9672 24.0649 16.5514 24.3912 16.2251C24.7175 15.8988 25.1333 15.6766 25.5859 15.5865C26.0385 15.4965 26.5077 15.5427 26.9341 15.7193C27.3604 15.8959 27.7248 16.195 27.9812 16.5787C28.2376 16.9624 28.3745 17.4135 28.3745 17.875C28.3745 18.4939 28.1286 19.0874 27.691 19.5249C27.2535 19.9625 26.66 20.2084 26.0411 20.2084Z" fill="#F8F9FA"/>
<path d="M36.5268 12.4215C36.268 12.314 35.9776 12.311 35.7166 12.413C35.4555 12.515 35.2442 12.7142 35.1268 12.9687L29.0112 26.2133C28.8704 26.5179 28.8248 26.858 28.8805 27.189C28.9362 27.52 29.0905 27.8265 29.3233 28.0683C28.7548 27.9349 28.1574 28.0078 27.6376 28.2739C27.1178 28.5401 26.7095 28.9822 26.4853 29.5214C25.5409 31.8022 27.0348 32.8026 26.0898 35.0834C27.1672 34.9631 28.1934 34.5597 29.0643 33.9142C29.9352 33.2687 30.6197 32.4042 31.0482 31.4084C31.2499 30.9181 31.2879 30.3758 31.1566 29.8621C31.0252 29.3484 30.7314 28.8909 30.319 28.5577C30.692 28.6058 31.0702 28.526 31.392 28.3313C31.7137 28.1367 31.96 27.8388 32.0906 27.4861L37.1306 13.7947C37.2263 13.5321 37.2169 13.2427 37.1044 12.9869C36.992 12.731 36.785 12.5285 36.5268 12.4215V12.4215Z" fill="#F8F9FA"/>
</svg>
