<svg width="48" height="48" viewBox="0 0 48 48" fill="none" xmlns="http://www.w3.org/2000/svg">
<rect width="48" height="48" rx="16" fill="#7875FC"/>
<path d="M25.3125 28.0469H22.6875C22.2331 28.0484 21.7917 28.199 21.4311 28.4756C21.0706 28.7522 20.8108 29.1396 20.6917 29.5781H19.4333C19.3142 29.1396 19.0544 28.7522 18.6939 28.4756C18.3333 28.199 17.8919 28.0484 17.4375 28.0469H14.8125C14.0296 28.0478 13.279 28.3592 12.7253 28.9128C12.1717 29.4665 11.8603 30.2171 11.8594 31V31.875C11.8603 32.6579 12.1717 33.4085 12.7253 33.9622C13.279 34.5158 14.0296 34.8272 14.8125 34.8281C16.04 34.8263 17.2182 34.345 18.0957 33.4868C18.9733 32.6286 19.4809 31.4615 19.5101 30.2344H20.6149C20.6441 31.4615 21.1517 32.6286 22.0293 33.4868C22.9068 34.345 24.085 34.8263 25.3125 34.8281C26.0954 34.8272 26.846 34.5158 27.3997 33.9622C27.9533 33.4085 28.2647 32.6579 28.2656 31.875V31C28.2647 30.2171 27.9533 29.4665 27.3997 28.9128C26.846 28.3592 26.0954 28.0478 25.3125 28.0469V28.0469Z" fill="#F8F9FA"/>
<path d="M31.7656 19.5156C31.7656 19.4286 31.7311 19.3451 31.6695 19.2836C31.608 19.2221 31.5245 19.1875 31.4375 19.1875H16.5625C16.4755 19.1875 16.392 19.2221 16.3305 19.2836C16.2689 19.3451 16.2344 19.4286 16.2344 19.5156V20.6094H31.7656V19.5156Z" fill="#F8F9FA"/>
<path d="M24.0007 11.8594C22.2126 11.8622 20.4955 12.5596 19.212 13.8044C17.9284 15.0492 17.1787 16.7441 17.1211 18.5312H30.8802C30.8226 16.7441 30.0729 15.0492 28.7893 13.8044C27.5058 12.5596 25.7887 11.8622 24.0007 11.8594V11.8594Z" fill="#F8F9FA"/>
<path d="M36.432 28.1019L33.8557 26.3843C33.92 26.7097 33.9526 27.0405 33.9531 27.3722V28.8772C34.1414 28.9533 34.2973 29.0925 34.3941 29.271C34.4909 29.4495 34.5227 29.6561 34.4839 29.8554C34.4451 30.0548 34.3382 30.2344 34.1815 30.3635C34.0248 30.4927 33.8281 30.5633 33.625 30.5633C33.4219 30.5633 33.2252 30.4927 33.0685 30.3635C32.9118 30.2344 32.8049 30.0548 32.7661 29.8554C32.7273 29.6561 32.7591 29.4495 32.8559 29.271C32.9527 29.0925 33.1086 28.9533 33.2969 28.8772V27.3722C33.2938 27.0829 33.2625 26.7947 33.2035 26.5116L30.818 28.1019C30.773 28.1318 30.7361 28.1724 30.7106 28.22C30.6851 28.2677 30.6718 28.3209 30.6719 28.3749V34.4999C30.6722 34.8189 30.7991 35.1247 31.0246 35.3503C31.2502 35.5758 31.556 35.7027 31.875 35.703H35.375C35.694 35.7027 35.9998 35.5758 36.2254 35.3503C36.4509 35.1247 36.5778 34.8189 36.5781 34.4999V28.3749C36.5782 28.3209 36.5649 28.2677 36.5394 28.22C36.5139 28.1724 36.477 28.1318 36.432 28.1019Z" fill="#F8F9FA"/>
<path d="M30.8539 23.4185C30.7761 23.3795 30.7169 23.3112 30.6894 23.2286C30.6619 23.146 30.6684 23.0559 30.7074 22.978C30.7463 22.9002 30.8146 22.841 30.8972 22.8135C30.9798 22.7861 31.07 22.7925 31.1478 22.8315C32.013 23.2622 32.7368 23.9315 33.2339 24.7602C34.9627 23.9374 36.1251 22.8758 36.4701 21.6848C36.4838 21.6357 36.4859 21.584 36.4763 21.5339C36.4667 21.4838 36.4456 21.4366 36.4148 21.396C36.3839 21.3554 36.344 21.3225 36.2983 21.2999C36.2525 21.2773 36.2022 21.2655 36.1512 21.2656H11.8506C11.7996 21.2655 11.7492 21.2773 11.7035 21.2999C11.6578 21.3225 11.6179 21.3554 11.587 21.396C11.5561 21.4366 11.535 21.4838 11.5254 21.5339C11.5158 21.584 11.518 21.6357 11.5317 21.6848C12.3317 24.4469 17.5206 26.5156 24.0009 26.5156C26.9451 26.5729 29.8732 26.0682 32.6284 25.0286C32.1967 24.3385 31.5826 23.7813 30.8539 23.4185V23.4185Z" fill="#F8F9FA"/>
<path d="M33.8083 26.352L33.8571 26.3845C33.7452 25.8111 33.5345 25.2615 33.2344 24.7603C33.0398 24.8528 32.838 24.9423 32.6289 25.0286C32.9097 25.4837 33.1049 25.9863 33.2048 26.5117L33.4443 26.352C33.4982 26.3161 33.5615 26.2969 33.6263 26.2969C33.6911 26.2969 33.7544 26.3161 33.8083 26.352Z" fill="#F8F9FA"/>
</svg>
