<svg width="48" height="48" viewBox="0 0 48 48" fill="none" xmlns="http://www.w3.org/2000/svg">
<rect width="48" height="48" rx="16" fill="#F89F93"/>
<g clip-path="url(#clip0_5711_12587)">
<path d="M28.3363 24.1169C28.2105 25.1445 27.7484 26.1239 26.9871 26.8852C26.0618 27.811 24.7684 28.2469 23.1442 28.1813C22.0051 28.1359 21.479 28.4339 21.3926 28.4881C21.0437 28.7938 20.6007 28.9611 20.1331 28.9611C19.6218 28.9611 19.1411 28.7621 18.7796 28.4006C18.1556 27.7766 18.055 26.8141 18.481 26.0807L18.7867 25.5962C18.8906 25.343 19.0311 24.8431 18.9983 24.0354C18.9333 22.4106 19.3691 21.1178 20.2944 20.1925C21.0524 19.4351 22.0215 18.9658 23.0693 18.8406C23.2175 18.128 23.5385 17.4614 24.0017 16.9014H13.0106C11.8031 16.9014 10.8203 17.8836 10.8203 19.0911V29.9515H33.6689V19.1676L30.8924 22.5703C30.2394 23.3682 29.3327 23.9113 28.3363 24.1169V24.1169Z" fill="#F8F9FA"/>
<path d="M10.8204 32.2923C10.8204 33.4993 11.8031 34.4814 13.0106 34.4814H19.2351V36.3594H17.8555C17.4024 36.3594 17.0351 36.7267 17.0351 37.1797C17.0351 37.6328 17.4024 38.0001 17.8555 38.0001H26.6336C27.0866 38.0001 27.4539 37.6328 27.4539 37.1797C27.4539 36.7267 27.0866 36.3594 26.6336 36.3594H25.2539V34.4814H31.4786C32.6861 34.4814 33.6689 33.4993 33.6689 32.2923V31.5923H10.8203V32.2923H10.8204Z" fill="#F8F9FA"/>
<path d="M19.9586 26.8345C19.9584 26.8346 19.9583 26.8348 19.9581 26.835C19.958 26.835 19.958 26.8351 19.9579 26.8352L19.9577 26.8354C19.9576 26.8355 19.9575 26.8356 19.9574 26.8357C19.9574 26.8359 19.9573 26.8359 19.9572 26.836L19.9571 26.836C19.9571 26.8361 19.9569 26.8362 19.9568 26.8363C19.9568 26.8363 19.9568 26.8363 19.9568 26.8363C19.9567 26.8364 19.9566 26.8365 19.9566 26.8366C19.9566 26.8366 19.9566 26.8366 19.9565 26.8367C19.9564 26.8367 19.9563 26.8368 19.9562 26.8369C19.9562 26.8369 19.9562 26.8369 19.9562 26.837L19.9559 26.8373C19.8522 26.9443 19.8533 27.1151 19.959 27.2209C20.0124 27.2742 20.0823 27.3009 20.1523 27.3009C20.2217 27.3009 20.291 27.2747 20.3442 27.2223C20.361 27.2064 21.1893 26.4406 23.2299 26.5227C24.378 26.5689 25.2582 26.2939 25.8465 25.7057C27.052 24.5002 27.052 22.5388 25.8465 21.3333C25.2626 20.7494 24.4862 20.4277 23.6603 20.4277C22.8345 20.4277 22.0581 20.7493 21.4741 21.3333C20.8859 21.9215 20.611 22.8019 20.6572 23.9499C20.7396 26.0016 19.9652 26.8277 19.959 26.8342C19.9588 26.8343 19.9587 26.8344 19.9586 26.8345V26.8345Z" fill="#F8F9FA"/>
<path d="M28.266 22.4305C28.8009 22.2703 29.2827 21.9531 29.642 21.5139L30.6901 20.2294L26.9562 16.4956L25.6771 17.5404C25.2369 17.8991 24.9186 18.3804 24.7578 18.9152C25.6033 19.1137 26.3787 19.5441 27.0082 20.1736C27.6524 20.8178 28.0719 21.6025 28.266 22.4305Z" fill="#F8F9FA"/>
<path d="M36.6906 10.4926C36.0797 9.88173 35.114 9.83305 34.4446 10.3799L28.2344 15.4524L31.7337 18.9516L36.8038 12.7381C37.3501 12.0692 37.3015 11.1034 36.6906 10.4926V10.4926Z" fill="#F8F9FA"/>
</g>
<defs>
<clipPath id="clip0_5711_12587">
<rect width="28" height="28" fill="white" transform="translate(10 10)"/>
</clipPath>
</defs>
</svg>
