<svg width="48" height="48" viewBox="0 0 48 48" fill="none" xmlns="http://www.w3.org/2000/svg">
<rect width="48" height="48" rx="16" fill="#43536B"/>
<path d="M35.5417 21.6253L24.6213 10.7032C23.9772 10.0608 22.9354 10.0684 22.2997 10.7024C21.6605 11.3433 21.6605 12.3839 22.2997 13.024L33.2218 23.9452C33.8616 24.5851 34.9018 24.5851 35.5417 23.9452C36.1833 23.3036 36.1833 22.2668 35.5417 21.6253Z" fill="#F8F9FA"/>
<path d="M21.491 14.5339L21.4088 14.946C20.8298 17.8421 19.4227 20.5935 17.5195 22.8235L23.4612 28.7651C25.6909 26.8623 28.4044 25.4174 31.3006 24.8377L31.7134 24.7555L21.491 14.5339Z" fill="#F8F9FA"/>
<path d="M16.4303 24.0542L12.3696 28.1141C11.4101 29.0736 11.4061 30.6313 12.3696 31.5948L14.6895 33.9148C15.649 34.8742 17.2067 34.8782 18.1702 33.9148L22.2306 29.8544L16.4303 24.0542ZM17.0103 30.4349C16.6899 30.7553 16.1707 30.7553 15.8503 30.4349C15.5299 30.1145 15.5299 29.5953 15.8503 29.2749L17.0103 28.1149C17.3307 27.7945 17.8499 27.7945 18.1703 28.1149C18.4907 28.4353 18.4907 28.9545 18.1703 29.2749L17.0103 30.4349Z" fill="#F8F9FA"/>
<path d="M25.6537 34.3512L26.7696 33.2353C27.7331 32.2719 27.73 30.7142 26.7696 29.7555L25.9408 28.926C25.4827 29.2338 25.0452 29.5681 24.6198 29.9249L25.6097 30.9162C25.9293 31.2342 25.9316 31.7518 25.6097 32.0754L24.4753 33.2097L22.8083 31.5946L20.4883 33.9147L24.2102 37.5212C24.8453 38.158 25.8881 38.1616 26.5293 37.5203C27.1694 36.8803 27.1694 35.8397 26.5293 35.1996L25.6537 34.3512Z" fill="#F8F9FA"/>
<path d="M28.9688 10C28.5153 10 28.1484 10.3669 28.1484 10.8203V12.4609C28.1484 12.9144 28.5153 13.2813 28.9688 13.2813C29.4222 13.2813 29.7891 12.9144 29.7891 12.4609V10.8203C29.7891 10.3669 29.4222 10 28.9688 10Z" fill="#F8F9FA"/>
<path d="M35.5313 16.5625H33.8906C33.4372 16.5625 33.0703 16.9294 33.0703 17.3828C33.0703 17.8362 33.4372 18.2031 33.8906 18.2031H35.5313C35.9847 18.2031 36.3516 17.8362 36.3516 17.3828C36.3516 16.9294 35.9847 16.5625 35.5313 16.5625Z" fill="#F8F9FA"/>
<path d="M34.4706 11.8809C34.1502 11.5605 33.631 11.5605 33.3106 11.8809L31.67 13.5216C31.3496 13.842 31.3496 14.3611 31.67 14.6815C31.9904 15.002 32.5096 15.002 32.83 14.6815L34.4706 13.0409C34.791 12.7205 34.791 12.2014 34.4706 11.8809Z" fill="#F8F9FA"/>
</svg>
