<svg width="48" height="48" viewBox="0 0 48 48" fill="none" xmlns="http://www.w3.org/2000/svg">
<rect width="48" height="48" rx="16" fill="#4285FA"/>
<path fill-rule="evenodd" clip-rule="evenodd" d="M30.3454 17.2758C30.392 17.3574 30.4737 17.4156 30.5787 17.4156C33.3787 17.4156 35.6654 19.6998 35.6654 22.4967V29.419C35.6654 32.2159 33.3787 34.5 30.5787 34.5H17.4187C14.607 34.5 12.332 32.2159 12.332 29.419V22.4967C12.332 19.6998 14.607 17.4156 17.4187 17.4156C17.512 17.4156 17.6054 17.369 17.6404 17.2758L17.7104 17.136C17.7506 17.0513 17.7919 16.9644 17.8338 16.8761C18.1322 16.2474 18.4624 15.5519 18.667 15.1432C19.2037 14.0943 20.1137 13.5117 21.2454 13.5H26.7404C27.872 13.5117 28.7937 14.0943 29.3304 15.1432C29.5141 15.5103 29.7941 16.1017 30.064 16.6717C30.1196 16.7892 30.1748 16.9059 30.2287 17.0194L30.3454 17.2758ZM29.4937 21.7508C29.4937 22.3335 29.9604 22.7997 30.5437 22.7997C31.127 22.7997 31.6054 22.3335 31.6054 21.7508C31.6054 21.1681 31.127 20.6903 30.5437 20.6903C29.9604 20.6903 29.4937 21.1681 29.4937 21.7508ZM21.9804 23.5572C22.5287 23.0094 23.2404 22.7181 23.9987 22.7181C24.757 22.7181 25.4687 23.0094 26.0054 23.5455C26.542 24.0816 26.8337 24.7925 26.8337 25.5499C26.822 27.1115 25.562 28.3818 23.9987 28.3818C23.2404 28.3818 22.5287 28.0905 21.992 27.5544C21.4554 27.0183 21.1637 26.3074 21.1637 25.5499V25.5383C21.152 24.8041 21.4437 24.0932 21.9804 23.5572ZM27.2304 28.7897C26.402 29.6171 25.2587 30.1299 23.9987 30.1299C22.7737 30.1299 21.6304 29.6521 20.7554 28.7897C19.892 27.9156 19.4137 26.7736 19.4137 25.5499C19.402 24.338 19.8804 23.1959 20.7437 22.3219C21.6187 21.4478 22.7737 20.97 23.9987 20.97C25.2237 20.97 26.3787 21.4478 27.242 22.3102C28.1054 23.1842 28.5837 24.338 28.5837 25.5499C28.572 26.8202 28.0587 27.9623 27.2304 28.7897Z" fill="#F8F9FA"/>
</svg>
