<svg width="48" height="48" viewBox="0 0 48 48" fill="none" xmlns="http://www.w3.org/2000/svg">
<rect width="48" height="48" rx="16" fill="#7875FC"/>
<path d="M31.9131 30.0814C31.5367 30.0826 31.1699 30.2002 30.863 30.4181C30.5562 30.636 30.3243 30.9436 30.1992 31.2985H28.8697V28.2559H27.6523V31.907C27.6523 31.987 27.668 32.0661 27.6986 32.14C27.7292 32.2138 27.774 32.2809 27.8305 32.3374C27.887 32.3939 27.9542 32.4388 28.028 32.4693C28.1019 32.4999 28.1811 32.5156 28.261 32.5156H30.1992C30.3114 32.8302 30.5079 33.108 30.7673 33.3185C31.0267 33.5291 31.339 33.6643 31.67 33.7094C32.0011 33.7546 32.3382 33.7079 32.6445 33.5744C32.9508 33.441 33.2145 33.2259 33.4068 32.9528C33.5991 32.6796 33.7127 32.3589 33.735 32.0256C33.7573 31.6923 33.6876 31.3593 33.5334 31.0629C33.3793 30.7666 33.1466 30.5183 32.8608 30.3452C32.5751 30.1721 32.2472 30.0809 31.9131 30.0814Z" fill="#F8F9FA"/>
<path d="M24.6066 34.4533V28.2559H23.3892V34.4533C22.9831 34.5968 22.6408 34.8793 22.4229 35.2507C22.2049 35.6222 22.1253 36.0587 22.1982 36.4832C22.271 36.9076 22.4916 37.2927 22.8209 37.5702C23.1503 37.8478 23.5672 38 23.9979 38C24.4287 38 24.8456 37.8478 25.1749 37.5702C25.5042 37.2927 25.7248 36.9076 25.7977 36.4832C25.8705 36.0587 25.7909 35.6222 25.573 35.2507C25.355 34.8793 25.0127 34.5968 24.6066 34.4533Z" fill="white"/>
<path d="M31.3763 14.2638C30.5447 12.8204 29.3078 11.6527 27.8189 10.9052C26.3299 10.1577 24.6544 9.86342 22.9997 10.0587C21.3451 10.254 19.7842 10.9303 18.5103 12.0039C17.2364 13.0774 16.3055 14.501 15.833 16.0984C15.7123 16.0896 15.594 16.0853 15.4781 16.0853C14.0252 16.0853 12.6318 16.6623 11.6045 17.6894C10.5772 18.7165 10 20.1095 10 21.562C10 23.0145 10.5772 24.4076 11.6045 25.4347C12.6318 26.4618 14.0252 27.0388 15.4781 27.0388H31.9125C31.9694 27.0387 32.0261 27.0303 32.0807 27.0138C33.7501 26.8912 35.3047 26.1183 36.4099 24.8613C37.5151 23.6044 38.0826 21.964 37.9903 20.293C37.898 18.6221 37.1532 17.0541 35.9163 15.9265C34.6793 14.799 33.0491 14.2019 31.3763 14.2638Z" fill="white"/>
<path d="M19.1311 31.298H17.8015C17.658 30.892 17.3754 30.5498 17.0039 30.3319C16.6323 30.114 16.1957 30.0344 15.7712 30.1072C15.3466 30.1801 14.9615 30.4006 14.6838 30.7299C14.4062 31.0591 14.2539 31.4759 14.2539 31.9065C14.2539 32.3372 14.4062 32.754 14.6838 33.0832C14.9615 33.4125 15.3466 33.633 15.7712 33.7058C16.1957 33.7786 16.6323 33.6991 17.0039 33.4812C17.3754 33.2633 17.658 32.9211 17.8015 32.5151H19.7398C19.8197 32.5151 19.8989 32.4994 19.9728 32.4688C20.0466 32.4383 20.1137 32.3935 20.1703 32.3369C20.2268 32.2804 20.2716 32.2133 20.3022 32.1395C20.3328 32.0656 20.3485 31.9865 20.3484 31.9065V28.2554H19.1311V31.298Z" fill="white"/>
</svg>
