<svg width="48" height="48" viewBox="0 0 48 48" fill="none" xmlns="http://www.w3.org/2000/svg">
<rect width="48" height="48" rx="16" fill="#4285FA"/>
<path d="M37.6761 29.0283L33.8435 26.7997L37.6761 24.5659C37.7731 24.5089 37.8536 24.4272 37.9096 24.329C37.9655 24.2307 37.995 24.1194 37.995 24.0062C37.995 23.8929 37.9655 23.7816 37.9096 23.6834C37.8536 23.5852 37.7731 23.5035 37.6761 23.4464L33.8487 21.2127L37.6556 18.9944C37.7632 18.9383 37.8525 18.8519 37.9124 18.7456C37.955 18.6721 37.9827 18.5909 37.9941 18.5066C38.0055 18.4223 38.0003 18.3365 37.9789 18.2542C37.9574 18.1719 37.9201 18.0947 37.869 18.0269C37.8179 17.9592 37.7541 17.9023 37.6813 17.8594L24.3237 10.0852C24.2258 10.0294 24.1151 10 24.0026 10C23.8901 10 23.7795 10.0294 23.6815 10.0852L10.324 17.8594C10.2258 17.9161 10.1441 17.9979 10.0874 18.0967C10.0306 18.1954 10.0007 18.3076 10.0007 18.4217C10.0007 18.5359 10.0306 18.648 10.0874 18.7468C10.1441 18.8455 10.2258 18.9274 10.324 18.9841L14.1514 21.2127L10.3189 23.4464C10.2218 23.5035 10.1413 23.5852 10.0854 23.6834C10.0294 23.7816 10 23.8929 10 24.0062C10 24.1194 10.0294 24.2307 10.0854 24.329C10.1413 24.4272 10.2218 24.5089 10.3189 24.5659L14.1514 26.7997L10.324 29.0283C10.2258 29.085 10.1441 29.1668 10.0874 29.2656C10.0306 29.3643 10.0007 29.4765 10.0007 29.5906C10.0007 29.7048 10.0306 29.8169 10.0874 29.9157C10.1441 30.0144 10.2258 30.0963 10.324 30.1529L23.6815 37.9271C23.778 37.9782 23.886 38.0032 23.9949 37.9997C24.1085 37.9988 24.22 37.9684 24.3186 37.9116L37.6761 30.1374C37.773 30.0797 37.8534 29.9974 37.9092 29.8988C37.965 29.8002 37.9943 29.6886 37.9943 29.5751C37.9943 29.4615 37.965 29.3499 37.9092 29.2513C37.8534 29.1527 37.773 29.0705 37.6761 29.0127V29.0283ZM11.9218 24.0062L15.4307 21.9642L23.6507 26.7634C23.7473 26.8207 23.8572 26.8512 23.9692 26.8515C24.0828 26.8506 24.1943 26.8203 24.2929 26.7634L32.5129 21.9642L36.0681 24.0062L23.9949 31.0392L11.9218 24.0062ZM23.9949 36.6211L11.9218 29.5932L15.4307 27.5201L23.6507 32.3194C23.7472 32.3768 23.8572 32.4071 23.9692 32.4071C24.0813 32.4071 24.1913 32.3768 24.2878 32.3194L32.5335 27.5201L36.0424 29.5932L23.9949 36.6211Z" fill="#F8F9FA"/>
</svg>
